STARTFONT 2.1
COMMENT This font was automatically resized by bdfresize-1.5
COMMENT   mag_x = 2/1, mag_y = 2/1, blackness = 4
COMMENT
COMMENT Converted from OpenType font "BebasNeue-Bold.ttf" by "otf2bdf 3.0".
COMMENT
FONT -FreeType-Bebas Neue-Bold-R-Normal--90-900-72-72-P-310-ISO10646-1
SIZE 60 72 72
FONTBOUNDINGBOX 102 98 -12 -16
STARTPROPERTIES 19
FOUNDRY "FreeType"
FAMILY_NAME "Bebas Neue"
WEIGHT_NAME "Bold"
SLANT "R"
SETWIDTH_NAME "Normal"
ADD_STYLE_NAME ""
PIXEL_SIZE 90
POINT_SIZE 900
RESOLUTION_X 72
RESOLUTION_Y 72
SPACING "P"
AVERAGE_WIDTH 310
CHARSET_REGISTRY "ISO10646"
CHARSET_ENCODING "1"
FONT_ASCENT 66
FONT_DESCENT 22
COPYRIGHT "Copyright \(c\) 2010 by Ryoichi Tsunekawa. All rights reserved."
_OTF_FONTFILE "BebasNeue-Bold.ttf"
_OTF_PSNAME "BebasNeue-Bold"
ENDPROPERTIES
CHARS 470
STARTCHAR 0020
ENCODING 32
SWIDTH 310 0
DWIDTH 14 0
BBX 0 0 0 0
BITMAP
ENDCHAR
STARTCHAR 0021
ENCODING 33
SWIDTH 400 0
DWIDTH 18 0
BBX 10 64 4 0
BITMAP
FFC0
FFC0
FFC0
FFC0
FFC0
FFC0
FFC0
FFC0
FFC0
FFC0
FFC0
FFC0
FFC0
FFC0
FFC0
FFC0
FFC0
FFC0
FFC0
FFC0
FFC0
FFC0
FFC0
FFC0
FFC0
FFC0
FFC0
FFC0
FFC0
FFC0
FFC0
FFC0
FFC0
FFC0
FFC0
FFC0
FF00
FF00
FF00
FF00
FF00
FF00
FF00
FF00
FF00
FF00
FF00
FF00
FF00
FF00
0000
0000
0000
0000
FFC0
FFC0
FFC0
FFC0
FFC0
FFC0
FFC0
FFC0
FFC0
FFC0
ENDCHAR
STARTCHAR 0022
ENCODING 34
SWIDTH 666 0
DWIDTH 30 0
BBX 22 18 4 46
BITMAP
FFCFFC
FFCFFC
FF0FFC
FF0FFC
FF0FFC
FF0FFC
FF0FFC
FF0FFC
FF0FF0
FF0FF0
FF0FF0
FF0FF0
FF03F0
FF03F0
FF03F0
FF03F0
FF03F0
FF03F0
ENDCHAR
STARTCHAR 0023
ENCODING 35
SWIDTH 800 0
DWIDTH 36 0
BBX 34 64 2 0
BITMAP
00FF03FC00
00FF03FC00
00FF03FC00
00FF03FC00
00FF03FC00
00FF03FC00
00FF03FC00
00FF03FC00
00FF03FC00
00FF03FC00
00FF03FC00
00FF03FC00
00FF03FC00
00FF03FC00
00FF03FC00
00FF03FC00
00FF03FC00
00FF03FC00
3FFFFFFFC0
3FFFFFFFC0
03FC0FF000
03FC0FF000
03FC0FF000
03FC0FF000
03FC0FF000
03FC0FF000
03FC0FF000
03FC0FF000
03FC0FF000
03FC0FF000
03FC0FF000
03FC0FF000
0FFC3FF000
0FFC3FF000
0FF03FC000
0FF03FC000
0FF03FC000
0FF03FC000
FFFFFFFF00
FFFFFFFF00
FFFFFFFC00
FFFFFFFC00
FFFFFFFC00
FFFFFFFC00
FFFFFFFC00
FFFFFFFC00
0FF03FC000
0FF03FC000
0FF03FC000
0FF03FC000
0FF03FC000
0FF03FC000
3FF0FFC000
3FF0FFC000
3FC0FF0000
3FC0FF0000
3FC0FF0000
3FC0FF0000
3FC0FF0000
3FC0FF0000
3FC0FF0000
3FC0FF0000
3FC0FF0000
3FC0FF0000
ENDCHAR
STARTCHAR 0024
ENCODING 36
SWIDTH 800 0
DWIDTH 36 0
BBX 28 72 4 -4
BITMAP
003FC000
003FC000
003FC000
003FC000
003FC000
003FC000
03FFFC00
03FFFC00
3FFFFF00
3FFFFF00
3FFFFFC0
3FFFFFC0
FFFFFFF0
FFFFFFF0
FFF03FF0
FFF03FF0
FFC03FF0
FFC03FF0
FFC00FF0
FFC00FF0
FFC00FF0
FFC00FF0
FFC00000
FFC00000
FFC00000
FFC00000
FFF00000
FFF00000
3FFC0000
3FFC0000
3FFF0000
3FFF0000
0FFFC000
0FFFC000
03FFF000
03FFF000
00FFFC00
00FFFC00
003FFF00
003FFF00
000FFFC0
000FFFC0
0003FFC0
0003FFC0
0000FFF0
0000FFF0
00003FF0
00003FF0
FF003FF0
FF003FF0
FF003FF0
FF003FF0
FF003FF0
FF003FF0
FF003FF0
FF003FF0
FFC0FFF0
FFC0FFF0
FFFFFFF0
FFFFFFF0
3FFFFFC0
3FFFFFC0
3FFFFFC0
3FFFFFC0
0FFFFF00
0FFFFF00
003FC000
003FC000
003FC000
003FC000
003FC000
003FC000
ENDCHAR
STARTCHAR 0025
ENCODING 37
SWIDTH 1244 0
DWIDTH 56 0
BBX 50 64 4 0
BITMAP
0FFC00003F0000
0FFC00003F0000
3FFF0000FC0000
3FFF0000FC0000
FFFFC000FC0000
FFFFC000FC0000
FC0FC003F00000
FC0FC003F00000
FC0FC003F00000
FC0FC003F00000
FC0FC003F00000
FC0FC003F00000
FC0FC00FC00000
FC0FC00FC00000
FC0FC00FC00000
FC0FC00FC00000
FC0FC03F000000
FC0FC03F000000
FC0FC03F000000
FC0FC03F000000
FC0FC03F000000
FC0FC03F000000
FC0FC0FC000000
FC0FC0FC000000
FC0FC0FC3FF000
FC0FC0FC3FF000
FC0FC3F0FFFF00
FC0FC3F0FFFF00
FC0FC3F0FFFF00
FC0FC3F0FFFF00
FC0FC3F3FC3FC0
FC0FC3F3FC3FC0
FC0FCFC3F00FC0
FC0FCFC3F00FC0
FC0FCFC3F00FC0
FC0FCFC3F00FC0
FFFFCF03F00FC0
FFFFCF03F00FC0
3FFF3F03F00FC0
3FFF3F03F00FC0
0FF03F03F00FC0
0FF03F03F00FC0
0000FC03F00FC0
0000FC03F00FC0
0000FC03F00FC0
0000FC03F00FC0
0000FC03F00FC0
0000FC03F00FC0
0003F003F00FC0
0003F003F00FC0
0003F003F00FC0
0003F003F00FC0
000FC003F00FC0
000FC003F00FC0
000FC003F03FC0
000FC003F03FC0
000FC003FC3FC0
000FC003FC3FC0
003F0000FFFF00
003F0000FFFF00
003F0000FFFF00
003F0000FFFF00
00FC00003FF000
00FC00003FF000
ENDCHAR
STARTCHAR 0026
ENCODING 38
SWIDTH 844 0
DWIDTH 38 0
BBX 32 64 4 0
BITMAP
00FFFFC0
00FFFFC0
0FFFFFC0
0FFFFFC0
3FFFFFC0
3FFFFFC0
3FFFFFC0
3FFFFFC0
FFFFFFC0
FFFFFFC0
FFC00000
FFC00000
FFC00000
FFC00000
FFC00000
FFC00000
FFC00000
FFC00000
FFC00FFC
FFC00FFC
FFC00FFC
FFC00FFC
FFC00FFC
FFC00FFC
3FF00FFC
3FF00FFC
3FFFFFFF
3FFFFFFF
0FFFFFFF
0FFFFFFF
0FFFFFFF
0FFFFFFF
3FFFFFFF
3FFFFFFF
3FFFFFFF
3FFFFFFF
FFF00FFC
FFF00FFC
FFC00FFC
FFC00FFC
FFC00FFC
FFC00FFC
FFC00FFC
FFC00FFC
FFC00FFC
FFC00FFC
FFC00FFC
FFC00FFC
FFC00FFC
FFC00FFC
FFC00FFC
FFC00FFC
FFC03FFC
FFC03FFC
FFFFFFFC
FFFFFFFC
FFFFFFFC
FFFFFFFC
3FFFFFFC
3FFFFFFC
0FFFCFFC
0FFFCFFC
03FF0FFC
03FF0FFC
ENDCHAR
STARTCHAR 0027
ENCODING 39
SWIDTH 354 0
DWIDTH 16 0
BBX 8 18 4 46
BITMAP
FF
FF
FF
FF
FF
FF
FF
FF
FF
FF
FF
FF
FF
FF
FF
FF
FF
FF
ENDCHAR
STARTCHAR 0028
ENCODING 40
SWIDTH 488 0
DWIDTH 22 0
BBX 18 64 4 0
BITMAP
00FFC0
00FFC0
0FFFC0
0FFFC0
3FFFC0
3FFFC0
3FFFC0
3FFFC0
FFFFC0
FFFFC0
FFC000
FFC000
FFC000
FFC000
FFC000
FFC000
FFC000
FFC000
FFC000
FFC000
FFC000
FFC000
FFC000
FFC000
FFC000
FFC000
FFC000
FFC000
FFC000
FFC000
FFC000
FFC000
FFC000
FFC000
FFC000
FFC000
FFC000
FFC000
FFC000
FFC000
FFC000
FFC000
FFC000
FFC000
FFC000
FFC000
FFC000
FFC000
FFC000
FFC000
FFC000
FFC000
FFC000
FFC000
FFFFC0
FFFFC0
3FFFC0
3FFFC0
3FFFC0
3FFFC0
0FFFC0
0FFFC0
00FFC0
00FFC0
ENDCHAR
STARTCHAR 0029
ENCODING 41
SWIDTH 488 0
DWIDTH 22 0
BBX 16 64 2 0
BITMAP
FFC0
FFC0
FFF0
FFF0
FFFC
FFFC
FFFF
FFFF
FFFF
FFFF
03FF
03FF
03FF
03FF
03FF
03FF
03FF
03FF
03FF
03FF
03FF
03FF
03FF
03FF
03FF
03FF
03FF
03FF
03FF
03FF
03FF
03FF
03FF
03FF
03FF
03FF
03FF
03FF
03FF
03FF
03FF
03FF
03FF
03FF
03FF
03FF
03FF
03FF
03FF
03FF
03FF
03FF
03FF
03FF
FFFF
FFFF
FFFF
FFFF
FFFC
FFFC
FFF0
FFF0
FFC0
FFC0
ENDCHAR
STARTCHAR 002A
ENCODING 42
SWIDTH 800 0
DWIDTH 36 0
BBX 36 34 0 30
BITMAP
0003FC0000
0003FC0000
0003FC0000
0003FC0000
0003FC0000
0003FC0000
0003F00000
0003F00000
3000F000C0
3000F000C0
3F00F00FC0
3F00F00FC0
3FF0F0FFC0
3FF0F0FFC0
FFFFFFFFF0
FFFFFFFFF0
00FFFFF000
00FFFFF000
0003FC0000
0003FC0000
000FFF0000
000FFF0000
003F0FC000
003F0FC000
00FF0FF000
00FF0FF000
03FC03FC00
03FC03FC00
0FFC03FF00
0FFC03FF00
00F000F000
00F000F000
003000C000
003000C000
ENDCHAR
STARTCHAR 002B
ENCODING 43
SWIDTH 800 0
DWIDTH 36 0
BBX 32 32 2 16
BITMAP
000FF000
000FF000
000FF000
000FF000
000FF000
000FF000
000FF000
000FF000
000FF000
000FF000
000FF000
000FF000
FFFFFFFF
FFFFFFFF
FFFFFFFF
FFFFFFFF
FFFFFFFF
FFFFFFFF
FFFFFFFF
FFFFFFFF
000FF000
000FF000
000FF000
000FF000
000FF000
000FF000
000FF000
000FF000
000FF000
000FF000
000FF000
000FF000
ENDCHAR
STARTCHAR 002C
ENCODING 44
SWIDTH 354 0
DWIDTH 16 0
BBX 10 18 4 -8
BITMAP
FFC0
FFC0
FFC0
FFC0
FFC0
FFC0
FFC0
FFC0
FFC0
FFC0
0F00
0F00
3F00
3F00
3C00
3C00
FC00
FC00
ENDCHAR
STARTCHAR 002D
ENCODING 45
SWIDTH 532 0
DWIDTH 24 0
BBX 18 10 4 28
BITMAP
FFFFC0
FFFFC0
FFFFC0
FFFFC0
FFFFC0
FFFFC0
FFFFC0
FFFFC0
FFFFC0
FFFFC0
ENDCHAR
STARTCHAR 002E
ENCODING 46
SWIDTH 354 0
DWIDTH 16 0
BBX 10 10 4 0
BITMAP
FFC0
FFC0
FFC0
FFC0
FFC0
FFC0
FFC0
FFC0
FFC0
FFC0
ENDCHAR
STARTCHAR 002F
ENCODING 47
SWIDTH 754 0
DWIDTH 34 0
BBX 34 64 0 0
BITMAP
000000FFC0
000000FFC0
000000FF00
000000FF00
000000FF00
000000FF00
000003FF00
000003FF00
000003FC00
000003FC00
00000FFC00
00000FFC00
00000FF000
00000FF000
00000FF000
00000FF000
00003FF000
00003FF000
00003FC000
00003FC000
00003FC000
00003FC000
0000FF0000
0000FF0000
0000FF0000
0000FF0000
0003FF0000
0003FF0000
0003FC0000
0003FC0000
0003FC0000
0003FC0000
000FFC0000
000FFC0000
000FF00000
000FF00000
003FF00000
003FF00000
003FC00000
003FC00000
003FC00000
003FC00000
00FFC00000
00FFC00000
00FF000000
00FF000000
03FF000000
03FF000000
03FC000000
03FC000000
03FC000000
03FC000000
0FFC000000
0FFC000000
0FF0000000
0FF0000000
0FF0000000
0FF0000000
3FC0000000
3FC0000000
3FC0000000
3FC0000000
FFC0000000
FFC0000000
ENDCHAR
STARTCHAR 0030
ENCODING 48
SWIDTH 800 0
DWIDTH 36 0
BBX 30 64 2 0
BITMAP
003FFC00
003FFC00
03FFFFC0
03FFFFC0
0FFFFFF0
0FFFFFF0
3FFFFFF0
3FFFFFF0
3FFFFFFC
3FFFFFFC
3FF00FFC
3FF00FFC
FFC00FFC
FFC00FFC
FFC00FFC
FFC00FFC
FFC00FFC
FFC00FFC
FFC00FFC
FFC00FFC
FFC00FFC
FFC00FFC
FFC00FFC
FFC00FFC
FFC00FFC
FFC00FFC
FFC00FFC
FFC00FFC
FFC00FFC
FFC00FFC
FFC00FFC
FFC00FFC
FFC00FFC
FFC00FFC
FFC00FFC
FFC00FFC
FFC00FFC
FFC00FFC
FFC00FFC
FFC00FFC
FFC00FFC
FFC00FFC
FFC00FFC
FFC00FFC
FFC00FFC
FFC00FFC
FFC00FFC
FFC00FFC
FFC00FFC
FFC00FFC
FFC00FFC
FFC00FFC
3FF00FFC
3FF00FFC
3FFFFFFC
3FFFFFFC
3FFFFFF0
3FFFFFF0
0FFFFFF0
0FFFFFF0
03FFFFC0
03FFFFC0
003FFC00
003FFC00
ENDCHAR
STARTCHAR 0031
ENCODING 49
SWIDTH 800 0
DWIDTH 36 0
BBX 18 64 10 0
BITMAP
003FC0
003FC0
003FC0
003FC0
00FFC0
00FFC0
03FFC0
03FFC0
FFFFC0
FFFFC0
FFFFC0
FFFFC0
FFFFC0
FFFFC0
FFFFC0
FFFFC0
00FFC0
00FFC0
00FFC0
00FFC0
00FFC0
00FFC0
00FFC0
00FFC0
00FFC0
00FFC0
00FFC0
00FFC0
00FFC0
00FFC0
00FFC0
00FFC0
00FFC0
00FFC0
00FFC0
00FFC0
00FFC0
00FFC0
00FFC0
00FFC0
00FFC0
00FFC0
00FFC0
00FFC0
00FFC0
00FFC0
00FFC0
00FFC0
00FFC0
00FFC0
00FFC0
00FFC0
00FFC0
00FFC0
00FFC0
00FFC0
00FFC0
00FFC0
00FFC0
00FFC0
00FFC0
00FFC0
00FFC0
00FFC0
ENDCHAR
STARTCHAR 0032
ENCODING 50
SWIDTH 800 0
DWIDTH 36 0
BBX 30 64 4 0
BITMAP
00FFF000
00FFF000
0FFFFF00
0FFFFF00
3FFFFFC0
3FFFFFC0
3FFFFFF0
3FFFFFF0
FFFFFFF0
FFFFFFF0
FFC03FF0
FFC03FF0
FFC03FF0
FFC03FF0
FF000FFC
FF000FFC
FF000FFC
FF000FFC
FF000FF0
FF000FF0
FF003FF0
FF003FF0
00003FF0
00003FF0
00003FF0
00003FF0
0000FFC0
0000FFC0
0000FFC0
0000FFC0
0003FF00
0003FF00
000FFF00
000FFF00
003FFC00
003FFC00
00FFF000
00FFF000
03FFC000
03FFC000
03FFC000
03FFC000
0FFF0000
0FFF0000
3FFC0000
3FFC0000
3FF00000
3FF00000
FFC00000
FFC00000
FFC00000
FFC00000
FFC00000
FFC00000
FFFFFFF0
FFFFFFF0
FFFFFFF0
FFFFFFF0
FFFFFFF0
FFFFFFF0
FFFFFFF0
FFFFFFF0
FFFFFFF0
FFFFFFF0
ENDCHAR
STARTCHAR 0033
ENCODING 51
SWIDTH 800 0
DWIDTH 36 0
BBX 28 64 4 0
BITMAP
00FFF000
00FFF000
0FFFFF00
0FFFFF00
3FFFFFC0
3FFFFFC0
FFFFFFC0
FFFFFFC0
FFFFFFF0
FFFFFFF0
FFC03FF0
FFC03FF0
FF003FF0
FF003FF0
FF003FF0
FF003FF0
FF003FF0
FF003FF0
FF003FF0
FF003FF0
00003FF0
00003FF0
00003FF0
00003FF0
0000FFF0
0000FFF0
00FFFFC0
00FFFFC0
00FFFF00
00FFFF00
00FFFF00
00FFFF00
00FFFFC0
00FFFFC0
00FFFFC0
00FFFFC0
00003FF0
00003FF0
00003FF0
00003FF0
00003FF0
00003FF0
FF003FF0
FF003FF0
FF003FF0
FF003FF0
FF003FF0
FF003FF0
FF003FF0
FF003FF0
FF003FF0
FF003FF0
FFC03FF0
FFC03FF0
FFFFFFF0
FFFFFFF0
FFFFFFC0
FFFFFFC0
3FFFFFC0
3FFFFFC0
0FFFFF00
0FFFFF00
00FFF000
00FFF000
ENDCHAR
STARTCHAR 0034
ENCODING 52
SWIDTH 800 0
DWIDTH 36 0
BBX 32 64 2 0
BITMAP
0000FFF0
0000FFF0
0000FFF0
0000FFF0
0000FFF0
0000FFF0
0003FFF0
0003FFF0
0003FFF0
0003FFF0
000FFFF0
000FFFF0
000FFFF0
000FFFF0
000FFFF0
000FFFF0
003FFFF0
003FFFF0
003FFFF0
003FFFF0
00FFFFF0
00FFFFF0
00FFFFF0
00FFFFF0
03FF3FF0
03FF3FF0
03FF3FF0
03FF3FF0
03FC3FF0
03FC3FF0
0FFC3FF0
0FFC3FF0
0FF03FF0
0FF03FF0
3FF03FF0
3FF03FF0
3FF03FF0
3FF03FF0
3FC03FF0
3FC03FF0
FFC03FF0
FFC03FF0
FF003FF0
FF003FF0
FFFFFFFF
FFFFFFFF
FFFFFFFF
FFFFFFFF
FFFFFFFF
FFFFFFFF
FFFFFFFF
FFFFFFFF
FFFFFFFF
FFFFFFFF
00003FF0
00003FF0
00003FF0
00003FF0
00003FF0
00003FF0
00003FF0
00003FF0
00003FF0
00003FF0
ENDCHAR
STARTCHAR 0035
ENCODING 53
SWIDTH 800 0
DWIDTH 36 0
BBX 28 64 4 0
BITMAP
FFFFFFF0
FFFFFFF0
FFFFFFF0
FFFFFFF0
FFFFFFF0
FFFFFFF0
FFFFFFF0
FFFFFFF0
FFFFFFF0
FFFFFFF0
FFC00000
FFC00000
FFC00000
FFC00000
FFC00000
FFC00000
FFC00000
FFC00000
FFC00000
FFC00000
FFC3FC00
FFC3FC00
FFFFFFC0
FFFFFFC0
FFFFFFC0
FFFFFFC0
FFFFFFF0
FFFFFFF0
FFFFFFF0
FFFFFFF0
FFC03FF0
FFC03FF0
FF003FF0
FF003FF0
FF003FF0
FF003FF0
FF003FF0
FF003FF0
00003FF0
00003FF0
00003FF0
00003FF0
00003FF0
00003FF0
FF003FF0
FF003FF0
FF003FF0
FF003FF0
FF003FF0
FF003FF0
FF003FF0
FF003FF0
FFC03FF0
FFC03FF0
FFFFFFF0
FFFFFFF0
FFFFFFC0
FFFFFFC0
3FFFFFC0
3FFFFFC0
0FFFFF00
0FFFFF00
00FFF000
00FFF000
ENDCHAR
STARTCHAR 0036
ENCODING 54
SWIDTH 800 0
DWIDTH 36 0
BBX 32 64 2 0
BITMAP
003FFC00
003FFC00
03FFFFC0
03FFFFC0
0FFFFFF0
0FFFFFF0
3FFFFFFC
3FFFFFFC
3FFFFFFC
3FFFFFFC
3FF00FFC
3FF00FFC
3FF003FC
3FF003FC
FFC003FC
FFC003FC
FFC003FC
FFC003FC
FFC00000
FFC00000
FFC00000
FFC00000
FFC0FF00
FFC0FF00
FFCFFFF0
FFCFFFF0
FFCFFFFC
FFCFFFFC
FFFFFFFC
FFFFFFFC
FFFFFFFC
FFFFFFFC
FFF00FFC
FFF00FFC
FFF00FFC
FFF00FFC
FFC003FF
FFC003FF
FFC003FF
FFC003FF
FFC003FF
FFC003FF
FFC003FF
FFC003FF
FFC003FF
FFC003FF
FFC003FF
FFC003FF
FFC003FF
FFC003FF
3FF00FFC
3FF00FFC
3FF00FFC
3FF00FFC
3FFFFFFC
3FFFFFFC
3FFFFFFC
3FFFFFFC
0FFFFFF0
0FFFFFF0
03FFFFC0
03FFFFC0
003FFC00
003FFC00
ENDCHAR
STARTCHAR 0037
ENCODING 55
SWIDTH 800 0
DWIDTH 36 0
BBX 30 64 2 0
BITMAP
FFFFFFFC
FFFFFFFC
FFFFFFFC
FFFFFFFC
FFFFFFFC
FFFFFFFC
FFFFFFFC
FFFFFFFC
FFFFFFFC
FFFFFFFC
00000FFC
00000FFC
00000FFC
00000FFC
00000FFC
00000FFC
00003FF0
00003FF0
00003FF0
00003FF0
00003FF0
00003FF0
0000FFC0
0000FFC0
0000FFC0
0000FFC0
0000FFC0
0000FFC0
0000FFC0
0000FFC0
0003FF00
0003FF00
0003FF00
0003FF00
0003FF00
0003FF00
0003FF00
0003FF00
000FFC00
000FFC00
000FFC00
000FFC00
000FFC00
000FFC00
000FFC00
000FFC00
003FF000
003FF000
003FF000
003FF000
003FF000
003FF000
003FF000
003FF000
00FFC000
00FFC000
00FFC000
00FFC000
00FFC000
00FFC000
03FF0000
03FF0000
03FF0000
03FF0000
ENDCHAR
STARTCHAR 0038
ENCODING 56
SWIDTH 800 0
DWIDTH 36 0
BBX 32 64 2 0
BITMAP
003FFC00
003FFC00
03FFFFC0
03FFFFC0
0FFFFFF0
0FFFFFF0
3FFFFFFC
3FFFFFFC
3FFFFFFC
3FFFFFFC
FFF00FFC
FFF00FFC
FFC003FF
FFC003FF
FFC003FF
FFC003FF
FFC003FF
FFC003FF
FFC003FF
FFC003FF
FFC003FF
FFC003FF
FFC00FFC
FFC00FFC
3FF00FFC
3FF00FFC
3FFFFFF0
3FFFFFF0
0FFFFFC0
0FFFFFC0
03FFFFC0
03FFFFC0
0FFFFFF0
0FFFFFF0
3FFFFFFC
3FFFFFFC
3FF00FFC
3FF00FFC
FFC003FC
FFC003FC
FFC003FF
FFC003FF
FFC003FF
FFC003FF
FFC003FF
FFC003FF
FFC003FF
FFC003FF
FFC003FF
FFC003FF
FFC00FFF
FFC00FFF
FFF00FFC
FFF00FFC
3FFFFFFC
3FFFFFFC
3FFFFFFC
3FFFFFFC
0FFFFFF0
0FFFFFF0
03FFFFC0
03FFFFC0
003FFC00
003FFC00
ENDCHAR
STARTCHAR 0039
ENCODING 57
SWIDTH 800 0
DWIDTH 36 0
BBX 30 64 2 0
BITMAP
003FFC00
003FFC00
03FFFFC0
03FFFFC0
0FFFFFF0
0FFFFFF0
3FFFFFF0
3FFFFFF0
3FFFFFFC
3FFFFFFC
FFF00FFC
FFF00FFC
FFC00FFC
FFC00FFC
FFC00FFC
FFC00FFC
FFC00FFC
FFC00FFC
FFC00FFC
FFC00FFC
FFC00FFC
FFC00FFC
FFC00FFC
FFC00FFC
FFC00FFC
FFC00FFC
FFC00FFC
FFC00FFC
FFC00FFC
FFC00FFC
FFF03FFC
FFF03FFC
3FFFFFFC
3FFFFFFC
3FFFFFFC
3FFFFFFC
0FFFFFFC
0FFFFFFC
0FFFCFFC
0FFFCFFC
00300FFC
00300FFC
00000FFC
00000FFC
00000FFC
00000FFC
FFC00FFC
FFC00FFC
FFC00FFC
FFC00FFC
FFC00FFC
FFC00FFC
3FF00FFC
3FF00FFC
3FFFFFFC
3FFFFFFC
3FFFFFF0
3FFFFFF0
0FFFFFF0
0FFFFFF0
03FFFFC0
03FFFFC0
003FFC00
003FFC00
ENDCHAR
STARTCHAR 003A
ENCODING 58
SWIDTH 354 0
DWIDTH 16 0
BBX 10 44 4 0
BITMAP
FFC0
FFC0
FFC0
FFC0
FFC0
FFC0
FFC0
FFC0
FFC0
FFC0
0000
0000
0000
0000
0000
0000
0000
0000
0000
0000
0000
0000
0000
0000
0000
0000
0000
0000
0000
0000
0000
0000
0000
0000
FFC0
FFC0
FFC0
FFC0
FFC0
FFC0
FFC0
FFC0
FFC0
FFC0
ENDCHAR
STARTCHAR 003B
ENCODING 59
SWIDTH 354 0
DWIDTH 16 0
BBX 10 52 4 -8
BITMAP
FFC0
FFC0
FFC0
FFC0
FFC0
FFC0
FFC0
FFC0
FFC0
FFC0
0000
0000
0000
0000
0000
0000
0000
0000
0000
0000
0000
0000
0000
0000
0000
0000
0000
0000
0000
0000
0000
0000
0000
0000
FFC0
FFC0
FFC0
FFC0
FFC0
FFC0
FFC0
FFC0
FFC0
FFC0
0F00
0F00
3F00
3F00
3C00
3C00
FC00
FC00
ENDCHAR
STARTCHAR 003C
ENCODING 60
SWIDTH 800 0
DWIDTH 36 0
BBX 30 28 2 18
BITMAP
0000000C
0000000C
000003FC
000003FC
0000FFFC
0000FFFC
000FFFFC
000FFFFC
03FFFFC0
03FFFFC0
FFFFF000
FFFFF000
FFFC0000
FFFC0000
FFF00000
FFF00000
FFFF0000
FFFF0000
0FFFFC00
0FFFFC00
00FFFFF0
00FFFFF0
0003FFFC
0003FFFC
00000FFC
00000FFC
0000003C
0000003C
ENDCHAR
STARTCHAR 003D
ENCODING 61
SWIDTH 800 0
DWIDTH 36 0
BBX 28 22 4 20
BITMAP
FFFFFFF0
FFFFFFF0
FFFFFFF0
FFFFFFF0
FFFFFFF0
FFFFFFF0
FFFFFFF0
FFFFFFF0
00000000
00000000
00000000
00000000
00000000
00000000
FFFFFFF0
FFFFFFF0
FFFFFFF0
FFFFFFF0
FFFFFFF0
FFFFFFF0
FFFFFFF0
FFFFFFF0
ENDCHAR
STARTCHAR 003E
ENCODING 62
SWIDTH 800 0
DWIDTH 36 0
BBX 28 28 4 18
BITMAP
C0000000
C0000000
FF000000
FF000000
FFF00000
FFF00000
FFFFC000
FFFFC000
0FFFFF00
0FFFFF00
003FFFF0
003FFFF0
0000FFF0
0000FFF0
00003FF0
00003FF0
000FFFF0
000FFFF0
00FFFFC0
00FFFFC0
3FFFF000
3FFFF000
FFFF0000
FFFF0000
FFC00000
FFC00000
F0000000
F0000000
ENDCHAR
STARTCHAR 003F
ENCODING 63
SWIDTH 710 0
DWIDTH 32 0
BBX 28 64 2 0
BITMAP
00FFF000
00FFF000
0FFFFF00
0FFFFF00
3FFFFFC0
3FFFFFC0
3FFFFFF0
3FFFFFF0
FFFFFFF0
FFFFFFF0
FFC03FF0
FFC03FF0
FFC03FF0
FFC03FF0
FFC00FF0
FFC00FF0
FFC03FF0
FFC03FF0
FFC03FF0
FFC03FF0
FFC03FF0
FFC03FF0
00003FF0
00003FF0
00003FF0
00003FF0
0000FFC0
0000FFC0
0000FFC0
0000FFC0
0003FF00
0003FF00
000FFF00
000FFF00
000FFC00
000FFC00
003FF000
003FF000
003FF000
003FF000
00FFC000
00FFC000
00FFC000
00FFC000
00FFC000
00FFC000
00FFC000
00FFC000
00FFC000
00FFC000
00000000
00000000
00000000
00000000
00FFC000
00FFC000
00FFC000
00FFC000
00FFC000
00FFC000
00FFC000
00FFC000
00FFC000
00FFC000
ENDCHAR
STARTCHAR 0040
ENCODING 64
SWIDTH 1376 0
DWIDTH 62 0
BBX 58 72 2 -6
BITMAP
000000FFFFC00000
000000FFFFC00000
00000FFFFFFF0000
00000FFFFFFF0000
0000FFFFFFFFC000
0000FFFFFFFFC000
0003FFFFFFFFF000
0003FFFFFFFFF000
003FFFC000FFFC00
003FFFC000FFFC00
003FF000000FFC00
003FF000000FFC00
00FFC0000003FF00
00FFC0000003FF00
03FF00000000FF00
03FF00000000FF00
03FC00000000FFC0
03FC00000000FFC0
0FFC00FF0FF03FC0
0FFC00FF0FF03FC0
0FF00FFFCFF03FC0
0FF00FFFCFF03FC0
3FF00FFFFFF03FC0
3FF00FFFFFF03FC0
3FC03FFFFFF03FC0
3FC03FFFFFF03FC0
3FC03FFFFFF03FC0
3FC03FFFFFF03FC0
3FC03FC03FF03FC0
3FC03FC03FF03FC0
FFC03FC03FF03FC0
FFC03FC03FF03FC0
FFC0FFC03FF03FC0
FFC0FFC03FF03FC0
FF00FFC03FC03FC0
FF00FFC03FC03FC0
FF00FFC03FC03FC0
FF00FFC03FC03FC0
FF00FF003FC03FC0
FF00FF003FC03FC0
FF00FF003FC0FF00
FF00FF003FC0FF00
FF00FF003FC0FF00
FF00FF003FC0FF00
FF00FFC0FFC0FF00
FF00FFC0FFC0FF00
FFC0FFFFFFFFFC00
FFC0FFFFFFFFFC00
FFC0FFFFFFFFF000
FFC0FFFFFFFFF000
3FC03FFF3FFFF000
3FC03FFF3FFFF000
3FC03FFC3FFFC000
3FC03FFC3FFFC000
3FF000C00FFC0000
3FF000C00FFC0000
0FFC000000000000
0FFC000000000000
0FFC00000000C000
0FFC00000000C000
03FFC000000F0000
03FFC000000F0000
03FFFC0003FF0000
03FFFC0003FF0000
00FFFFFFFFFF0000
00FFFFFFFFFF0000
003FFFFFFFFF0000
003FFFFFFFFF0000
0003FFFFFFF00000
0003FFFFFFF00000
00000FFFFC000000
00000FFFFC000000
ENDCHAR
STARTCHAR 0041
ENCODING 65
SWIDTH 800 0
DWIDTH 36 0
BBX 36 64 0 0
BITMAP
003FFFC000
003FFFC000
003FFFC000
003FFFC000
003FFFC000
003FFFC000
003FFFC000
003FFFC000
003FFFC000
003FFFC000
003FFFF000
003FFFF000
00FFFFF000
00FFFFF000
00FFFFF000
00FFFFF000
00FFFFF000
00FFFFF000
00FF3FF000
00FF3FF000
00FF0FF000
00FF0FF000
00FF0FFC00
00FF0FFC00
00FF0FFC00
00FF0FFC00
03FF0FFC00
03FF0FFC00
03FF0FFC00
03FF0FFC00
03FC0FFC00
03FC0FFC00
03FC0FFC00
03FC0FFC00
03FC03FF00
03FC03FF00
03FC03FF00
03FC03FF00
0FFC03FF00
0FFC03FF00
0FFC03FF00
0FFC03FF00
0FFC03FF00
0FFC03FF00
0FFFFFFF00
0FFFFFFF00
0FFFFFFF00
0FFFFFFF00
0FFFFFFFC0
0FFFFFFFC0
0FFFFFFFC0
0FFFFFFFC0
3FFFFFFFC0
3FFFFFFFC0
3FF000FFC0
3FF000FFC0
3FF000FFC0
3FF000FFC0
3FC000FFC0
3FC000FFC0
3FC0003FF0
3FC0003FF0
FFC0003FF0
FFC0003FF0
ENDCHAR
STARTCHAR 0042
ENCODING 66
SWIDTH 800 0
DWIDTH 36 0
BBX 30 64 4 0
BITMAP
FFFFFC00
FFFFFC00
FFFFFF00
FFFFFF00
FFFFFFC0
FFFFFFC0
FFFFFFF0
FFFFFFF0
FFFFFFF0
FFFFFFF0
FFC03FF0
FFC03FF0
FFC00FFC
FFC00FFC
FFC00FFC
FFC00FFC
FFC00FFC
FFC00FFC
FFC00FFC
FFC00FFC
FFC00FFC
FFC00FFC
FFC03FF0
FFC03FF0
FFC03FF0
FFC03FF0
FFFFFFF0
FFFFFFF0
FFFFFFC0
FFFFFFC0
FFFFFF00
FFFFFF00
FFFFFFC0
FFFFFFC0
FFFFFFF0
FFFFFFF0
FFC03FFC
FFC03FFC
FFC00FFC
FFC00FFC
FFC00FFC
FFC00FFC
FFC00FFC
FFC00FFC
FFC00FFC
FFC00FFC
FFC00FFC
FFC00FFC
FFC00FFC
FFC00FFC
FFC00FFC
FFC00FFC
FFC00FFC
FFC00FFC
FFFFFFFC
FFFFFFFC
FFFFFFF0
FFFFFFF0
FFFFFFF0
FFFFFFF0
FFFFFFC0
FFFFFFC0
FFFFFC00
FFFFFC00
ENDCHAR
STARTCHAR 0043
ENCODING 67
SWIDTH 754 0
DWIDTH 34 0
BBX 30 64 2 0
BITMAP
003FFC00
003FFC00
03FFFFC0
03FFFFC0
0FFFFFF0
0FFFFFF0
3FFFFFF0
3FFFFFF0
3FFFFFFC
3FFFFFFC
3FF00FFC
3FF00FFC
FFC00FFC
FFC00FFC
FFC00FFC
FFC00FFC
FFC00FFC
FFC00FFC
FFC00FFC
FFC00FFC
FFC00FFC
FFC00FFC
FFC00000
FFC00000
FFC00000
FFC00000
FFC00000
FFC00000
FFC00000
FFC00000
FFC00000
FFC00000
FFC00000
FFC00000
FFC00000
FFC00000
FFC00000
FFC00000
FFC00000
FFC00000
FFC00FFC
FFC00FFC
FFC00FFC
FFC00FFC
FFC00FFC
FFC00FFC
FFC00FFC
FFC00FFC
FFC00FFC
FFC00FFC
FFC00FFC
FFC00FFC
3FF00FFC
3FF00FFC
3FFFFFFC
3FFFFFFC
3FFFFFF0
3FFFFFF0
0FFFFFF0
0FFFFFF0
03FFFFC0
03FFFFC0
003FFC00
003FFC00
ENDCHAR
STARTCHAR 0044
ENCODING 68
SWIDTH 800 0
DWIDTH 36 0
BBX 30 64 4 0
BITMAP
FFFFFC00
FFFFFC00
FFFFFFC0
FFFFFFC0
FFFFFFF0
FFFFFFF0
FFFFFFF0
FFFFFFF0
FFFFFFFC
FFFFFFFC
FFC00FFC
FFC00FFC
FFC00FFC
FFC00FFC
FFC00FFC
FFC00FFC
FFC00FFC
FFC00FFC
FFC00FFC
FFC00FFC
FFC00FFC
FFC00FFC
FFC00FFC
FFC00FFC
FFC00FFC
FFC00FFC
FFC00FFC
FFC00FFC
FFC00FFC
FFC00FFC
FFC00FFC
FFC00FFC
FFC00FFC
FFC00FFC
FFC00FFC
FFC00FFC
FFC00FFC
FFC00FFC
FFC00FFC
FFC00FFC
FFC00FFC
FFC00FFC
FFC00FFC
FFC00FFC
FFC00FFC
FFC00FFC
FFC00FFC
FFC00FFC
FFC00FFC
FFC00FFC
FFC00FFC
FFC00FFC
FFC00FFC
FFC00FFC
FFFFFFFC
FFFFFFFC
FFFFFFF0
FFFFFFF0
FFFFFFF0
FFFFFFF0
FFFFFFC0
FFFFFFC0
FFFFFC00
FFFFFC00
ENDCHAR
STARTCHAR 0045
ENCODING 69
SWIDTH 754 0
DWIDTH 34 0
BBX 26 64 4 0
BITMAP
FFFFFFC0
FFFFFFC0
FFFFFFC0
FFFFFFC0
FFFFFFC0
FFFFFFC0
FFFFFFC0
FFFFFFC0
FFFFFFC0
FFFFFFC0
FFC00000
FFC00000
FFC00000
FFC00000
FFC00000
FFC00000
FFC00000
FFC00000
FFC00000
FFC00000
FFC00000
FFC00000
FFC00000
FFC00000
FFC00000
FFC00000
FFFFFF00
FFFFFF00
FFFFFF00
FFFFFF00
FFFFFF00
FFFFFF00
FFFFFF00
FFFFFF00
FFFFFF00
FFFFFF00
FFC00000
FFC00000
FFC00000
FFC00000
FFC00000
FFC00000
FFC00000
FFC00000
FFC00000
FFC00000
FFC00000
FFC00000
FFC00000
FFC00000
FFC00000
FFC00000
FFC00000
FFC00000
FFFFFFC0
FFFFFFC0
FFFFFFC0
FFFFFFC0
FFFFFFC0
FFFFFFC0
FFFFFFC0
FFFFFFC0
FFFFFFC0
FFFFFFC0
ENDCHAR
STARTCHAR 0046
ENCODING 70
SWIDTH 666 0
DWIDTH 30 0
BBX 26 64 4 0
BITMAP
FFFFFFC0
FFFFFFC0
FFFFFFC0
FFFFFFC0
FFFFFFC0
FFFFFFC0
FFFFFFC0
FFFFFFC0
FFFFFFC0
FFFFFFC0
FFC00000
FFC00000
FFC00000
FFC00000
FFC00000
FFC00000
FFC00000
FFC00000
FFC00000
FFC00000
FFC00000
FFC00000
FFC00000
FFC00000
FFC00000
FFC00000
FFC00000
FFC00000
FFFFFC00
FFFFFC00
FFFFFC00
FFFFFC00
FFFFFC00
FFFFFC00
FFFFFC00
FFFFFC00
FFFFFC00
FFFFFC00
FFC00000
FFC00000
FFC00000
FFC00000
FFC00000
FFC00000
FFC00000
FFC00000
FFC00000
FFC00000
FFC00000
FFC00000
FFC00000
FFC00000
FFC00000
FFC00000
FFC00000
FFC00000
FFC00000
FFC00000
FFC00000
FFC00000
FFC00000
FFC00000
FFC00000
FFC00000
ENDCHAR
STARTCHAR 0047
ENCODING 71
SWIDTH 800 0
DWIDTH 36 0
BBX 30 64 2 0
BITMAP
003FFC00
003FFC00
03FFFFC0
03FFFFC0
0FFFFFF0
0FFFFFF0
3FFFFFF0
3FFFFFF0
3FFFFFFC
3FFFFFFC
3FF00FFC
3FF00FFC
FFC00FFC
FFC00FFC
FFC00FFC
FFC00FFC
FFC00FFC
FFC00FFC
FFC00FFC
FFC00FFC
FFC00FFC
FFC00FFC
FFC00000
FFC00000
FFC00000
FFC00000
FFC00000
FFC00000
FFC0FFFC
FFC0FFFC
FFC0FFFC
FFC0FFFC
FFC0FFFC
FFC0FFFC
FFC0FFFC
FFC0FFFC
FFC0FFFC
FFC0FFFC
FFC00FFC
FFC00FFC
FFC00FFC
FFC00FFC
FFC00FFC
FFC00FFC
FFC00FFC
FFC00FFC
FFC00FFC
FFC00FFC
FFC00FFC
FFC00FFC
FFC00FFC
FFC00FFC
3FF00FFC
3FF00FFC
3FFFFFFC
3FFFFFFC
3FFFFFF0
3FFFFFF0
0FFFFFF0
0FFFFFF0
03FFFFC0
03FFFFC0
003FFC00
003FFC00
ENDCHAR
STARTCHAR 0048
ENCODING 72
SWIDTH 844 0
DWIDTH 38 0
BBX 30 64 4 0
BITMAP
FFC00FFC
FFC00FFC
FFC00FFC
FFC00FFC
FFC00FFC
FFC00FFC
FFC00FFC
FFC00FFC
FFC00FFC
FFC00FFC
FFC00FFC
FFC00FFC
FFC00FFC
FFC00FFC
FFC00FFC
FFC00FFC
FFC00FFC
FFC00FFC
FFC00FFC
FFC00FFC
FFC00FFC
FFC00FFC
FFC00FFC
FFC00FFC
FFC00FFC
FFC00FFC
FFC00FFC
FFC00FFC
FFFFFFFC
FFFFFFFC
FFFFFFFC
FFFFFFFC
FFFFFFFC
FFFFFFFC
FFFFFFFC
FFFFFFFC
FFFFFFFC
FFFFFFFC
FFC00FFC
FFC00FFC
FFC00FFC
FFC00FFC
FFC00FFC
FFC00FFC
FFC00FFC
FFC00FFC
FFC00FFC
FFC00FFC
FFC00FFC
FFC00FFC
FFC00FFC
FFC00FFC
FFC00FFC
FFC00FFC
FFC00FFC
FFC00FFC
FFC00FFC
FFC00FFC
FFC00FFC
FFC00FFC
FFC00FFC
FFC00FFC
FFC00FFC
FFC00FFC
ENDCHAR
STARTCHAR 0049
ENCODING 73
SWIDTH 400 0
DWIDTH 18 0
BBX 10 64 4 0
BITMAP
FFC0
FFC0
FFC0
FFC0
FFC0
FFC0
FFC0
FFC0
FFC0
FFC0
FFC0
FFC0
FFC0
FFC0
FFC0
FFC0
FFC0
FFC0
FFC0
FFC0
FFC0
FFC0
FFC0
FFC0
FFC0
FFC0
FFC0
FFC0
FFC0
FFC0
FFC0
FFC0
FFC0
FFC0
FFC0
FFC0
FFC0
FFC0
FFC0
FFC0
FFC0
FFC0
FFC0
FFC0
FFC0
FFC0
FFC0
FFC0
FFC0
FFC0
FFC0
FFC0
FFC0
FFC0
FFC0
FFC0
FFC0
FFC0
FFC0
FFC0
FFC0
FFC0
FFC0
FFC0
ENDCHAR
STARTCHAR 004A
ENCODING 74
SWIDTH 532 0
DWIDTH 24 0
BBX 20 64 0 0
BITMAP
003FF0
003FF0
003FF0
003FF0
003FF0
003FF0
003FF0
003FF0
003FF0
003FF0
003FF0
003FF0
003FF0
003FF0
003FF0
003FF0
003FF0
003FF0
003FF0
003FF0
003FF0
003FF0
003FF0
003FF0
003FF0
003FF0
003FF0
003FF0
003FF0
003FF0
003FF0
003FF0
003FF0
003FF0
003FF0
003FF0
003FF0
003FF0
003FF0
003FF0
003FF0
003FF0
003FF0
003FF0
003FF0
003FF0
003FF0
003FF0
003FF0
003FF0
003FF0
003FF0
003FF0
003FF0
FFFFC0
FFFFC0
FFFFC0
FFFFC0
FFFFC0
FFFFC0
FFFF00
FFFF00
FFF000
FFF000
ENDCHAR
STARTCHAR 004B
ENCODING 75
SWIDTH 844 0
DWIDTH 38 0
BBX 32 64 4 0
BITMAP
FFC003FF
FFC003FF
FFC003FC
FFC003FC
FFC00FFC
FFC00FFC
FFC00FFC
FFC00FFC
FFC03FF0
FFC03FF0
FFC03FF0
FFC03FF0
FFC0FFC0
FFC0FFC0
FFC0FFC0
FFC0FFC0
FFC3FF00
FFC3FF00
FFC3FF00
FFC3FF00
FFCFFC00
FFCFFC00
FFCFFC00
FFCFFC00
FFFFF000
FFFFF000
FFFFF000
FFFFF000
FFFFC000
FFFFC000
FFFFF000
FFFFF000
FFFFF000
FFFFF000
FFFFF000
FFFFF000
FFFFFC00
FFFFFC00
FFFFFC00
FFFFFC00
FFF3FF00
FFF3FF00
FFC3FF00
FFC3FF00
FFC3FF00
FFC3FF00
FFC0FFC0
FFC0FFC0
FFC0FFC0
FFC0FFC0
FFC03FF0
FFC03FF0
FFC03FF0
FFC03FF0
FFC03FF0
FFC03FF0
FFC00FFC
FFC00FFC
FFC00FFC
FFC00FFC
FFC003FF
FFC003FF
FFC003FF
FFC003FF
ENDCHAR
STARTCHAR 004C
ENCODING 76
SWIDTH 666 0
DWIDTH 30 0
BBX 26 64 4 0
BITMAP
FFC00000
FFC00000
FFC00000
FFC00000
FFC00000
FFC00000
FFC00000
FFC00000
FFC00000
FFC00000
FFC00000
FFC00000
FFC00000
FFC00000
FFC00000
FFC00000
FFC00000
FFC00000
FFC00000
FFC00000
FFC00000
FFC00000
FFC00000
FFC00000
FFC00000
FFC00000
FFC00000
FFC00000
FFC00000
FFC00000
FFC00000
FFC00000
FFC00000
FFC00000
FFC00000
FFC00000
FFC00000
FFC00000
FFC00000
FFC00000
FFC00000
FFC00000
FFC00000
FFC00000
FFC00000
FFC00000
FFC00000
FFC00000
FFC00000
FFC00000
FFC00000
FFC00000
FFC00000
FFC00000
FFFFFFC0
FFFFFFC0
FFFFFFC0
FFFFFFC0
FFFFFFC0
FFFFFFC0
FFFFFFC0
FFFFFFC0
FFFFFFC0
FFFFFFC0
ENDCHAR
STARTCHAR 004D
ENCODING 77
SWIDTH 1066 0
DWIDTH 48 0
BBX 42 64 4 0
BITMAP
FFFC000FFFC0
FFFC000FFFC0
FFFC003FFFC0
FFFC003FFFC0
FFFC003FFFC0
FFFC003FFFC0
FFFC003FFFC0
FFFC003FFFC0
FFFC003FFFC0
FFFC003FFFC0
FFFF003FFFC0
FFFF003FFFC0
FFFF003FFFC0
FFFF003FFFC0
FFFF003FFFC0
FFFF003FFFC0
FFFF00FFFFC0
FFFF00FFFFC0
FFFF00FFFFC0
FFFF00FFFFC0
FFFF00FFFFC0
FFFF00FFFFC0
FFFF00FFFFC0
FFFF00FFFFC0
FF3FC0FCFFC0
FF3FC0FCFFC0
FF3FC0FCFFC0
FF3FC0FCFFC0
FF3FC3FCFFC0
FF3FC3FCFFC0
FF3FC3FCFFC0
FF3FC3FCFFC0
FF3FC3FCFFC0
FF3FC3FCFFC0
FF3FC3FCFFC0
FF3FC3FCFFC0
FF0FF3F0FFC0
FF0FF3F0FFC0
FF0FF3F0FFC0
FF0FF3F0FFC0
FF0FF3F0FFC0
FF0FF3F0FFC0
FF0FFFF0FFC0
FF0FFFF0FFC0
FF0FFFF0FFC0
FF0FFFF0FFC0
FF0FFFF0FFC0
FF0FFFF0FFC0
FF03FFF0FFC0
FF03FFF0FFC0
FF03FFC0FFC0
FF03FFC0FFC0
FF03FFC0FFC0
FF03FFC0FFC0
FF03FFC0FFC0
FF03FFC0FFC0
FF03FFC0FFC0
FF03FFC0FFC0
FF03FFC0FFC0
FF03FFC0FFC0
FF00FFC0FFC0
FF00FFC0FFC0
FF00FFC0FFC0
FF00FFC0FFC0
ENDCHAR
STARTCHAR 004E
ENCODING 78
SWIDTH 844 0
DWIDTH 38 0
BBX 30 64 4 0
BITMAP
FFF003FC
FFF003FC
FFF003FC
FFF003FC
FFFC03FC
FFFC03FC
FFFC03FC
FFFC03FC
FFFC03FC
FFFC03FC
FFFC03FC
FFFC03FC
FFFF03FC
FFFF03FC
FFFF03FC
FFFF03FC
FFFF03FC
FFFF03FC
FFFF03FC
FFFF03FC
FF3FC3FC
FF3FC3FC
FF3FC3FC
FF3FC3FC
FF3FC3FC
FF3FC3FC
FF3FF3FC
FF3FF3FC
FF0FF3FC
FF0FF3FC
FF0FF3FC
FF0FF3FC
FF0FF3FC
FF0FF3FC
FF0FFFFC
FF0FFFFC
FF03FFFC
FF03FFFC
FF03FFFC
FF03FFFC
FF03FFFC
FF03FFFC
FF00FFFC
FF00FFFC
FF00FFFC
FF00FFFC
FF00FFFC
FF00FFFC
FF00FFFC
FF00FFFC
FF003FFC
FF003FFC
FF003FFC
FF003FFC
FF003FFC
FF003FFC
FF003FFC
FF003FFC
FF000FFC
FF000FFC
FF000FFC
FF000FFC
FF000FFC
FF000FFC
ENDCHAR
STARTCHAR 004F
ENCODING 79
SWIDTH 800 0
DWIDTH 36 0
BBX 30 64 2 0
BITMAP
003FFC00
003FFC00
03FFFFC0
03FFFFC0
0FFFFFF0
0FFFFFF0
3FFFFFF0
3FFFFFF0
3FFFFFFC
3FFFFFFC
3FF00FFC
3FF00FFC
FFC00FFC
FFC00FFC
FFC00FFC
FFC00FFC
FFC00FFC
FFC00FFC
FFC00FFC
FFC00FFC
FFC00FFC
FFC00FFC
FFC00FFC
FFC00FFC
FFC00FFC
FFC00FFC
FFC00FFC
FFC00FFC
FFC00FFC
FFC00FFC
FFC00FFC
FFC00FFC
FFC00FFC
FFC00FFC
FFC00FFC
FFC00FFC
FFC00FFC
FFC00FFC
FFC00FFC
FFC00FFC
FFC00FFC
FFC00FFC
FFC00FFC
FFC00FFC
FFC00FFC
FFC00FFC
FFC00FFC
FFC00FFC
FFC00FFC
FFC00FFC
FFC00FFC
FFC00FFC
3FF00FFC
3FF00FFC
3FFFFFFC
3FFFFFFC
3FFFFFF0
3FFFFFF0
0FFFFFF0
0FFFFFF0
03FFFFC0
03FFFFC0
003FFC00
003FFC00
ENDCHAR
STARTCHAR 0050
ENCODING 80
SWIDTH 754 0
DWIDTH 34 0
BBX 28 64 4 0
BITMAP
FFFFF000
FFFFF000
FFFFFF00
FFFFFF00
FFFFFFC0
FFFFFFC0
FFFFFFF0
FFFFFFF0
FFFFFFF0
FFFFFFF0
FFC03FF0
FFC03FF0
FFC03FF0
FFC03FF0
FFC00FF0
FFC00FF0
FFC00FF0
FFC00FF0
FFC00FF0
FFC00FF0
FFC00FF0
FFC00FF0
FFC00FF0
FFC00FF0
FFC03FF0
FFC03FF0
FFC03FF0
FFC03FF0
FFC03FF0
FFC03FF0
FFFFFFF0
FFFFFFF0
FFFFFFF0
FFFFFFF0
FFFFFFC0
FFFFFFC0
FFFFFF00
FFFFFF00
FFFFF000
FFFFF000
FFC00000
FFC00000
FFC00000
FFC00000
FFC00000
FFC00000
FFC00000
FFC00000
FFC00000
FFC00000
FFC00000
FFC00000
FFC00000
FFC00000
FFC00000
FFC00000
FFC00000
FFC00000
FFC00000
FFC00000
FFC00000
FFC00000
FFC00000
FFC00000
ENDCHAR
STARTCHAR 0051
ENCODING 81
SWIDTH 800 0
DWIDTH 36 0
BBX 32 68 2 -4
BITMAP
003FFC00
003FFC00
03FFFFC0
03FFFFC0
0FFFFFF0
0FFFFFF0
3FFFFFFC
3FFFFFFC
3FFFFFFC
3FFFFFFC
3FF00FFC
3FF00FFC
FFC00FFC
FFC00FFC
FFC00FFC
FFC00FFC
FFC00FFC
FFC00FFC
FFC00FFC
FFC00FFC
FFC00FFC
FFC00FFC
FFC00FFC
FFC00FFC
FFC00FFC
FFC00FFC
FFC00FFC
FFC00FFC
FFC00FFC
FFC00FFC
FFC00FFC
FFC00FFC
FFC00FFC
FFC00FFC
FFC00FFC
FFC00FFC
FFC00FFC
FFC00FFC
FFC00FFC
FFC00FFC
FFC00FFC
FFC00FFC
FFC00FFC
FFC00FFC
FFC00FFC
FFC00FFC
FFC00FFC
FFC00FFC
FFC00FFC
FFC00FFC
FFC00FFC
FFC00FFC
3FF00FFC
3FF00FFC
3FFFFFFC
3FFFFFFC
3FFFFFFC
3FFFFFFC
0FFFFFFF
0FFFFFFF
03FFFFFF
03FFFFFF
003FFFFF
003FFFFF
000000FF
000000FF
00000003
00000003
ENDCHAR
STARTCHAR 0052
ENCODING 82
SWIDTH 800 0
DWIDTH 36 0
BBX 30 64 4 0
BITMAP
FFFFFC00
FFFFFC00
FFFFFF00
FFFFFF00
FFFFFFC0
FFFFFFC0
FFFFFFF0
FFFFFFF0
FFFFFFF0
FFFFFFF0
FFC03FF0
FFC03FF0
FFC00FFC
FFC00FFC
FFC00FFC
FFC00FFC
FFC00FFC
FFC00FFC
FFC00FFC
FFC00FFC
FFC00FFC
FFC00FFC
FFC00FFC
FFC00FFC
FFC03FF0
FFC03FF0
FFC03FF0
FFC03FF0
FFFFFFF0
FFFFFFF0
FFFFFFC0
FFFFFFC0
FFFFFF00
FFFFFF00
FFFFFFC0
FFFFFFC0
FFFFFFF0
FFFFFFF0
FFC0FFF0
FFC0FFF0
FFC03FF0
FFC03FF0
FFC00FFC
FFC00FFC
FFC00FFC
FFC00FFC
FFC00FFC
FFC00FFC
FFC00FFC
FFC00FFC
FFC00FFC
FFC00FFC
FFC00FFC
FFC00FFC
FFC00FFC
FFC00FFC
FFC00FFC
FFC00FFC
FFC00FFC
FFC00FFC
FFC00FFC
FFC00FFC
FFC00FFC
FFC00FFC
ENDCHAR
STARTCHAR 0053
ENCODING 83
SWIDTH 754 0
DWIDTH 34 0
BBX 30 64 2 0
BITMAP
00FFFC00
00FFFC00
03FFFF00
03FFFF00
0FFFFFC0
0FFFFFC0
3FFFFFF0
3FFFFFF0
3FFFFFF0
3FFFFFF0
FFF00FFC
FFF00FFC
FFC00FFC
FFC00FFC
FFC00FFC
FFC00FFC
FFC00FFC
FFC00FFC
FFC00000
FFC00000
FFF00000
FFF00000
3FFC0000
3FFC0000
3FFC0000
3FFC0000
0FFF0000
0FFF0000
0FFFC000
0FFFC000
03FFFC00
03FFFC00
00FFFF00
00FFFF00
003FFF00
003FFF00
0003FFC0
0003FFC0
0000FFF0
0000FFF0
0000FFF0
0000FFF0
00003FF0
00003FF0
FFC00FFC
FFC00FFC
FFC00FFC
FFC00FFC
FFC00FFC
FFC00FFC
FFC00FFC
FFC00FFC
FFC03FFC
FFC03FFC
FFFFFFF0
FFFFFFF0
3FFFFFF0
3FFFFFF0
0FFFFFC0
0FFFFFC0
0FFFFF00
0FFFFF00
00FFFC00
00FFFC00
ENDCHAR
STARTCHAR 0054
ENCODING 84
SWIDTH 710 0
DWIDTH 32 0
BBX 32 64 0 0
BITMAP
FFFFFFFF
FFFFFFFF
FFFFFFFF
FFFFFFFF
FFFFFFFF
FFFFFFFF
FFFFFFFF
FFFFFFFF
FFFFFFFF
FFFFFFFF
000FF000
000FF000
000FF000
000FF000
000FF000
000FF000
000FF000
000FF000
000FF000
000FF000
000FF000
000FF000
000FF000
000FF000
000FF000
000FF000
000FF000
000FF000
000FF000
000FF000
000FF000
000FF000
000FF000
000FF000
000FF000
000FF000
000FF000
000FF000
000FF000
000FF000
000FF000
000FF000
000FF000
000FF000
000FF000
000FF000
000FF000
000FF000
000FF000
000FF000
000FF000
000FF000
000FF000
000FF000
000FF000
000FF000
000FF000
000FF000
000FF000
000FF000
000FF000
000FF000
000FF000
000FF000
ENDCHAR
STARTCHAR 0055
ENCODING 85
SWIDTH 800 0
DWIDTH 36 0
BBX 28 64 4 0
BITMAP
FFC00FF0
FFC00FF0
FFC00FF0
FFC00FF0
FFC00FF0
FFC00FF0
FFC00FF0
FFC00FF0
FFC00FF0
FFC00FF0
FFC00FF0
FFC00FF0
FFC00FF0
FFC00FF0
FFC00FF0
FFC00FF0
FFC00FF0
FFC00FF0
FFC00FF0
FFC00FF0
FFC00FF0
FFC00FF0
FFC00FF0
FFC00FF0
FFC00FF0
FFC00FF0
FFC00FF0
FFC00FF0
FFC00FF0
FFC00FF0
FFC00FF0
FFC00FF0
FFC00FF0
FFC00FF0
FFC00FF0
FFC00FF0
FFC00FF0
FFC00FF0
FFC00FF0
FFC00FF0
FFC00FF0
FFC00FF0
FFC00FF0
FFC00FF0
FFC00FF0
FFC00FF0
FFC00FF0
FFC00FF0
FFC00FF0
FFC00FF0
FFC00FF0
FFC00FF0
FFC03FF0
FFC03FF0
FFFFFFF0
FFFFFFF0
FFFFFFC0
FFFFFFC0
3FFFFFC0
3FFFFFC0
0FFFFF00
0FFFFF00
00FFF000
00FFF000
ENDCHAR
STARTCHAR 0056
ENCODING 86
SWIDTH 800 0
DWIDTH 36 0
BBX 36 64 0 0
BITMAP
FFF0003FF0
FFF0003FF0
3FF0003FC0
3FF0003FC0
3FF0003FC0
3FF0003FC0
3FF0003FC0
3FF0003FC0
3FF000FFC0
3FF000FFC0
3FF000FFC0
3FF000FFC0
3FF000FFC0
3FF000FFC0
0FFC00FF00
0FFC00FF00
0FFC00FF00
0FFC00FF00
0FFC00FF00
0FFC00FF00
0FFC00FF00
0FFC00FF00
0FFC03FF00
0FFC03FF00
0FFC03FF00
0FFC03FF00
03FC03FF00
03FC03FF00
03FF03FC00
03FF03FC00
03FF03FC00
03FF03FC00
03FF03FC00
03FF03FC00
03FF0FFC00
03FF0FFC00
03FF0FFC00
03FF0FFC00
03FF0FFC00
03FF0FFC00
00FF0FF000
00FF0FF000
00FFCFF000
00FFCFF000
00FFCFF000
00FFCFF000
00FFCFF000
00FFCFF000
00FFFFF000
00FFFFF000
00FFFFF000
00FFFFF000
003FFFF000
003FFFF000
003FFFC000
003FFFC000
003FFFC000
003FFFC000
003FFFC000
003FFFC000
003FFFC000
003FFFC000
003FFFC000
003FFFC000
ENDCHAR
STARTCHAR 0057
ENCODING 87
SWIDTH 1110 0
DWIDTH 50 0
BBX 48 64 2 0
BITMAP
FFC03FF003FF
FFC03FF003FF
FFC03FF003FC
FFC03FF003FC
FFC03FFC03FC
FFC03FFC03FC
FFC03FFC03FC
FFC03FFC03FC
FFC03FFC03FC
FFC03FFC03FC
FFC03FFC03FC
FFC03FFC03FC
FFC03FFC03FC
FFC03FFC03FC
FFC03FFC03FC
FFC03FFC03FC
3FC03FFC0FFC
3FC03FFC0FFC
3FC03FFC0FFC
3FC03FFC0FFC
3FF03FFC0FFC
3FF03FFC0FFC
3FF0FFFC0FF0
3FF0FFFC0FF0
3FF0FFFF0FF0
3FF0FFFF0FF0
3FF0FFFF0FF0
3FF0FFFF0FF0
3FF0FFFF0FF0
3FF0FFFF0FF0
3FF0FFFF0FF0
3FF0FFFF0FF0
3FF0FFFF0FF0
3FF0FFFF0FF0
0FF0FFFF0FF0
0FF0FFFF0FF0
0FF0FCFF3FF0
0FF0FCFF3FF0
0FFCFCFF3FF0
0FFCFCFF3FF0
0FFCFCFF3FC0
0FFCFCFF3FC0
0FFFFCFF3FC0
0FFFFCFF3FC0
0FFFFC3F3FC0
0FFFFC3F3FC0
0FFFFC3FFFC0
0FFFFC3FFFC0
0FFFFC3FFFC0
0FFFFC3FFFC0
0FFFFC3FFFC0
0FFFFC3FFFC0
03FFFC3FFFC0
03FFFC3FFFC0
03FFF03FFFC0
03FFF03FFFC0
03FFF03FFFC0
03FFF03FFFC0
03FFF03FFF00
03FFF03FFF00
03FFF03FFF00
03FFF03FFF00
03FFF00FFF00
03FFF00FFF00
ENDCHAR
STARTCHAR 0058
ENCODING 88
SWIDTH 844 0
DWIDTH 38 0
BBX 36 64 2 0
BITMAP
FFC0003FC0
FFC0003FC0
3FF000FFC0
3FF000FFC0
3FF000FF00
3FF000FF00
3FF000FF00
3FF000FF00
0FFC03FF00
0FFC03FF00
0FFC03FC00
0FFC03FC00
0FFC03FC00
0FFC03FC00
0FFF0FFC00
0FFF0FFC00
03FF0FF000
03FF0FF000
03FF0FF000
03FF0FF000
03FF3FF000
03FF3FF000
00FFFFC000
00FFFFC000
00FFFFC000
00FFFFC000
00FFFFC000
00FFFFC000
003FFF0000
003FFF0000
003FFF0000
003FFF0000
003FFF0000
003FFF0000
003FFFC000
003FFFC000
00FFFFC000
00FFFFC000
00FFFFC000
00FFFFC000
00FF3FF000
00FF3FF000
03FF3FF000
03FF3FF000
03FC3FF000
03FC3FF000
03FC0FFC00
03FC0FFC00
0FFC0FFC00
0FFC0FFC00
0FF00FFC00
0FF00FFC00
0FF003FF00
0FF003FF00
3FF003FF00
3FF003FF00
3FC003FFC0
3FC003FFC0
3FC000FFC0
3FC000FFC0
FFC000FFC0
FFC000FFC0
FF0000FFF0
FF0000FFF0
ENDCHAR
STARTCHAR 0059
ENCODING 89
SWIDTH 800 0
DWIDTH 36 0
BBX 36 64 0 0
BITMAP
FFC0003FF0
FFC0003FF0
3FF0003FC0
3FF0003FC0
3FF000FFC0
3FF000FFC0
3FF000FFC0
3FF000FFC0
3FFC00FF00
3FFC00FF00
0FFC00FF00
0FFC00FF00
0FFC03FF00
0FFC03FF00
0FFC03FC00
0FFC03FC00
03FF03FC00
03FF03FC00
03FF0FFC00
03FF0FFC00
03FF0FFC00
03FF0FFC00
00FF0FF000
00FF0FF000
00FFCFF000
00FFCFF000
00FFFFF000
00FFFFF000
00FFFFC000
00FFFFC000
003FFFC000
003FFFC000
003FFFC000
003FFFC000
003FFFC000
003FFFC000
000FFF0000
000FFF0000
000FFF0000
000FFF0000
000FFF0000
000FFF0000
000FFC0000
000FFC0000
000FFC0000
000FFC0000
000FFC0000
000FFC0000
000FFC0000
000FFC0000
000FFC0000
000FFC0000
000FFC0000
000FFC0000
000FFC0000
000FFC0000
000FFC0000
000FFC0000
000FFC0000
000FFC0000
000FFC0000
000FFC0000
000FFC0000
000FFC0000
ENDCHAR
STARTCHAR 005A
ENCODING 90
SWIDTH 754 0
DWIDTH 34 0
BBX 30 64 2 0
BITMAP
FFFFFFFC
FFFFFFFC
FFFFFFFC
FFFFFFFC
FFFFFFFC
FFFFFFFC
FFFFFFFC
FFFFFFFC
FFFFFFFC
FFFFFFFC
00003FF0
00003FF0
00003FF0
00003FF0
0000FFC0
0000FFC0
0000FFC0
0000FFC0
0003FF00
0003FF00
0003FF00
0003FF00
0003FF00
0003FF00
000FFC00
000FFC00
000FFC00
000FFC00
003FF000
003FF000
003FF000
003FF000
003FF000
003FF000
00FFC000
00FFC000
00FFC000
00FFC000
03FF0000
03FF0000
03FF0000
03FF0000
0FFF0000
0FFF0000
0FFC0000
0FFC0000
0FFC0000
0FFC0000
3FF00000
3FF00000
3FF00000
3FF00000
FFF00000
FFF00000
FFFFFFFC
FFFFFFFC
FFFFFFFC
FFFFFFFC
FFFFFFFC
FFFFFFFC
FFFFFFFC
FFFFFFFC
FFFFFFFC
FFFFFFFC
ENDCHAR
STARTCHAR 005B
ENCODING 91
SWIDTH 488 0
DWIDTH 22 0
BBX 16 64 4 0
BITMAP
FFFF
FFFF
FFFF
FFFF
FFFF
FFFF
FFFF
FFFF
FFFF
FFFF
FFC0
FFC0
FFC0
FFC0
FFC0
FFC0
FFC0
FFC0
FFC0
FFC0
FFC0
FFC0
FFC0
FFC0
FFC0
FFC0
FFC0
FFC0
FFC0
FFC0
FFC0
FFC0
FFC0
FFC0
FFC0
FFC0
FFC0
FFC0
FFC0
FFC0
FFC0
FFC0
FFC0
FFC0
FFC0
FFC0
FFC0
FFC0
FFC0
FFC0
FFC0
FFC0
FFC0
FFC0
FFFF
FFFF
FFFF
FFFF
FFFF
FFFF
FFFF
FFFF
FFFF
FFFF
ENDCHAR
STARTCHAR 005C
ENCODING 92
SWIDTH 754 0
DWIDTH 34 0
BBX 34 64 0 0
BITMAP
FFC0000000
FFC0000000
3FC0000000
3FC0000000
3FC0000000
3FC0000000
0FF0000000
0FF0000000
0FF0000000
0FF0000000
0FFC000000
0FFC000000
03FC000000
03FC000000
03FC000000
03FC000000
00FF000000
00FF000000
00FF000000
00FF000000
00FFC00000
00FFC00000
003FC00000
003FC00000
003FC00000
003FC00000
003FF00000
003FF00000
000FF00000
000FF00000
000FFC0000
000FFC0000
0003FC0000
0003FC0000
0003FC0000
0003FC0000
0003FF0000
0003FF0000
0000FF0000
0000FF0000
0000FF0000
0000FF0000
00003FC000
00003FC000
00003FC000
00003FC000
00003FF000
00003FF000
00000FF000
00000FF000
00000FF000
00000FF000
000003FC00
000003FC00
000003FC00
000003FC00
000003FF00
000003FF00
000000FF00
000000FF00
000000FF00
000000FF00
000000FFC0
000000FFC0
ENDCHAR
STARTCHAR 005D
ENCODING 93
SWIDTH 488 0
DWIDTH 22 0
BBX 16 64 2 0
BITMAP
FFFF
FFFF
FFFF
FFFF
FFFF
FFFF
FFFF
FFFF
FFFF
FFFF
03FF
03FF
03FF
03FF
03FF
03FF
03FF
03FF
03FF
03FF
03FF
03FF
03FF
03FF
03FF
03FF
03FF
03FF
03FF
03FF
03FF
03FF
03FF
03FF
03FF
03FF
03FF
03FF
03FF
03FF
03FF
03FF
03FF
03FF
03FF
03FF
03FF
03FF
03FF
03FF
03FF
03FF
03FF
03FF
FFFF
FFFF
FFFF
FFFF
FFFF
FFFF
FFFF
FFFF
FFFF
FFFF
ENDCHAR
STARTCHAR 005E
ENCODING 94
SWIDTH 800 0
DWIDTH 36 0
BBX 32 28 2 36
BITMAP
000FF000
000FF000
003FF000
003FF000
003FFC00
003FFC00
003FFC00
003FFC00
00FFFF00
00FFFF00
00FFFF00
00FFFF00
03FC3FC0
03FC3FC0
03FC3FC0
03FC3FC0
0FF00FC0
0FF00FC0
0FF00FF0
0FF00FF0
3FC00FF0
3FC00FF0
3FC003FC
3FC003FC
3FC003FC
3FC003FC
FF0000FF
FF0000FF
ENDCHAR
STARTCHAR 005F
ENCODING 95
SWIDTH 1022 0
DWIDTH 46 0
BBX 46 8 0 -8
BITMAP
FFFFFFFFFFFC
FFFFFFFFFFFC
FFFFFFFFFFFC
FFFFFFFFFFFC
FFFFFFFFFFFC
FFFFFFFFFFFC
FFFFFFFFFFFC
FFFFFFFFFFFC
ENDCHAR
STARTCHAR 0060
ENCODING 96
SWIDTH 488 0
DWIDTH 22 0
BBX 16 10 4 66
BITMAP
FFC0
FFC0
3FF0
3FF0
0FF0
0FF0
03FC
03FC
00FF
00FF
ENDCHAR
STARTCHAR 0061
ENCODING 97
SWIDTH 800 0
DWIDTH 36 0
BBX 36 64 0 0
BITMAP
003FFFC000
003FFFC000
003FFFC000
003FFFC000
003FFFC000
003FFFC000
003FFFC000
003FFFC000
003FFFC000
003FFFC000
003FFFF000
003FFFF000
00FFFFF000
00FFFFF000
00FFFFF000
00FFFFF000
00FFFFF000
00FFFFF000
00FF3FF000
00FF3FF000
00FF0FF000
00FF0FF000
00FF0FFC00
00FF0FFC00
00FF0FFC00
00FF0FFC00
03FF0FFC00
03FF0FFC00
03FF0FFC00
03FF0FFC00
03FC0FFC00
03FC0FFC00
03FC0FFC00
03FC0FFC00
03FC03FF00
03FC03FF00
03FC03FF00
03FC03FF00
0FFC03FF00
0FFC03FF00
0FFC03FF00
0FFC03FF00
0FFC03FF00
0FFC03FF00
0FFFFFFF00
0FFFFFFF00
0FFFFFFF00
0FFFFFFF00
0FFFFFFFC0
0FFFFFFFC0
0FFFFFFFC0
0FFFFFFFC0
3FFFFFFFC0
3FFFFFFFC0
3FF000FFC0
3FF000FFC0
3FF000FFC0
3FF000FFC0
3FC000FFC0
3FC000FFC0
3FC0003FF0
3FC0003FF0
FFC0003FF0
FFC0003FF0
ENDCHAR
STARTCHAR 0062
ENCODING 98
SWIDTH 800 0
DWIDTH 36 0
BBX 30 64 4 0
BITMAP
FFFFFC00
FFFFFC00
FFFFFF00
FFFFFF00
FFFFFFC0
FFFFFFC0
FFFFFFF0
FFFFFFF0
FFFFFFF0
FFFFFFF0
FFC03FF0
FFC03FF0
FFC00FFC
FFC00FFC
FFC00FFC
FFC00FFC
FFC00FFC
FFC00FFC
FFC00FFC
FFC00FFC
FFC00FFC
FFC00FFC
FFC03FF0
FFC03FF0
FFC03FF0
FFC03FF0
FFFFFFF0
FFFFFFF0
FFFFFFC0
FFFFFFC0
FFFFFF00
FFFFFF00
FFFFFFC0
FFFFFFC0
FFFFFFF0
FFFFFFF0
FFC03FFC
FFC03FFC
FFC00FFC
FFC00FFC
FFC00FFC
FFC00FFC
FFC00FFC
FFC00FFC
FFC00FFC
FFC00FFC
FFC00FFC
FFC00FFC
FFC00FFC
FFC00FFC
FFC00FFC
FFC00FFC
FFC00FFC
FFC00FFC
FFFFFFFC
FFFFFFFC
FFFFFFF0
FFFFFFF0
FFFFFFF0
FFFFFFF0
FFFFFFC0
FFFFFFC0
FFFFFC00
FFFFFC00
ENDCHAR
STARTCHAR 0063
ENCODING 99
SWIDTH 754 0
DWIDTH 34 0
BBX 30 64 2 0
BITMAP
003FFC00
003FFC00
03FFFFC0
03FFFFC0
0FFFFFF0
0FFFFFF0
3FFFFFF0
3FFFFFF0
3FFFFFFC
3FFFFFFC
3FF00FFC
3FF00FFC
FFC00FFC
FFC00FFC
FFC00FFC
FFC00FFC
FFC00FFC
FFC00FFC
FFC00FFC
FFC00FFC
FFC00FFC
FFC00FFC
FFC00000
FFC00000
FFC00000
FFC00000
FFC00000
FFC00000
FFC00000
FFC00000
FFC00000
FFC00000
FFC00000
FFC00000
FFC00000
FFC00000
FFC00000
FFC00000
FFC00000
FFC00000
FFC00FFC
FFC00FFC
FFC00FFC
FFC00FFC
FFC00FFC
FFC00FFC
FFC00FFC
FFC00FFC
FFC00FFC
FFC00FFC
FFC00FFC
FFC00FFC
3FF00FFC
3FF00FFC
3FFFFFFC
3FFFFFFC
3FFFFFF0
3FFFFFF0
0FFFFFF0
0FFFFFF0
03FFFFC0
03FFFFC0
003FFC00
003FFC00
ENDCHAR
STARTCHAR 0064
ENCODING 100
SWIDTH 800 0
DWIDTH 36 0
BBX 30 64 4 0
BITMAP
FFFFFC00
FFFFFC00
FFFFFFC0
FFFFFFC0
FFFFFFF0
FFFFFFF0
FFFFFFF0
FFFFFFF0
FFFFFFFC
FFFFFFFC
FFC00FFC
FFC00FFC
FFC00FFC
FFC00FFC
FFC00FFC
FFC00FFC
FFC00FFC
FFC00FFC
FFC00FFC
FFC00FFC
FFC00FFC
FFC00FFC
FFC00FFC
FFC00FFC
FFC00FFC
FFC00FFC
FFC00FFC
FFC00FFC
FFC00FFC
FFC00FFC
FFC00FFC
FFC00FFC
FFC00FFC
FFC00FFC
FFC00FFC
FFC00FFC
FFC00FFC
FFC00FFC
FFC00FFC
FFC00FFC
FFC00FFC
FFC00FFC
FFC00FFC
FFC00FFC
FFC00FFC
FFC00FFC
FFC00FFC
FFC00FFC
FFC00FFC
FFC00FFC
FFC00FFC
FFC00FFC
FFC00FFC
FFC00FFC
FFFFFFFC
FFFFFFFC
FFFFFFF0
FFFFFFF0
FFFFFFF0
FFFFFFF0
FFFFFFC0
FFFFFFC0
FFFFFC00
FFFFFC00
ENDCHAR
STARTCHAR 0065
ENCODING 101
SWIDTH 754 0
DWIDTH 34 0
BBX 26 64 4 0
BITMAP
FFFFFFC0
FFFFFFC0
FFFFFFC0
FFFFFFC0
FFFFFFC0
FFFFFFC0
FFFFFFC0
FFFFFFC0
FFFFFFC0
FFFFFFC0
FFC00000
FFC00000
FFC00000
FFC00000
FFC00000
FFC00000
FFC00000
FFC00000
FFC00000
FFC00000
FFC00000
FFC00000
FFC00000
FFC00000
FFC00000
FFC00000
FFFFFF00
FFFFFF00
FFFFFF00
FFFFFF00
FFFFFF00
FFFFFF00
FFFFFF00
FFFFFF00
FFFFFF00
FFFFFF00
FFC00000
FFC00000
FFC00000
FFC00000
FFC00000
FFC00000
FFC00000
FFC00000
FFC00000
FFC00000
FFC00000
FFC00000
FFC00000
FFC00000
FFC00000
FFC00000
FFC00000
FFC00000
FFFFFFC0
FFFFFFC0
FFFFFFC0
FFFFFFC0
FFFFFFC0
FFFFFFC0
FFFFFFC0
FFFFFFC0
FFFFFFC0
FFFFFFC0
ENDCHAR
STARTCHAR 0066
ENCODING 102
SWIDTH 666 0
DWIDTH 30 0
BBX 26 64 4 0
BITMAP
FFFFFFC0
FFFFFFC0
FFFFFFC0
FFFFFFC0
FFFFFFC0
FFFFFFC0
FFFFFFC0
FFFFFFC0
FFFFFFC0
FFFFFFC0
FFC00000
FFC00000
FFC00000
FFC00000
FFC00000
FFC00000
FFC00000
FFC00000
FFC00000
FFC00000
FFC00000
FFC00000
FFC00000
FFC00000
FFC00000
FFC00000
FFC00000
FFC00000
FFFFFC00
FFFFFC00
FFFFFC00
FFFFFC00
FFFFFC00
FFFFFC00
FFFFFC00
FFFFFC00
FFFFFC00
FFFFFC00
FFC00000
FFC00000
FFC00000
FFC00000
FFC00000
FFC00000
FFC00000
FFC00000
FFC00000
FFC00000
FFC00000
FFC00000
FFC00000
FFC00000
FFC00000
FFC00000
FFC00000
FFC00000
FFC00000
FFC00000
FFC00000
FFC00000
FFC00000
FFC00000
FFC00000
FFC00000
ENDCHAR
STARTCHAR 0067
ENCODING 103
SWIDTH 800 0
DWIDTH 36 0
BBX 30 64 2 0
BITMAP
003FFC00
003FFC00
03FFFFC0
03FFFFC0
0FFFFFF0
0FFFFFF0
3FFFFFF0
3FFFFFF0
3FFFFFFC
3FFFFFFC
3FF00FFC
3FF00FFC
FFC00FFC
FFC00FFC
FFC00FFC
FFC00FFC
FFC00FFC
FFC00FFC
FFC00FFC
FFC00FFC
FFC00FFC
FFC00FFC
FFC00000
FFC00000
FFC00000
FFC00000
FFC00000
FFC00000
FFC0FFFC
FFC0FFFC
FFC0FFFC
FFC0FFFC
FFC0FFFC
FFC0FFFC
FFC0FFFC
FFC0FFFC
FFC0FFFC
FFC0FFFC
FFC00FFC
FFC00FFC
FFC00FFC
FFC00FFC
FFC00FFC
FFC00FFC
FFC00FFC
FFC00FFC
FFC00FFC
FFC00FFC
FFC00FFC
FFC00FFC
FFC00FFC
FFC00FFC
3FF00FFC
3FF00FFC
3FFFFFFC
3FFFFFFC
3FFFFFF0
3FFFFFF0
0FFFFFF0
0FFFFFF0
03FFFFC0
03FFFFC0
003FFC00
003FFC00
ENDCHAR
STARTCHAR 0068
ENCODING 104
SWIDTH 844 0
DWIDTH 38 0
BBX 30 64 4 0
BITMAP
FFC00FFC
FFC00FFC
FFC00FFC
FFC00FFC
FFC00FFC
FFC00FFC
FFC00FFC
FFC00FFC
FFC00FFC
FFC00FFC
FFC00FFC
FFC00FFC
FFC00FFC
FFC00FFC
FFC00FFC
FFC00FFC
FFC00FFC
FFC00FFC
FFC00FFC
FFC00FFC
FFC00FFC
FFC00FFC
FFC00FFC
FFC00FFC
FFC00FFC
FFC00FFC
FFC00FFC
FFC00FFC
FFFFFFFC
FFFFFFFC
FFFFFFFC
FFFFFFFC
FFFFFFFC
FFFFFFFC
FFFFFFFC
FFFFFFFC
FFFFFFFC
FFFFFFFC
FFC00FFC
FFC00FFC
FFC00FFC
FFC00FFC
FFC00FFC
FFC00FFC
FFC00FFC
FFC00FFC
FFC00FFC
FFC00FFC
FFC00FFC
FFC00FFC
FFC00FFC
FFC00FFC
FFC00FFC
FFC00FFC
FFC00FFC
FFC00FFC
FFC00FFC
FFC00FFC
FFC00FFC
FFC00FFC
FFC00FFC
FFC00FFC
FFC00FFC
FFC00FFC
ENDCHAR
STARTCHAR 0069
ENCODING 105
SWIDTH 400 0
DWIDTH 18 0
BBX 10 64 4 0
BITMAP
FFC0
FFC0
FFC0
FFC0
FFC0
FFC0
FFC0
FFC0
FFC0
FFC0
FFC0
FFC0
FFC0
FFC0
FFC0
FFC0
FFC0
FFC0
FFC0
FFC0
FFC0
FFC0
FFC0
FFC0
FFC0
FFC0
FFC0
FFC0
FFC0
FFC0
FFC0
FFC0
FFC0
FFC0
FFC0
FFC0
FFC0
FFC0
FFC0
FFC0
FFC0
FFC0
FFC0
FFC0
FFC0
FFC0
FFC0
FFC0
FFC0
FFC0
FFC0
FFC0
FFC0
FFC0
FFC0
FFC0
FFC0
FFC0
FFC0
FFC0
FFC0
FFC0
FFC0
FFC0
ENDCHAR
STARTCHAR 006A
ENCODING 106
SWIDTH 532 0
DWIDTH 24 0
BBX 20 64 0 0
BITMAP
003FF0
003FF0
003FF0
003FF0
003FF0
003FF0
003FF0
003FF0
003FF0
003FF0
003FF0
003FF0
003FF0
003FF0
003FF0
003FF0
003FF0
003FF0
003FF0
003FF0
003FF0
003FF0
003FF0
003FF0
003FF0
003FF0
003FF0
003FF0
003FF0
003FF0
003FF0
003FF0
003FF0
003FF0
003FF0
003FF0
003FF0
003FF0
003FF0
003FF0
003FF0
003FF0
003FF0
003FF0
003FF0
003FF0
003FF0
003FF0
003FF0
003FF0
003FF0
003FF0
003FF0
003FF0
FFFFC0
FFFFC0
FFFFC0
FFFFC0
FFFFC0
FFFFC0
FFFF00
FFFF00
FFF000
FFF000
ENDCHAR
STARTCHAR 006B
ENCODING 107
SWIDTH 844 0
DWIDTH 38 0
BBX 32 64 4 0
BITMAP
FFC003FF
FFC003FF
FFC003FC
FFC003FC
FFC00FFC
FFC00FFC
FFC00FFC
FFC00FFC
FFC03FF0
FFC03FF0
FFC03FF0
FFC03FF0
FFC0FFC0
FFC0FFC0
FFC0FFC0
FFC0FFC0
FFC3FF00
FFC3FF00
FFC3FF00
FFC3FF00
FFCFFC00
FFCFFC00
FFCFFC00
FFCFFC00
FFFFF000
FFFFF000
FFFFF000
FFFFF000
FFFFC000
FFFFC000
FFFFF000
FFFFF000
FFFFF000
FFFFF000
FFFFF000
FFFFF000
FFFFFC00
FFFFFC00
FFFFFC00
FFFFFC00
FFF3FF00
FFF3FF00
FFC3FF00
FFC3FF00
FFC3FF00
FFC3FF00
FFC0FFC0
FFC0FFC0
FFC0FFC0
FFC0FFC0
FFC03FF0
FFC03FF0
FFC03FF0
FFC03FF0
FFC03FF0
FFC03FF0
FFC00FFC
FFC00FFC
FFC00FFC
FFC00FFC
FFC003FF
FFC003FF
FFC003FF
FFC003FF
ENDCHAR
STARTCHAR 006C
ENCODING 108
SWIDTH 666 0
DWIDTH 30 0
BBX 26 64 4 0
BITMAP
FFC00000
FFC00000
FFC00000
FFC00000
FFC00000
FFC00000
FFC00000
FFC00000
FFC00000
FFC00000
FFC00000
FFC00000
FFC00000
FFC00000
FFC00000
FFC00000
FFC00000
FFC00000
FFC00000
FFC00000
FFC00000
FFC00000
FFC00000
FFC00000
FFC00000
FFC00000
FFC00000
FFC00000
FFC00000
FFC00000
FFC00000
FFC00000
FFC00000
FFC00000
FFC00000
FFC00000
FFC00000
FFC00000
FFC00000
FFC00000
FFC00000
FFC00000
FFC00000
FFC00000
FFC00000
FFC00000
FFC00000
FFC00000
FFC00000
FFC00000
FFC00000
FFC00000
FFC00000
FFC00000
FFFFFFC0
FFFFFFC0
FFFFFFC0
FFFFFFC0
FFFFFFC0
FFFFFFC0
FFFFFFC0
FFFFFFC0
FFFFFFC0
FFFFFFC0
ENDCHAR
STARTCHAR 006D
ENCODING 109
SWIDTH 1066 0
DWIDTH 48 0
BBX 42 64 4 0
BITMAP
FFFC000FFFC0
FFFC000FFFC0
FFFC003FFFC0
FFFC003FFFC0
FFFC003FFFC0
FFFC003FFFC0
FFFC003FFFC0
FFFC003FFFC0
FFFC003FFFC0
FFFC003FFFC0
FFFF003FFFC0
FFFF003FFFC0
FFFF003FFFC0
FFFF003FFFC0
FFFF003FFFC0
FFFF003FFFC0
FFFF00FFFFC0
FFFF00FFFFC0
FFFF00FFFFC0
FFFF00FFFFC0
FFFF00FFFFC0
FFFF00FFFFC0
FFFF00FFFFC0
FFFF00FFFFC0
FF3FC0FCFFC0
FF3FC0FCFFC0
FF3FC0FCFFC0
FF3FC0FCFFC0
FF3FC3FCFFC0
FF3FC3FCFFC0
FF3FC3FCFFC0
FF3FC3FCFFC0
FF3FC3FCFFC0
FF3FC3FCFFC0
FF3FC3FCFFC0
FF3FC3FCFFC0
FF0FF3F0FFC0
FF0FF3F0FFC0
FF0FF3F0FFC0
FF0FF3F0FFC0
FF0FF3F0FFC0
FF0FF3F0FFC0
FF0FFFF0FFC0
FF0FFFF0FFC0
FF0FFFF0FFC0
FF0FFFF0FFC0
FF0FFFF0FFC0
FF0FFFF0FFC0
FF03FFF0FFC0
FF03FFF0FFC0
FF03FFC0FFC0
FF03FFC0FFC0
FF03FFC0FFC0
FF03FFC0FFC0
FF03FFC0FFC0
FF03FFC0FFC0
FF03FFC0FFC0
FF03FFC0FFC0
FF03FFC0FFC0
FF03FFC0FFC0
FF00FFC0FFC0
FF00FFC0FFC0
FF00FFC0FFC0
FF00FFC0FFC0
ENDCHAR
STARTCHAR 006E
ENCODING 110
SWIDTH 844 0
DWIDTH 38 0
BBX 30 64 4 0
BITMAP
FFF003FC
FFF003FC
FFF003FC
FFF003FC
FFFC03FC
FFFC03FC
FFFC03FC
FFFC03FC
FFFC03FC
FFFC03FC
FFFC03FC
FFFC03FC
FFFF03FC
FFFF03FC
FFFF03FC
FFFF03FC
FFFF03FC
FFFF03FC
FFFF03FC
FFFF03FC
FF3FC3FC
FF3FC3FC
FF3FC3FC
FF3FC3FC
FF3FC3FC
FF3FC3FC
FF3FF3FC
FF3FF3FC
FF0FF3FC
FF0FF3FC
FF0FF3FC
FF0FF3FC
FF0FF3FC
FF0FF3FC
FF0FFFFC
FF0FFFFC
FF03FFFC
FF03FFFC
FF03FFFC
FF03FFFC
FF03FFFC
FF03FFFC
FF00FFFC
FF00FFFC
FF00FFFC
FF00FFFC
FF00FFFC
FF00FFFC
FF00FFFC
FF00FFFC
FF003FFC
FF003FFC
FF003FFC
FF003FFC
FF003FFC
FF003FFC
FF003FFC
FF003FFC
FF000FFC
FF000FFC
FF000FFC
FF000FFC
FF000FFC
FF000FFC
ENDCHAR
STARTCHAR 006F
ENCODING 111
SWIDTH 800 0
DWIDTH 36 0
BBX 30 64 2 0
BITMAP
003FFC00
003FFC00
03FFFFC0
03FFFFC0
0FFFFFF0
0FFFFFF0
3FFFFFF0
3FFFFFF0
3FFFFFFC
3FFFFFFC
3FF00FFC
3FF00FFC
FFC00FFC
FFC00FFC
FFC00FFC
FFC00FFC
FFC00FFC
FFC00FFC
FFC00FFC
FFC00FFC
FFC00FFC
FFC00FFC
FFC00FFC
FFC00FFC
FFC00FFC
FFC00FFC
FFC00FFC
FFC00FFC
FFC00FFC
FFC00FFC
FFC00FFC
FFC00FFC
FFC00FFC
FFC00FFC
FFC00FFC
FFC00FFC
FFC00FFC
FFC00FFC
FFC00FFC
FFC00FFC
FFC00FFC
FFC00FFC
FFC00FFC
FFC00FFC
FFC00FFC
FFC00FFC
FFC00FFC
FFC00FFC
FFC00FFC
FFC00FFC
FFC00FFC
FFC00FFC
3FF00FFC
3FF00FFC
3FFFFFFC
3FFFFFFC
3FFFFFF0
3FFFFFF0
0FFFFFF0
0FFFFFF0
03FFFFC0
03FFFFC0
003FFC00
003FFC00
ENDCHAR
STARTCHAR 0070
ENCODING 112
SWIDTH 754 0
DWIDTH 34 0
BBX 28 64 4 0
BITMAP
FFFFF000
FFFFF000
FFFFFF00
FFFFFF00
FFFFFFC0
FFFFFFC0
FFFFFFF0
FFFFFFF0
FFFFFFF0
FFFFFFF0
FFC03FF0
FFC03FF0
FFC03FF0
FFC03FF0
FFC00FF0
FFC00FF0
FFC00FF0
FFC00FF0
FFC00FF0
FFC00FF0
FFC00FF0
FFC00FF0
FFC00FF0
FFC00FF0
FFC03FF0
FFC03FF0
FFC03FF0
FFC03FF0
FFC03FF0
FFC03FF0
FFFFFFF0
FFFFFFF0
FFFFFFF0
FFFFFFF0
FFFFFFC0
FFFFFFC0
FFFFFF00
FFFFFF00
FFFFF000
FFFFF000
FFC00000
FFC00000
FFC00000
FFC00000
FFC00000
FFC00000
FFC00000
FFC00000
FFC00000
FFC00000
FFC00000
FFC00000
FFC00000
FFC00000
FFC00000
FFC00000
FFC00000
FFC00000
FFC00000
FFC00000
FFC00000
FFC00000
FFC00000
FFC00000
ENDCHAR
STARTCHAR 0071
ENCODING 113
SWIDTH 800 0
DWIDTH 36 0
BBX 32 68 2 -4
BITMAP
003FFC00
003FFC00
03FFFFC0
03FFFFC0
0FFFFFF0
0FFFFFF0
3FFFFFFC
3FFFFFFC
3FFFFFFC
3FFFFFFC
3FF00FFC
3FF00FFC
FFC00FFC
FFC00FFC
FFC00FFC
FFC00FFC
FFC00FFC
FFC00FFC
FFC00FFC
FFC00FFC
FFC00FFC
FFC00FFC
FFC00FFC
FFC00FFC
FFC00FFC
FFC00FFC
FFC00FFC
FFC00FFC
FFC00FFC
FFC00FFC
FFC00FFC
FFC00FFC
FFC00FFC
FFC00FFC
FFC00FFC
FFC00FFC
FFC00FFC
FFC00FFC
FFC00FFC
FFC00FFC
FFC00FFC
FFC00FFC
FFC00FFC
FFC00FFC
FFC00FFC
FFC00FFC
FFC00FFC
FFC00FFC
FFC00FFC
FFC00FFC
FFC00FFC
FFC00FFC
3FF00FFC
3FF00FFC
3FFFFFFC
3FFFFFFC
3FFFFFFC
3FFFFFFC
0FFFFFFF
0FFFFFFF
03FFFFFF
03FFFFFF
003FFFFF
003FFFFF
000000FF
000000FF
00000003
00000003
ENDCHAR
STARTCHAR 0072
ENCODING 114
SWIDTH 800 0
DWIDTH 36 0
BBX 30 64 4 0
BITMAP
FFFFFC00
FFFFFC00
FFFFFF00
FFFFFF00
FFFFFFC0
FFFFFFC0
FFFFFFF0
FFFFFFF0
FFFFFFF0
FFFFFFF0
FFC03FF0
FFC03FF0
FFC00FFC
FFC00FFC
FFC00FFC
FFC00FFC
FFC00FFC
FFC00FFC
FFC00FFC
FFC00FFC
FFC00FFC
FFC00FFC
FFC00FFC
FFC00FFC
FFC03FF0
FFC03FF0
FFC03FF0
FFC03FF0
FFFFFFF0
FFFFFFF0
FFFFFFC0
FFFFFFC0
FFFFFF00
FFFFFF00
FFFFFFC0
FFFFFFC0
FFFFFFF0
FFFFFFF0
FFC0FFF0
FFC0FFF0
FFC03FF0
FFC03FF0
FFC00FFC
FFC00FFC
FFC00FFC
FFC00FFC
FFC00FFC
FFC00FFC
FFC00FFC
FFC00FFC
FFC00FFC
FFC00FFC
FFC00FFC
FFC00FFC
FFC00FFC
FFC00FFC
FFC00FFC
FFC00FFC
FFC00FFC
FFC00FFC
FFC00FFC
FFC00FFC
FFC00FFC
FFC00FFC
ENDCHAR
STARTCHAR 0073
ENCODING 115
SWIDTH 754 0
DWIDTH 34 0
BBX 30 64 2 0
BITMAP
00FFFC00
00FFFC00
03FFFF00
03FFFF00
0FFFFFC0
0FFFFFC0
3FFFFFF0
3FFFFFF0
3FFFFFF0
3FFFFFF0
FFF00FFC
FFF00FFC
FFC00FFC
FFC00FFC
FFC00FFC
FFC00FFC
FFC00FFC
FFC00FFC
FFC00000
FFC00000
FFF00000
FFF00000
3FFC0000
3FFC0000
3FFC0000
3FFC0000
0FFF0000
0FFF0000
0FFFC000
0FFFC000
03FFFC00
03FFFC00
00FFFF00
00FFFF00
003FFF00
003FFF00
0003FFC0
0003FFC0
0000FFF0
0000FFF0
0000FFF0
0000FFF0
00003FF0
00003FF0
FFC00FFC
FFC00FFC
FFC00FFC
FFC00FFC
FFC00FFC
FFC00FFC
FFC00FFC
FFC00FFC
FFC03FFC
FFC03FFC
FFFFFFF0
FFFFFFF0
3FFFFFF0
3FFFFFF0
0FFFFFC0
0FFFFFC0
0FFFFF00
0FFFFF00
00FFFC00
00FFFC00
ENDCHAR
STARTCHAR 0074
ENCODING 116
SWIDTH 710 0
DWIDTH 32 0
BBX 32 64 0 0
BITMAP
FFFFFFFF
FFFFFFFF
FFFFFFFF
FFFFFFFF
FFFFFFFF
FFFFFFFF
FFFFFFFF
FFFFFFFF
FFFFFFFF
FFFFFFFF
000FF000
000FF000
000FF000
000FF000
000FF000
000FF000
000FF000
000FF000
000FF000
000FF000
000FF000
000FF000
000FF000
000FF000
000FF000
000FF000
000FF000
000FF000
000FF000
000FF000
000FF000
000FF000
000FF000
000FF000
000FF000
000FF000
000FF000
000FF000
000FF000
000FF000
000FF000
000FF000
000FF000
000FF000
000FF000
000FF000
000FF000
000FF000
000FF000
000FF000
000FF000
000FF000
000FF000
000FF000
000FF000
000FF000
000FF000
000FF000
000FF000
000FF000
000FF000
000FF000
000FF000
000FF000
ENDCHAR
STARTCHAR 0075
ENCODING 117
SWIDTH 800 0
DWIDTH 36 0
BBX 28 64 4 0
BITMAP
FFC00FF0
FFC00FF0
FFC00FF0
FFC00FF0
FFC00FF0
FFC00FF0
FFC00FF0
FFC00FF0
FFC00FF0
FFC00FF0
FFC00FF0
FFC00FF0
FFC00FF0
FFC00FF0
FFC00FF0
FFC00FF0
FFC00FF0
FFC00FF0
FFC00FF0
FFC00FF0
FFC00FF0
FFC00FF0
FFC00FF0
FFC00FF0
FFC00FF0
FFC00FF0
FFC00FF0
FFC00FF0
FFC00FF0
FFC00FF0
FFC00FF0
FFC00FF0
FFC00FF0
FFC00FF0
FFC00FF0
FFC00FF0
FFC00FF0
FFC00FF0
FFC00FF0
FFC00FF0
FFC00FF0
FFC00FF0
FFC00FF0
FFC00FF0
FFC00FF0
FFC00FF0
FFC00FF0
FFC00FF0
FFC00FF0
FFC00FF0
FFC00FF0
FFC00FF0
FFC03FF0
FFC03FF0
FFFFFFF0
FFFFFFF0
FFFFFFC0
FFFFFFC0
3FFFFFC0
3FFFFFC0
0FFFFF00
0FFFFF00
00FFF000
00FFF000
ENDCHAR
STARTCHAR 0076
ENCODING 118
SWIDTH 800 0
DWIDTH 36 0
BBX 36 64 0 0
BITMAP
FFF0003FF0
FFF0003FF0
3FF0003FC0
3FF0003FC0
3FF0003FC0
3FF0003FC0
3FF0003FC0
3FF0003FC0
3FF000FFC0
3FF000FFC0
3FF000FFC0
3FF000FFC0
3FF000FFC0
3FF000FFC0
0FFC00FF00
0FFC00FF00
0FFC00FF00
0FFC00FF00
0FFC00FF00
0FFC00FF00
0FFC00FF00
0FFC00FF00
0FFC03FF00
0FFC03FF00
0FFC03FF00
0FFC03FF00
03FC03FF00
03FC03FF00
03FF03FC00
03FF03FC00
03FF03FC00
03FF03FC00
03FF03FC00
03FF03FC00
03FF0FFC00
03FF0FFC00
03FF0FFC00
03FF0FFC00
03FF0FFC00
03FF0FFC00
00FF0FF000
00FF0FF000
00FFCFF000
00FFCFF000
00FFCFF000
00FFCFF000
00FFCFF000
00FFCFF000
00FFFFF000
00FFFFF000
00FFFFF000
00FFFFF000
003FFFF000
003FFFF000
003FFFC000
003FFFC000
003FFFC000
003FFFC000
003FFFC000
003FFFC000
003FFFC000
003FFFC000
003FFFC000
003FFFC000
ENDCHAR
STARTCHAR 0077
ENCODING 119
SWIDTH 1110 0
DWIDTH 50 0
BBX 48 64 2 0
BITMAP
FFC03FF003FF
FFC03FF003FF
FFC03FF003FC
FFC03FF003FC
FFC03FFC03FC
FFC03FFC03FC
FFC03FFC03FC
FFC03FFC03FC
FFC03FFC03FC
FFC03FFC03FC
FFC03FFC03FC
FFC03FFC03FC
FFC03FFC03FC
FFC03FFC03FC
FFC03FFC03FC
FFC03FFC03FC
3FC03FFC0FFC
3FC03FFC0FFC
3FC03FFC0FFC
3FC03FFC0FFC
3FF03FFC0FFC
3FF03FFC0FFC
3FF0FFFC0FF0
3FF0FFFC0FF0
3FF0FFFF0FF0
3FF0FFFF0FF0
3FF0FFFF0FF0
3FF0FFFF0FF0
3FF0FFFF0FF0
3FF0FFFF0FF0
3FF0FFFF0FF0
3FF0FFFF0FF0
3FF0FFFF0FF0
3FF0FFFF0FF0
0FF0FFFF0FF0
0FF0FFFF0FF0
0FF0FCFF3FF0
0FF0FCFF3FF0
0FFCFCFF3FF0
0FFCFCFF3FF0
0FFCFCFF3FC0
0FFCFCFF3FC0
0FFFFCFF3FC0
0FFFFCFF3FC0
0FFFFC3F3FC0
0FFFFC3F3FC0
0FFFFC3FFFC0
0FFFFC3FFFC0
0FFFFC3FFFC0
0FFFFC3FFFC0
0FFFFC3FFFC0
0FFFFC3FFFC0
03FFFC3FFFC0
03FFFC3FFFC0
03FFF03FFFC0
03FFF03FFFC0
03FFF03FFFC0
03FFF03FFFC0
03FFF03FFF00
03FFF03FFF00
03FFF03FFF00
03FFF03FFF00
03FFF00FFF00
03FFF00FFF00
ENDCHAR
STARTCHAR 0078
ENCODING 120
SWIDTH 844 0
DWIDTH 38 0
BBX 36 64 2 0
BITMAP
FFC0003FC0
FFC0003FC0
3FF000FFC0
3FF000FFC0
3FF000FF00
3FF000FF00
3FF000FF00
3FF000FF00
0FFC03FF00
0FFC03FF00
0FFC03FC00
0FFC03FC00
0FFC03FC00
0FFC03FC00
0FFF0FFC00
0FFF0FFC00
03FF0FF000
03FF0FF000
03FF0FF000
03FF0FF000
03FF3FF000
03FF3FF000
00FFFFC000
00FFFFC000
00FFFFC000
00FFFFC000
00FFFFC000
00FFFFC000
003FFF0000
003FFF0000
003FFF0000
003FFF0000
003FFF0000
003FFF0000
003FFFC000
003FFFC000
00FFFFC000
00FFFFC000
00FFFFC000
00FFFFC000
00FF3FF000
00FF3FF000
03FF3FF000
03FF3FF000
03FC3FF000
03FC3FF000
03FC0FFC00
03FC0FFC00
0FFC0FFC00
0FFC0FFC00
0FF00FFC00
0FF00FFC00
0FF003FF00
0FF003FF00
3FF003FF00
3FF003FF00
3FC003FFC0
3FC003FFC0
3FC000FFC0
3FC000FFC0
FFC000FFC0
FFC000FFC0
FF0000FFF0
FF0000FFF0
ENDCHAR
STARTCHAR 0079
ENCODING 121
SWIDTH 800 0
DWIDTH 36 0
BBX 36 64 0 0
BITMAP
FFC0003FF0
FFC0003FF0
3FF0003FC0
3FF0003FC0
3FF000FFC0
3FF000FFC0
3FF000FFC0
3FF000FFC0
3FFC00FF00
3FFC00FF00
0FFC00FF00
0FFC00FF00
0FFC03FF00
0FFC03FF00
0FFC03FC00
0FFC03FC00
03FF03FC00
03FF03FC00
03FF0FFC00
03FF0FFC00
03FF0FFC00
03FF0FFC00
00FF0FF000
00FF0FF000
00FFCFF000
00FFCFF000
00FFFFF000
00FFFFF000
00FFFFC000
00FFFFC000
003FFFC000
003FFFC000
003FFFC000
003FFFC000
003FFFC000
003FFFC000
000FFF0000
000FFF0000
000FFF0000
000FFF0000
000FFF0000
000FFF0000
000FFC0000
000FFC0000
000FFC0000
000FFC0000
000FFC0000
000FFC0000
000FFC0000
000FFC0000
000FFC0000
000FFC0000
000FFC0000
000FFC0000
000FFC0000
000FFC0000
000FFC0000
000FFC0000
000FFC0000
000FFC0000
000FFC0000
000FFC0000
000FFC0000
000FFC0000
ENDCHAR
STARTCHAR 007A
ENCODING 122
SWIDTH 754 0
DWIDTH 34 0
BBX 30 64 2 0
BITMAP
FFFFFFFC
FFFFFFFC
FFFFFFFC
FFFFFFFC
FFFFFFFC
FFFFFFFC
FFFFFFFC
FFFFFFFC
FFFFFFFC
FFFFFFFC
00003FF0
00003FF0
00003FF0
00003FF0
0000FFC0
0000FFC0
0000FFC0
0000FFC0
0003FF00
0003FF00
0003FF00
0003FF00
0003FF00
0003FF00
000FFC00
000FFC00
000FFC00
000FFC00
003FF000
003FF000
003FF000
003FF000
003FF000
003FF000
00FFC000
00FFC000
00FFC000
00FFC000
03FF0000
03FF0000
03FF0000
03FF0000
0FFF0000
0FFF0000
0FFC0000
0FFC0000
0FFC0000
0FFC0000
3FF00000
3FF00000
3FF00000
3FF00000
FFF00000
FFF00000
FFFFFFFC
FFFFFFFC
FFFFFFFC
FFFFFFFC
FFFFFFFC
FFFFFFFC
FFFFFFFC
FFFFFFFC
FFFFFFFC
FFFFFFFC
ENDCHAR
STARTCHAR 007B
ENCODING 123
SWIDTH 532 0
DWIDTH 24 0
BBX 22 64 0 0
BITMAP
000FFC
000FFC
003FFC
003FFC
00FFFC
00FFFC
00FFFC
00FFFC
03FFFC
03FFFC
03FF00
03FF00
03FF00
03FF00
03FF00
03FF00
03FF00
03FF00
03FF00
03FF00
03FF00
03FF00
03FF00
03FF00
03FC00
03FC00
0FFC00
0FFC00
FFFC00
FFFC00
FFF000
FFF000
FFC000
FFC000
FFFC00
FFFC00
FFFC00
FFFC00
03FC00
03FC00
03FF00
03FF00
03FF00
03FF00
03FF00
03FF00
03FF00
03FF00
03FF00
03FF00
03FF00
03FF00
03FF00
03FF00
03FFFC
03FFFC
00FFFC
00FFFC
00FFFC
00FFFC
003FFC
003FFC
000FFC
000FFC
ENDCHAR
STARTCHAR 007C
ENCODING 124
SWIDTH 1022 0
DWIDTH 46 0
BBX 10 74 18 -6
BITMAP
FFC0
FFC0
FFC0
FFC0
FFC0
FFC0
FFC0
FFC0
FFC0
FFC0
FFC0
FFC0
FFC0
FFC0
FFC0
FFC0
FFC0
FFC0
FFC0
FFC0
FFC0
FFC0
FFC0
FFC0
FFC0
FFC0
FFC0
FFC0
FFC0
FFC0
FFC0
FFC0
FFC0
FFC0
FFC0
FFC0
FFC0
FFC0
FFC0
FFC0
FFC0
FFC0
FFC0
FFC0
FFC0
FFC0
FFC0
FFC0
FFC0
FFC0
FFC0
FFC0
FFC0
FFC0
FFC0
FFC0
FFC0
FFC0
FFC0
FFC0
FFC0
FFC0
FFC0
FFC0
FFC0
FFC0
FFC0
FFC0
FFC0
FFC0
FFC0
FFC0
FFC0
FFC0
ENDCHAR
STARTCHAR 007D
ENCODING 125
SWIDTH 532 0
DWIDTH 24 0
BBX 20 64 2 0
BITMAP
FF0000
FF0000
FFF000
FFF000
FFF000
FFF000
FFFC00
FFFC00
FFFC00
FFFC00
0FFC00
0FFC00
03FC00
03FC00
03FC00
03FC00
03FC00
03FC00
03FC00
03FC00
03FF00
03FF00
03FF00
03FF00
03FF00
03FF00
03FF00
03FF00
00FFF0
00FFF0
00FFF0
00FFF0
003FF0
003FF0
00FFF0
00FFF0
03FFF0
03FFF0
03FF00
03FF00
03FF00
03FF00
03FF00
03FF00
03FF00
03FF00
03FC00
03FC00
03FC00
03FC00
03FC00
03FC00
0FFC00
0FFC00
FFFC00
FFFC00
FFFC00
FFFC00
FFFC00
FFFC00
FFF000
FFF000
FF0000
FF0000
ENDCHAR
STARTCHAR 007E
ENCODING 126
SWIDTH 800 0
DWIDTH 36 0
BBX 34 14 0 26
BITMAP
00FF000300
00FF000300
03FFC00F00
03FFC00F00
0FFFFC3FC0
0FFFFC3FC0
3FFFFFFFC0
3FFFFFFFC0
FF03FFFF00
FF03FFFF00
3F003FFC00
3F003FFC00
0C000FF000
0C000FF000
ENDCHAR
STARTCHAR 00A0
ENCODING 160
SWIDTH 310 0
DWIDTH 14 0
BBX 0 0 0 0
BITMAP
ENDCHAR
STARTCHAR 00A1
ENCODING 161
SWIDTH 400 0
DWIDTH 18 0
BBX 10 64 4 0
BITMAP
FFC0
FFC0
FFC0
FFC0
FFC0
FFC0
FFC0
FFC0
FFC0
FFC0
0000
0000
0000
0000
FF00
FF00
FF00
FF00
FF00
FF00
FF00
FF00
FF00
FF00
FF00
FF00
FF00
FF00
FFC0
FFC0
FFC0
FFC0
FFC0
FFC0
FFC0
FFC0
FFC0
FFC0
FFC0
FFC0
FFC0
FFC0
FFC0
FFC0
FFC0
FFC0
FFC0
FFC0
FFC0
FFC0
FFC0
FFC0
FFC0
FFC0
FFC0
FFC0
FFC0
FFC0
FFC0
FFC0
FFC0
FFC0
FFC0
FFC0
ENDCHAR
STARTCHAR 00A2
ENCODING 162
SWIDTH 800 0
DWIDTH 36 0
BBX 28 66 4 -2
BITMAP
003FC000
003FC000
003FC000
003FC000
003FC000
003FC000
0FFFFC00
0FFFFC00
3FFFFFC0
3FFFFFC0
3FFFFFC0
3FFFFFC0
FFFFFFF0
FFFFFFF0
FFC03FF0
FFC03FF0
FFC03FF0
FFC03FF0
FFC00FF0
FFC00FF0
FFC00FF0
FFC00FF0
FFC00FF0
FFC00FF0
FFC00000
FFC00000
FFC00000
FFC00000
FFC00000
FFC00000
FFC00000
FFC00000
FFC00000
FFC00000
FFC00000
FFC00000
FFC00000
FFC00000
FFC00000
FFC00000
FFC00FF0
FFC00FF0
FFC00FF0
FFC00FF0
FFC00FF0
FFC00FF0
FFC00FF0
FFC00FF0
FFC03FF0
FFC03FF0
FFC03FF0
FFC03FF0
FFFFFFF0
FFFFFFF0
3FFFFFC0
3FFFFFC0
3FFFFFC0
3FFFFFC0
0FFFFF00
0FFFFF00
003FC000
003FC000
003FC000
003FC000
003FC000
003FC000
ENDCHAR
STARTCHAR 00A3
ENCODING 163
SWIDTH 800 0
DWIDTH 36 0
BBX 30 64 2 0
BITMAP
003FFC00
003FFC00
03FFFFC0
03FFFFC0
0FFFFFF0
0FFFFFF0
0FFFFFF0
0FFFFFF0
3FFFFFFC
3FFFFFFC
3FF00FFC
3FF00FFC
3FF003FC
3FF003FC
3FF003FC
3FF003FC
3FF003FC
3FF003FC
3FF003FC
3FF003FC
3FF003FC
3FF003FC
3FF00000
3FF00000
3FF00000
3FF00000
0FFC0000
0FFC0000
0FFC0000
0FFC0000
0FFC0000
0FFC0000
03FF0000
03FF0000
03FF0000
03FF0000
00FFC000
00FFC000
3FFFFFF0
3FFFFFF0
3FFFFFF0
3FFFFFF0
3FFFFFF0
3FFFFFF0
3FFFFFF0
3FFFFFF0
003FC000
003FC000
00FFC000
00FFC000
00FF0000
00FF0000
03FF0000
03FF0000
FFFFFFFC
FFFFFFFC
FFFFFFFC
FFFFFFFC
FFFFFFFC
FFFFFFFC
FFFFFFFC
FFFFFFFC
FFFFFFFC
FFFFFFFC
ENDCHAR
STARTCHAR 00A4
ENCODING 164
SWIDTH 800 0
DWIDTH 36 0
BBX 30 32 2 16
BITMAP
0C000030
0C000030
3C0000FC
3C0000FC
FF0FF3FC
FF0FF3FC
0FFFFFF0
0FFFFFF0
03FFFFC0
03FFFFC0
03F03FC0
03F03FC0
0FC00FF0
0FC00FF0
0FC003F0
0FC003F0
0FC003F0
0FC003F0
0FC00FF0
0FC00FF0
03F00FC0
03F00FC0
03FFFFC0
03FFFFC0
0FFFFFF0
0FFFFFF0
FFFFF3FC
FFFFF3FC
3F0000FC
3F0000FC
0C000030
0C000030
ENDCHAR
STARTCHAR 00A5
ENCODING 165
SWIDTH 800 0
DWIDTH 36 0
BBX 36 64 0 0
BITMAP
FFF0003FF0
FFF0003FF0
3FF000FFC0
3FF000FFC0
3FF000FFC0
3FF000FFC0
3FF000FFC0
3FF000FFC0
0FFC00FF00
0FFC00FF00
0FFC03FF00
0FFC03FF00
0FFC03FF00
0FFC03FF00
0FFC03FC00
0FFC03FC00
03FF03FC00
03FF03FC00
03FF0FFC00
03FF0FFC00
03FF0FF000
03FF0FF000
00FF0FF000
00FF0FF000
00FFCFF000
00FFCFF000
00FFFFF000
00FFFFF000
00FFFFC000
00FFFFC000
003FFFC000
003FFFC000
003FFFC000
003FFFC000
003FFF0000
003FFF0000
000FFF0000
000FFF0000
000FFF0000
000FFF0000
0FFFFFFC00
0FFFFFFC00
0FFFFFFC00
0FFFFFFC00
000FFC0000
000FFC0000
000FFC0000
000FFC0000
000FFC0000
000FFC0000
0FFFFFFC00
0FFFFFFC00
0FFFFFFC00
0FFFFFFC00
000FFC0000
000FFC0000
000FFC0000
000FFC0000
000FFC0000
000FFC0000
000FFC0000
000FFC0000
000FFC0000
000FFC0000
ENDCHAR
STARTCHAR 00A6
ENCODING 166
SWIDTH 1022 0
DWIDTH 46 0
BBX 10 74 18 -6
BITMAP
FFC0
FFC0
FFC0
FFC0
FFC0
FFC0
FFC0
FFC0
FFC0
FFC0
FFC0
FFC0
FFC0
FFC0
FFC0
FFC0
FFC0
FFC0
FFC0
FFC0
FFC0
FFC0
FFC0
FFC0
FFC0
FFC0
FFC0
FFC0
FFC0
FFC0
FFC0
FFC0
0000
0000
0000
0000
0000
0000
0000
0000
0000
0000
FFC0
FFC0
FFC0
FFC0
FFC0
FFC0
FFC0
FFC0
FFC0
FFC0
FFC0
FFC0
FFC0
FFC0
FFC0
FFC0
FFC0
FFC0
FFC0
FFC0
FFC0
FFC0
FFC0
FFC0
FFC0
FFC0
FFC0
FFC0
FFC0
FFC0
FFC0
FFC0
ENDCHAR
STARTCHAR 00A7
ENCODING 167
SWIDTH 800 0
DWIDTH 36 0
BBX 28 72 4 -8
BITMAP
00FFF000
00FFF000
0FFFFF00
0FFFFF00
3FFFFFC0
3FFFFFC0
FFFFFFF0
FFFFFFF0
FFFFFFF0
FFFFFFF0
FFC03FF0
FFC03FF0
FFC03FF0
FFC03FF0
FFC03FF0
FFC03FF0
FFC00000
FFC00000
FFFC0000
FFFC0000
FFFFC000
FFFFC000
3FFFFC00
3FFFFC00
0FFFFF00
0FFFFF00
0FFFFFC0
0FFFFFC0
3FFFFFF0
3FFFFFF0
FFC0FFF0
FFC0FFF0
FFC03FF0
FFC03FF0
FF003FF0
FF003FF0
FF003FF0
FF003FF0
FFC03FF0
FFC03FF0
FFC03FF0
FFC03FF0
FFFFFFC0
FFFFFFC0
3FFFFF00
3FFFFF00
0FFFFC00
0FFFFC00
03FFFF00
03FFFF00
003FFFC0
003FFFC0
0003FFF0
0003FFF0
FF003FF0
FF003FF0
FF003FF0
FF003FF0
FF003FF0
FF003FF0
FFC03FF0
FFC03FF0
FFFFFFF0
FFFFFFF0
FFFFFFF0
FFFFFFF0
3FFFFFC0
3FFFFFC0
0FFFFF00
0FFFFF00
00FFF000
00FFF000
ENDCHAR
STARTCHAR 00A8
ENCODING 168
SWIDTH 488 0
DWIDTH 22 0
BBX 22 10 0 66
BITMAP
FF03FC
FF03FC
FF03FC
FF03FC
FF03FC
FF03FC
FF03FC
FF03FC
FF03FC
FF03FC
ENDCHAR
STARTCHAR 00A9
ENCODING 169
SWIDTH 1466 0
DWIDTH 66 0
BBX 62 64 2 0
BITMAP
000003FFFF000000
000003FFFF000000
00003FFFFFF00000
00003FFFFFF00000
0003FFFFFFFF0000
0003FFFFFFFF0000
003FFF0003FFF000
003FFF0003FFF000
00FFF000000FFC00
00FFF000000FFC00
03FF00000003FF00
03FF00000003FF00
03FC003FF000FF00
03FC003FF000FF00
0FF000FFFC003FC0
0FF000FFFC003FC0
0FC003FFFF000FF0
0FC003FFFF000FF0
3FC003F03F000FF0
3FC003F03F000FF0
3F000FF03F0003F0
3F000FF03F0003F0
FF000FF03F0003FC
FF000FF03F0003FC
FF000FF03F0000FC
FF000FF03F0000FC
FC000FF0000000FC
FC000FF0000000FC
FC000FF0000000FC
FC000FF0000000FC
FC000FF0000000FC
FC000FF0000000FC
FC000FF0000000FC
FC000FF0000000FC
FC000FF0000000FC
FC000FF0000000FC
FC000FF03F0000FC
FC000FF03F0000FC
FF000FF03F0000FC
FF000FF03F0000FC
FF000FF03F0003FC
FF000FF03F0003FC
3F000FF03F0003F0
3F000FF03F0003F0
3FC003F03F000FF0
3FC003F03F000FF0
0FC003FFFF000FF0
0FC003FFFF000FF0
0FF000FFFC003FC0
0FF000FFFC003FC0
03FC003FF000FF00
03FC003FF000FF00
03FF00000003FF00
03FF00000003FF00
00FFF000000FFC00
00FFF000000FFC00
003FFF0003FFF000
003FFF0003FFF000
0003FFFFFFFF0000
0003FFFFFFFF0000
00003FFFFFF00000
00003FFFFFF00000
000003FFFF000000
000003FFFF000000
ENDCHAR
STARTCHAR 00AA
ENCODING 170
SWIDTH 576 0
DWIDTH 26 0
BBX 20 44 2 20
BITMAP
00FF00
00FF00
0FFFC0
0FFFC0
3FFFC0
3FFFC0
3F03F0
3F03F0
3F03F0
3F03F0
0003F0
0003F0
00FFF0
00FFF0
0FFFF0
0FFFF0
3FFFF0
3FFFF0
3FC3F0
3FC3F0
FF03F0
FF03F0
FF03F0
FF03F0
FF03F0
FF03F0
FF0FF0
FF0FF0
3FFFF0
3FFFF0
3FFFF0
3FFFF0
0FC3F0
0FC3F0
000000
000000
000000
000000
FFFFF0
FFFFF0
FFFFF0
FFFFF0
FFFFF0
FFFFF0
ENDCHAR
STARTCHAR 00AB
ENCODING 171
SWIDTH 710 0
DWIDTH 32 0
BBX 28 48 2 8
BITMAP
0FFC0FF0
0FFC0FF0
0FFC3FF0
0FFC3FF0
0FF03FF0
0FF03FF0
0FF03FC0
0FF03FC0
3FF03FC0
3FF03FC0
3FF0FFC0
3FF0FFC0
3FC0FFC0
3FC0FFC0
3FC0FF00
3FC0FF00
FFC0FF00
FFC0FF00
FFC0FF00
FFC0FF00
FF03FF00
FF03FF00
FF03FF00
FF03FF00
FF03FF00
FF03FF00
FFC3FF00
FFC3FF00
FFC0FF00
FFC0FF00
3FC0FF00
3FC0FF00
3FC0FFC0
3FC0FFC0
3FF0FFC0
3FF0FFC0
3FF03FC0
3FF03FC0
3FF03FC0
3FF03FC0
0FF03FC0
0FF03FC0
0FF03FF0
0FF03FF0
0FFC3FF0
0FFC3FF0
0FFC0FF0
0FFC0FF0
ENDCHAR
STARTCHAR 00AC
ENCODING 172
SWIDTH 800 0
DWIDTH 36 0
BBX 32 20 2 16
BITMAP
FFFFFFFF
FFFFFFFF
FFFFFFFF
FFFFFFFF
FFFFFFFF
FFFFFFFF
FFFFFFFF
FFFFFFFF
000000FF
000000FF
000000FF
000000FF
000000FF
000000FF
000000FF
000000FF
000000FF
000000FF
000000FF
000000FF
ENDCHAR
STARTCHAR 00AD
ENCODING 173
SWIDTH 532 0
DWIDTH 24 0
BBX 18 10 4 28
BITMAP
FFFFC0
FFFFC0
FFFFC0
FFFFC0
FFFFC0
FFFFC0
FFFFC0
FFFFC0
FFFFC0
FFFFC0
ENDCHAR
STARTCHAR 00AE
ENCODING 174
SWIDTH 1466 0
DWIDTH 66 0
BBX 62 64 2 0
BITMAP
000003FFFF000000
000003FFFF000000
00003FFFFFF00000
00003FFFFFF00000
0003FFFFFFFF0000
0003FFFFFFFF0000
003FFF0003FFF000
003FFF0003FFF000
00FFF000000FFC00
00FFF000000FFC00
03FF00000003FF00
03FF00000003FF00
03FC03FFF000FF00
03FC03FFF000FF00
0FF003FFFF003FC0
0FF003FFFF003FC0
0FC003FFFF000FF0
0FC003FFFF000FF0
3FC003F03FC00FF0
3FC003F03FC00FF0
3F0003F03FC003F0
3F0003F03FC003F0
FF0003F03FC003FC
FF0003F03FC003FC
FF0003F03FC000FC
FF0003F03FC000FC
FC0003F03FC000FC
FC0003F03FC000FC
FC0003F03F0000FC
FC0003F03F0000FC
FC0003FFFF0000FC
FC0003FFFF0000FC
FC0003FFFC0000FC
FC0003FFFC0000FC
FC0003FFFF0000FC
FC0003FFFF0000FC
FC0003F03FC000FC
FC0003F03FC000FC
FF0003F03FC000FC
FF0003F03FC000FC
FF0003F03FC003FC
FF0003F03FC003FC
3F0003F03FC003F0
3F0003F03FC003F0
3FC003F03FC00FF0
3FC003F03FC00FF0
0FC003F03FC00FF0
0FC003F03FC00FF0
0FF003F00FC03FC0
0FF003F00FC03FC0
03FC03F00FC0FF00
03FC03F00FC0FF00
03FF00000003FF00
03FF00000003FF00
00FFF000000FFC00
00FFF000000FFC00
003FFF0003FFF000
003FFF0003FFF000
0003FFFFFFFF0000
0003FFFFFFFF0000
00003FFFFFF00000
00003FFFFFF00000
000003FFFF000000
000003FFFF000000
ENDCHAR
STARTCHAR 00AF
ENCODING 175
SWIDTH 488 0
DWIDTH 22 0
BBX 22 8 0 66
BITMAP
FFFFFC
FFFFFC
FFFFFC
FFFFFC
FFFFFC
FFFFFC
FFFFFC
FFFFFC
ENDCHAR
STARTCHAR 00B0
ENCODING 176
SWIDTH 444 0
DWIDTH 20 0
BBX 18 18 2 46
BITMAP
0FF000
0FF000
3FFC00
3FFC00
FC3F00
FC3F00
F00F00
F00F00
F00FC0
F00FC0
F00F00
F00F00
FC3F00
FC3F00
3FFC00
3FFC00
0FF000
0FF000
ENDCHAR
STARTCHAR 00B1
ENCODING 177
SWIDTH 800 0
DWIDTH 36 0
BBX 28 32 4 16
BITMAP
003FC000
003FC000
003FC000
003FC000
003FC000
003FC000
003FC000
003FC000
003FC000
003FC000
FFFFFFF0
FFFFFFF0
FFFFFFF0
FFFFFFF0
FFFFFFF0
FFFFFFF0
FFFFFFF0
FFFFFFF0
003FC000
003FC000
003FC000
003FC000
003FC000
003FC000
FFFFFFF0
FFFFFFF0
FFFFFFF0
FFFFFFF0
FFFFFFF0
FFFFFFF0
FFFFFFF0
FFFFFFF0
ENDCHAR
STARTCHAR 00B2
ENCODING 178
SWIDTH 576 0
DWIDTH 26 0
BBX 18 40 4 32
BITMAP
0FFC00
0FFC00
3FFF00
3FFF00
FFFFC0
FFFFC0
FC0FC0
FC0FC0
FC0FC0
FC0FC0
FC0FC0
FC0FC0
FC0FC0
FC0FC0
000FC0
000FC0
003FC0
003FC0
003F00
003F00
00FC00
00FC00
03F000
03F000
0FF000
0FF000
3FC000
3FC000
3F0000
3F0000
FC0000
FC0000
FC0000
FC0000
FFFFC0
FFFFC0
FFFFC0
FFFFC0
FFFFC0
FFFFC0
ENDCHAR
STARTCHAR 00B3
ENCODING 179
SWIDTH 576 0
DWIDTH 26 0
BBX 18 40 4 32
BITMAP
0FFC00
0FFC00
3FFF00
3FFF00
FFFFC0
FFFFC0
FC0FC0
FC0FC0
FC0FC0
FC0FC0
FC0FC0
FC0FC0
000FC0
000FC0
003FC0
003FC0
03FF00
03FF00
03FC00
03FC00
03FF00
03FF00
003FC0
003FC0
000FC0
000FC0
FC0FC0
FC0FC0
FC0FC0
FC0FC0
FC0FC0
FC0FC0
FC3FC0
FC3FC0
FFFFC0
FFFFC0
3FFF00
3FFF00
0FFC00
0FFC00
ENDCHAR
STARTCHAR 00B4
ENCODING 180
SWIDTH 488 0
DWIDTH 22 0
BBX 16 10 2 66
BITMAP
03FF
03FF
03FC
03FC
0FF0
0FF0
3FC0
3FC0
FF00
FF00
ENDCHAR
STARTCHAR 00B5
ENCODING 181
SWIDTH 800 0
DWIDTH 36 0
BBX 30 54 2 -8
BITMAP
FFC00FFC
FFC00FFC
FFC00FFC
FFC00FFC
FFC00FFC
FFC00FFC
FFC00FFC
FFC00FFC
FFC00FFC
FFC00FFC
FFC00FFC
FFC00FFC
FFC00FFC
FFC00FFC
FFC00FFC
FFC00FFC
FFC00FFC
FFC00FFC
FFC00FFC
FFC00FFC
FFC00FFC
FFC00FFC
FFC00FFC
FFC00FFC
FFC00FFC
FFC00FFC
FFC00FFC
FFC00FFC
FFC00FFC
FFC00FFC
FFC00FFC
FFC00FFC
FFC00FFC
FFC00FFC
FFF00FFC
FFF00FFC
FFFFFFFC
FFFFFFFC
FFFFFFFC
FFFFFFFC
FFFFFFFC
FFFFFFFC
FFFFF3FC
FFFFF3FC
FFFFC3FC
FFFFC3FC
FFC00000
FFC00000
FFC00000
FFC00000
FFC00000
FFC00000
FFC00000
FFC00000
ENDCHAR
STARTCHAR 00B6
ENCODING 182
SWIDTH 800 0
DWIDTH 36 0
BBX 30 70 2 -6
BITMAP
00FFFFFC
00FFFFFC
0FFFFFFC
0FFFFFFC
3FFFFFFC
3FFFFFFC
FFFFFFFC
FFFFFFFC
FFFFC3FC
FFFFC3FC
FFFFC3FC
FFFFC3FC
FFFFC3FC
FFFFC3FC
FFFFC3FC
FFFFC3FC
FFFFC3FC
FFFFC3FC
FFFFC3FC
FFFFC3FC
FFFFC3FC
FFFFC3FC
FFFFC3FC
FFFFC3FC
FFFFC3FC
FFFFC3FC
FFFFC3FC
FFFFC3FC
FFFFC3FC
FFFFC3FC
FFFFC3FC
FFFFC3FC
FFFFC3FC
FFFFC3FC
3FFFC3FC
3FFFC3FC
0FFFC3FC
0FFFC3FC
03FFC3FC
03FFC3FC
003FC3FC
003FC3FC
003FC3FC
003FC3FC
003FC3FC
003FC3FC
003FC3FC
003FC3FC
003FC3FC
003FC3FC
003FC3FC
003FC3FC
003FC3FC
003FC3FC
003FC3FC
003FC3FC
003FC3FC
003FC3FC
003FC3FC
003FC3FC
003FC3FC
003FC3FC
003FC3FC
003FC3FC
003FC3FC
003FC3FC
003FC3FC
003FC3FC
003FC3FC
003FC3FC
ENDCHAR
STARTCHAR 00B7
ENCODING 183
SWIDTH 354 0
DWIDTH 16 0
BBX 10 10 4 26
BITMAP
FFC0
FFC0
FFC0
FFC0
FFC0
FFC0
FFC0
FFC0
FFC0
FFC0
ENDCHAR
STARTCHAR 00B8
ENCODING 184
SWIDTH 488 0
DWIDTH 22 0
BBX 18 14 2 -14
BITMAP
00F000
00F000
00F000
00F000
00FC00
00FC00
003FC0
003FC0
FF0FC0
FF0FC0
FFFFC0
FFFFC0
0FFF00
0FFF00
ENDCHAR
STARTCHAR 00B9
ENCODING 185
SWIDTH 400 0
DWIDTH 18 0
BBX 12 40 2 32
BITMAP
03F0
03F0
03F0
03F0
0FF0
0FF0
FFF0
FFF0
FFF0
FFF0
03F0
03F0
03F0
03F0
03F0
03F0
03F0
03F0
03F0
03F0
03F0
03F0
03F0
03F0
03F0
03F0
03F0
03F0
03F0
03F0
03F0
03F0
03F0
03F0
03F0
03F0
03F0
03F0
03F0
03F0
ENDCHAR
STARTCHAR 00BA
ENCODING 186
SWIDTH 576 0
DWIDTH 26 0
BBX 18 44 4 20
BITMAP
0FF000
0FF000
3FFF00
3FFF00
FFFFC0
FFFFC0
FC0FC0
FC0FC0
FC0FC0
FC0FC0
FC0FC0
FC0FC0
FC0FC0
FC0FC0
FC0FC0
FC0FC0
FC0FC0
FC0FC0
FC0FC0
FC0FC0
FC0FC0
FC0FC0
FC0FC0
FC0FC0
FC0FC0
FC0FC0
FC0FC0
FC0FC0
FFFFC0
FFFFC0
3FFF00
3FFF00
0FFC00
0FFC00
000000
000000
000000
000000
FFFFC0
FFFFC0
FFFFC0
FFFFC0
FFFFC0
FFFFC0
ENDCHAR
STARTCHAR 00BB
ENCODING 187
SWIDTH 710 0
DWIDTH 32 0
BBX 28 48 2 8
BITMAP
FF03FF00
FF03FF00
FFC3FF00
FFC3FF00
FFC0FF00
FFC0FF00
3FC0FF00
3FC0FF00
3FC0FFC0
3FC0FFC0
3FC0FFC0
3FC0FFC0
3FF03FC0
3FF03FC0
3FF03FC0
3FF03FC0
0FF03FF0
0FF03FF0
0FF03FF0
0FF03FF0
0FFC3FF0
0FFC3FF0
0FFC0FF0
0FFC0FF0
0FFC0FF0
0FFC0FF0
0FFC3FF0
0FFC3FF0
0FF03FF0
0FF03FF0
0FF03FC0
0FF03FC0
3FF03FC0
3FF03FC0
3FF0FFC0
3FF0FFC0
3FC0FFC0
3FC0FFC0
3FC0FFC0
3FC0FFC0
FFC0FF00
FFC0FF00
FFC0FF00
FFC0FF00
FFC3FF00
FFC3FF00
FF03FF00
FF03FF00
ENDCHAR
STARTCHAR 00BC
ENCODING 188
SWIDTH 1244 0
DWIDTH 56 0
BBX 48 62 6 2
BITMAP
03F00000FF00
03F00000FF00
03F00000FC00
03F00000FC00
0FF00000FC00
0FF00000FC00
FFF00003F000
FFF00003F000
FFF00003F000
FFF00003F000
0FF0000FC000
0FF0000FC000
0FF0000FC000
0FF0000FC000
0FF0000FC000
0FF0000FC000
0FF0003F0000
0FF0003F0000
0FF0003F0000
0FF0003F0000
0FF000FC0000
0FF000FC0000
0FF000FC0000
0FF000FC0000
0FF000FC03FC
0FF000FC03FC
0FF003F003FC
0FF003F003FC
0FF003F00FFC
0FF003F00FFC
0FF00FC00FFC
0FF00FC00FFC
0FF00FC03FFC
0FF00FC03FFC
0FF00FC03FFC
0FF00FC03FFC
0FF03F00FCFC
0FF03F00FCFC
0FF03F00FCFC
0FF03F00FCFC
00003C00FCFC
00003C00FCFC
0000FC03F0FC
0000FC03F0FC
0000FC03F0FC
0000FC03F0FC
0003F00FC0FC
0003F00FC0FC
0003F00FC0FC
0003F00FC0FC
0003C00FFFFF
0003C00FFFFF
000FC00FFFFF
000FC00FFFFF
000FC00FFFFF
000FC00FFFFF
003F000000FC
003F000000FC
003F000000FC
003F000000FC
00FF000000FC
00FF000000FC
ENDCHAR
STARTCHAR 00BD
ENCODING 189
SWIDTH 1244 0
DWIDTH 56 0
BBX 48 64 6 0
BITMAP
03F00003F000
03F00003F000
03F00003F000
03F00003F000
0FF0000FC000
0FF0000FC000
FFF0000FC000
FFF0000FC000
FFF0003F0000
FFF0003F0000
0FF0003F0000
0FF0003F0000
0FF0003F0000
0FF0003F0000
0FF000FC0000
0FF000FC0000
0FF000FC0000
0FF000FC0000
0FF000FC0000
0FF000FC0000
0FF003F00000
0FF003F00000
0FF003F00000
0FF003F00000
0FF00FC03FF0
0FF00FC03FF0
0FF00FC3FFFC
0FF00FC3FFFC
0FF00FC3FFFC
0FF00FC3FFFC
0FF03F03F0FF
0FF03F03F0FF
0FF03F0FC03F
0FF03F0FC03F
0FF0FC0FC03F
0FF0FC0FC03F
0FF0FC00003F
0FF0FC00003F
0FF0FC0000FC
0FF0FC0000FC
0003F00000FC
0003F00000FC
0003F00003FC
0003F00003FC
0003C0000FF0
0003C0000FF0
000FC0003FC0
000FC0003FC0
000FC0003F00
000FC0003F00
003F0000FC00
003F0000FC00
003F0003F000
003F0003F000
003F0003F000
003F0003F000
00FC0003F000
00FC0003F000
00FC000FFFFF
00FC000FFFFF
03F0000FFFFF
03F0000FFFFF
03F0000FFFFF
03F0000FFFFF
ENDCHAR
STARTCHAR 00BE
ENCODING 190
SWIDTH 1244 0
DWIDTH 56 0
BBX 50 62 4 2
BITMAP
0FFC00000FC000
0FFC00000FC000
3FFF00003F0000
3FFF00003F0000
FFFFC0003F0000
FFFFC0003F0000
FC0FC0003F0000
FC0FC0003F0000
FC0FC000FC0000
FC0FC000FC0000
FC0FC000FC0000
FC0FC000FC0000
000FC003F00000
000FC003F00000
003FC003F00000
003FC003F00000
03FF0003F00000
03FF0003F00000
03FC000FC00000
03FC000FC00000
03FF000FC00000
03FF000FC00000
003FC00F00FF00
003FC00F00FF00
000FC03F00FF00
000FC03F00FF00
FC0FC03F00FF00
FC0FC03F00FF00
FC0FC0FC03FF00
FC0FC0FC03FF00
FC0FC0FC03FF00
FC0FC0FC03FF00
FC0FC0F00FFF00
FC0FC0F00FFF00
FFFFC3F00FFF00
FFFFC3F00FFF00
3FFF03F03F3F00
3FFF03F03F3F00
0FFC0FC03F3F00
0FFC0FC03F3F00
00000FC03C3F00
00000FC03C3F00
00000FC0FC3F00
00000FC0FC3F00
00003F00FC3F00
00003F00FC3F00
00003F03F03F00
00003F03F03F00
0000FC03F03F00
0000FC03F03F00
0000FC03FFFFC0
0000FC03FFFFC0
0000FC03FFFFC0
0000FC03FFFFC0
0003F003FFFFC0
0003F003FFFFC0
0003F000003F00
0003F000003F00
000FC000003F00
000FC000003F00
000FC000003F00
000FC000003F00
ENDCHAR
STARTCHAR 00BF
ENCODING 191
SWIDTH 710 0
DWIDTH 32 0
BBX 28 64 2 0
BITMAP
003FF000
003FF000
003FF000
003FF000
003FF000
003FF000
003FF000
003FF000
003FF000
003FF000
00000000
00000000
00000000
00000000
003FF000
003FF000
000FF000
000FF000
003FF000
003FF000
003FF000
003FF000
003FF000
003FF000
003FC000
003FC000
00FFC000
00FFC000
03FF0000
03FF0000
03FF0000
03FF0000
0FFC0000
0FFC0000
3FFC0000
3FFC0000
3FF00000
3FF00000
FFF00000
FFF00000
FFC00000
FFC00000
FFC00FF0
FFC00FF0
FFC00FF0
FFC00FF0
FFC00FF0
FFC00FF0
FFC00FF0
FFC00FF0
FFC03FF0
FFC03FF0
FFC03FF0
FFC03FF0
FFFFFFF0
FFFFFFF0
3FFFFFC0
3FFFFFC0
3FFFFFC0
3FFFFFC0
0FFFFF00
0FFFFF00
00FFF000
00FFF000
ENDCHAR
STARTCHAR 00C0
ENCODING 192
SWIDTH 800 0
DWIDTH 36 0
BBX 36 76 0 0
BITMAP
00FFC00000
00FFC00000
003FF00000
003FF00000
000FFC0000
000FFC0000
0003FC0000
0003FC0000
0000FF0000
0000FF0000
0000000000
0000000000
003FFFC000
003FFFC000
003FFFC000
003FFFC000
003FFFC000
003FFFC000
003FFFC000
003FFFC000
003FFFC000
003FFFC000
003FFFF000
003FFFF000
00FFFFF000
00FFFFF000
00FFFFF000
00FFFFF000
00FFFFF000
00FFFFF000
00FF3FF000
00FF3FF000
00FF0FF000
00FF0FF000
00FF0FFC00
00FF0FFC00
00FF0FFC00
00FF0FFC00
03FF0FFC00
03FF0FFC00
03FF0FFC00
03FF0FFC00
03FC0FFC00
03FC0FFC00
03FC0FFC00
03FC0FFC00
03FC03FF00
03FC03FF00
03FC03FF00
03FC03FF00
0FFC03FF00
0FFC03FF00
0FFC03FF00
0FFC03FF00
0FFC03FF00
0FFC03FF00
0FFFFFFF00
0FFFFFFF00
0FFFFFFF00
0FFFFFFF00
0FFFFFFFC0
0FFFFFFFC0
0FFFFFFFC0
0FFFFFFFC0
3FFFFFFFC0
3FFFFFFFC0
3FF000FFC0
3FF000FFC0
3FF000FFC0
3FF000FFC0
3FC000FFC0
3FC000FFC0
3FC0003FF0
3FC0003FF0
FFC0003FF0
FFC0003FF0
ENDCHAR
STARTCHAR 00C1
ENCODING 193
SWIDTH 800 0
DWIDTH 36 0
BBX 36 76 0 0
BITMAP
00003FF000
00003FF000
00003FC000
00003FC000
0000FF0000
0000FF0000
0003FC0000
0003FC0000
0003F00000
0003F00000
0000000000
0000000000
003FFFC000
003FFFC000
003FFFC000
003FFFC000
003FFFC000
003FFFC000
003FFFC000
003FFFC000
003FFFC000
003FFFC000
003FFFF000
003FFFF000
00FFFFF000
00FFFFF000
00FFFFF000
00FFFFF000
00FFFFF000
00FFFFF000
00FF3FF000
00FF3FF000
00FF0FF000
00FF0FF000
00FF0FFC00
00FF0FFC00
00FF0FFC00
00FF0FFC00
03FF0FFC00
03FF0FFC00
03FF0FFC00
03FF0FFC00
03FC0FFC00
03FC0FFC00
03FC0FFC00
03FC0FFC00
03FC03FF00
03FC03FF00
03FC03FF00
03FC03FF00
0FFC03FF00
0FFC03FF00
0FFC03FF00
0FFC03FF00
0FFC03FF00
0FFC03FF00
0FFFFFFF00
0FFFFFFF00
0FFFFFFF00
0FFFFFFF00
0FFFFFFFC0
0FFFFFFFC0
0FFFFFFFC0
0FFFFFFFC0
3FFFFFFFC0
3FFFFFFFC0
3FF000FFC0
3FF000FFC0
3FF000FFC0
3FF000FFC0
3FC000FFC0
3FC000FFC0
3FC0003FF0
3FC0003FF0
FFC0003FF0
FFC0003FF0
ENDCHAR
STARTCHAR 00C2
ENCODING 194
SWIDTH 800 0
DWIDTH 36 0
BBX 36 76 0 0
BITMAP
000FFF0000
000FFF0000
000FFFC000
000FFFC000
003FFFF000
003FFFF000
00FF0FF000
00FF0FF000
03FC03FC00
03FC03FC00
0000000000
0000000000
003FFFC000
003FFFC000
003FFFC000
003FFFC000
003FFFC000
003FFFC000
003FFFC000
003FFFC000
003FFFC000
003FFFC000
003FFFF000
003FFFF000
00FFFFF000
00FFFFF000
00FFFFF000
00FFFFF000
00FFFFF000
00FFFFF000
00FF3FF000
00FF3FF000
00FF0FF000
00FF0FF000
00FF0FFC00
00FF0FFC00
00FF0FFC00
00FF0FFC00
03FF0FFC00
03FF0FFC00
03FF0FFC00
03FF0FFC00
03FC0FFC00
03FC0FFC00
03FC0FFC00
03FC0FFC00
03FC03FF00
03FC03FF00
03FC03FF00
03FC03FF00
0FFC03FF00
0FFC03FF00
0FFC03FF00
0FFC03FF00
0FFC03FF00
0FFC03FF00
0FFFFFFF00
0FFFFFFF00
0FFFFFFF00
0FFFFFFF00
0FFFFFFFC0
0FFFFFFFC0
0FFFFFFFC0
0FFFFFFFC0
3FFFFFFFC0
3FFFFFFFC0
3FF000FFC0
3FF000FFC0
3FF000FFC0
3FF000FFC0
3FC000FFC0
3FC000FFC0
3FC0003FF0
3FC0003FF0
FFC0003FF0
FFC0003FF0
ENDCHAR
STARTCHAR 00C3
ENCODING 195
SWIDTH 800 0
DWIDTH 36 0
BBX 36 76 0 0
BITMAP
003FC0F000
003FC0F000
00FFFFFC00
00FFFFFC00
03FFFFFC00
03FFFFFC00
00F03FC000
00F03FC000
0000000000
0000000000
0000000000
0000000000
003FFFC000
003FFFC000
003FFFC000
003FFFC000
003FFFC000
003FFFC000
003FFFC000
003FFFC000
003FFFC000
003FFFC000
003FFFF000
003FFFF000
00FFFFF000
00FFFFF000
00FFFFF000
00FFFFF000
00FFFFF000
00FFFFF000
00FF3FF000
00FF3FF000
00FF0FF000
00FF0FF000
00FF0FFC00
00FF0FFC00
00FF0FFC00
00FF0FFC00
03FF0FFC00
03FF0FFC00
03FF0FFC00
03FF0FFC00
03FC0FFC00
03FC0FFC00
03FC0FFC00
03FC0FFC00
03FC03FF00
03FC03FF00
03FC03FF00
03FC03FF00
0FFC03FF00
0FFC03FF00
0FFC03FF00
0FFC03FF00
0FFC03FF00
0FFC03FF00
0FFFFFFF00
0FFFFFFF00
0FFFFFFF00
0FFFFFFF00
0FFFFFFFC0
0FFFFFFFC0
0FFFFFFFC0
0FFFFFFFC0
3FFFFFFFC0
3FFFFFFFC0
3FF000FFC0
3FF000FFC0
3FF000FFC0
3FF000FFC0
3FC000FFC0
3FC000FFC0
3FC0003FF0
3FC0003FF0
FFC0003FF0
FFC0003FF0
ENDCHAR
STARTCHAR 00C4
ENCODING 196
SWIDTH 800 0
DWIDTH 36 0
BBX 36 76 0 0
BITMAP
00FF0FFC00
00FF0FFC00
00FF0FFC00
00FF0FFC00
00FF0FFC00
00FF0FFC00
00FF0FFC00
00FF0FFC00
00FF0FFC00
00FF0FFC00
0000000000
0000000000
003FFFC000
003FFFC000
003FFFC000
003FFFC000
003FFFC000
003FFFC000
003FFFC000
003FFFC000
003FFFC000
003FFFC000
003FFFF000
003FFFF000
00FFFFF000
00FFFFF000
00FFFFF000
00FFFFF000
00FFFFF000
00FFFFF000
00FF3FF000
00FF3FF000
00FF0FF000
00FF0FF000
00FF0FFC00
00FF0FFC00
00FF0FFC00
00FF0FFC00
03FF0FFC00
03FF0FFC00
03FF0FFC00
03FF0FFC00
03FC0FFC00
03FC0FFC00
03FC0FFC00
03FC0FFC00
03FC03FF00
03FC03FF00
03FC03FF00
03FC03FF00
0FFC03FF00
0FFC03FF00
0FFC03FF00
0FFC03FF00
0FFC03FF00
0FFC03FF00
0FFFFFFF00
0FFFFFFF00
0FFFFFFF00
0FFFFFFF00
0FFFFFFFC0
0FFFFFFFC0
0FFFFFFFC0
0FFFFFFFC0
3FFFFFFFC0
3FFFFFFFC0
3FF000FFC0
3FF000FFC0
3FF000FFC0
3FF000FFC0
3FC000FFC0
3FC000FFC0
3FC0003FF0
3FC0003FF0
FFC0003FF0
FFC0003FF0
ENDCHAR
STARTCHAR 00C5
ENCODING 197
SWIDTH 800 0
DWIDTH 36 0
BBX 36 80 0 0
BITMAP
0003FC0000
0003FC0000
000FFF0000
000FFF0000
000F0FC000
000F0FC000
000F0FC000
000F0FC000
000F0FC000
000F0FC000
000FFF0000
000FFF0000
0003FC0000
0003FC0000
0000000000
0000000000
003FFFC000
003FFFC000
003FFFC000
003FFFC000
003FFFC000
003FFFC000
003FFFC000
003FFFC000
003FFFC000
003FFFC000
003FFFF000
003FFFF000
00FFFFF000
00FFFFF000
00FFFFF000
00FFFFF000
00FFFFF000
00FFFFF000
00FF3FF000
00FF3FF000
00FF0FF000
00FF0FF000
00FF0FFC00
00FF0FFC00
00FF0FFC00
00FF0FFC00
03FF0FFC00
03FF0FFC00
03FF0FFC00
03FF0FFC00
03FC0FFC00
03FC0FFC00
03FC0FFC00
03FC0FFC00
03FC03FF00
03FC03FF00
03FC03FF00
03FC03FF00
0FFC03FF00
0FFC03FF00
0FFC03FF00
0FFC03FF00
0FFC03FF00
0FFC03FF00
0FFFFFFF00
0FFFFFFF00
0FFFFFFF00
0FFFFFFF00
0FFFFFFFC0
0FFFFFFFC0
0FFFFFFFC0
0FFFFFFFC0
3FFFFFFFC0
3FFFFFFFC0
3FF000FFC0
3FF000FFC0
3FF000FFC0
3FF000FFC0
3FC000FFC0
3FC000FFC0
3FC0003FF0
3FC0003FF0
FFC0003FF0
FFC0003FF0
ENDCHAR
STARTCHAR 00C6
ENCODING 198
SWIDTH 1154 0
DWIDTH 52 0
BBX 50 64 0 0
BITMAP
0000FFFFFFFFC0
0000FFFFFFFFC0
0000FFFFFFFFC0
0000FFFFFFFFC0
0000FFFFFFFFC0
0000FFFFFFFFC0
0000FFFFFFFFC0
0000FFFFFFFFC0
0003FFFFFFFFC0
0003FFFFFFFFC0
0003FFFF000000
0003FFFF000000
0003FFFF000000
0003FFFF000000
0003FFFF000000
0003FFFF000000
000FFFFF000000
000FFFFF000000
000FFFFF000000
000FFFFF000000
000FF3FF000000
000FF3FF000000
000FF3FF000000
000FF3FF000000
003FF3FF000000
003FF3FF000000
003FF3FFFFFC00
003FF3FFFFFC00
003FC3FFFFFC00
003FC3FFFFFC00
003FC3FFFFFC00
003FC3FFFFFC00
00FFC3FFFFFC00
00FFC3FFFFFC00
00FFC3FFFFFC00
00FFC3FFFFFC00
00FF03FF000000
00FF03FF000000
03FF03FF000000
03FF03FF000000
03FF03FF000000
03FF03FF000000
03FF03FF000000
03FF03FF000000
03FFFFFF000000
03FFFFFF000000
0FFFFFFF000000
0FFFFFFF000000
0FFFFFFF000000
0FFFFFFF000000
0FFFFFFF000000
0FFFFFFF000000
0FFFFFFF000000
0FFFFFFF000000
3FF003FFFFFFC0
3FF003FFFFFFC0
3FF003FFFFFFC0
3FF003FFFFFFC0
3FF003FFFFFFC0
3FF003FFFFFFC0
3FC003FFFFFFC0
3FC003FFFFFFC0
FFC003FFFFFFC0
FFC003FFFFFFC0
ENDCHAR
STARTCHAR 00C7
ENCODING 199
SWIDTH 754 0
DWIDTH 34 0
BBX 30 78 2 -14
BITMAP
003FFC00
003FFC00
03FFFFC0
03FFFFC0
0FFFFFF0
0FFFFFF0
3FFFFFF0
3FFFFFF0
3FFFFFFC
3FFFFFFC
3FF00FFC
3FF00FFC
FFC00FFC
FFC00FFC
FFC00FFC
FFC00FFC
FFC00FFC
FFC00FFC
FFC00FFC
FFC00FFC
FFC00FFC
FFC00FFC
FFC00000
FFC00000
FFC00000
FFC00000
FFC00000
FFC00000
FFC00000
FFC00000
FFC00000
FFC00000
FFC00000
FFC00000
FFC00000
FFC00000
FFC00000
FFC00000
FFC00000
FFC00000
FFC00FFC
FFC00FFC
FFC00FFC
FFC00FFC
FFC00FFC
FFC00FFC
FFC00FFC
FFC00FFC
FFC00FFC
FFC00FFC
FFC00FFC
FFC00FFC
FFF00FFC
FFF00FFC
3FF00FFC
3FF00FFC
3FFFFFFC
3FFFFFFC
3FFFFFF0
3FFFFFF0
0FFFFFC0
0FFFFFC0
03FFFF00
03FFFF00
000FF000
000FF000
0003C000
0003C000
0003FC00
0003FC00
0000FF00
0000FF00
03FC3F00
03FC3F00
00FFFF00
00FFFF00
003FF000
003FF000
ENDCHAR
STARTCHAR 00C8
ENCODING 200
SWIDTH 754 0
DWIDTH 34 0
BBX 26 76 4 0
BITMAP
3FF00000
3FF00000
03FC0000
03FC0000
00FF0000
00FF0000
003FC000
003FC000
000FC000
000FC000
00000000
00000000
FFFFFFC0
FFFFFFC0
FFFFFFC0
FFFFFFC0
FFFFFFC0
FFFFFFC0
FFFFFFC0
FFFFFFC0
FFFFFFC0
FFFFFFC0
FFC00000
FFC00000
FFC00000
FFC00000
FFC00000
FFC00000
FFC00000
FFC00000
FFC00000
FFC00000
FFC00000
FFC00000
FFC00000
FFC00000
FFC00000
FFC00000
FFFFFF00
FFFFFF00
FFFFFF00
FFFFFF00
FFFFFF00
FFFFFF00
FFFFFF00
FFFFFF00
FFFFFF00
FFFFFF00
FFC00000
FFC00000
FFC00000
FFC00000
FFC00000
FFC00000
FFC00000
FFC00000
FFC00000
FFC00000
FFC00000
FFC00000
FFC00000
FFC00000
FFC00000
FFC00000
FFC00000
FFC00000
FFFFFFC0
FFFFFFC0
FFFFFFC0
FFFFFFC0
FFFFFFC0
FFFFFFC0
FFFFFFC0
FFFFFFC0
FFFFFFC0
FFFFFFC0
ENDCHAR
STARTCHAR 00C9
ENCODING 201
SWIDTH 754 0
DWIDTH 34 0
BBX 26 76 4 0
BITMAP
0003FF00
0003FF00
000FF000
000FF000
003FC000
003FC000
003F0000
003F0000
00FC0000
00FC0000
00000000
00000000
FFFFFFC0
FFFFFFC0
FFFFFFC0
FFFFFFC0
FFFFFFC0
FFFFFFC0
FFFFFFC0
FFFFFFC0
FFFFFFC0
FFFFFFC0
FFC00000
FFC00000
FFC00000
FFC00000
FFC00000
FFC00000
FFC00000
FFC00000
FFC00000
FFC00000
FFC00000
FFC00000
FFC00000
FFC00000
FFC00000
FFC00000
FFFFFF00
FFFFFF00
FFFFFF00
FFFFFF00
FFFFFF00
FFFFFF00
FFFFFF00
FFFFFF00
FFFFFF00
FFFFFF00
FFC00000
FFC00000
FFC00000
FFC00000
FFC00000
FFC00000
FFC00000
FFC00000
FFC00000
FFC00000
FFC00000
FFC00000
FFC00000
FFC00000
FFC00000
FFC00000
FFC00000
FFC00000
FFFFFFC0
FFFFFFC0
FFFFFFC0
FFFFFFC0
FFFFFFC0
FFFFFFC0
FFFFFFC0
FFFFFFC0
FFFFFFC0
FFFFFFC0
ENDCHAR
STARTCHAR 00CA
ENCODING 202
SWIDTH 754 0
DWIDTH 34 0
BBX 26 76 4 0
BITMAP
00FFC000
00FFC000
03FFF000
03FFF000
0FF3FC00
0FF3FC00
3FC0FF00
3FC0FF00
FFC0FFC0
FFC0FFC0
00000000
00000000
FFFFFFC0
FFFFFFC0
FFFFFFC0
FFFFFFC0
FFFFFFC0
FFFFFFC0
FFFFFFC0
FFFFFFC0
FFFFFFC0
FFFFFFC0
FFC00000
FFC00000
FFC00000
FFC00000
FFC00000
FFC00000
FFC00000
FFC00000
FFC00000
FFC00000
FFC00000
FFC00000
FFC00000
FFC00000
FFC00000
FFC00000
FFFFFF00
FFFFFF00
FFFFFF00
FFFFFF00
FFFFFF00
FFFFFF00
FFFFFF00
FFFFFF00
FFFFFF00
FFFFFF00
FFC00000
FFC00000
FFC00000
FFC00000
FFC00000
FFC00000
FFC00000
FFC00000
FFC00000
FFC00000
FFC00000
FFC00000
FFC00000
FFC00000
FFC00000
FFC00000
FFC00000
FFC00000
FFFFFFC0
FFFFFFC0
FFFFFFC0
FFFFFFC0
FFFFFFC0
FFFFFFC0
FFFFFFC0
FFFFFFC0
FFFFFFC0
FFFFFFC0
ENDCHAR
STARTCHAR 00CB
ENCODING 203
SWIDTH 754 0
DWIDTH 34 0
BBX 26 76 4 0
BITMAP
3FC0FF00
3FC0FF00
3FC0FF00
3FC0FF00
3FC0FF00
3FC0FF00
3FC0FF00
3FC0FF00
3FC0FF00
3FC0FF00
00000000
00000000
FFFFFFC0
FFFFFFC0
FFFFFFC0
FFFFFFC0
FFFFFFC0
FFFFFFC0
FFFFFFC0
FFFFFFC0
FFFFFFC0
FFFFFFC0
FFC00000
FFC00000
FFC00000
FFC00000
FFC00000
FFC00000
FFC00000
FFC00000
FFC00000
FFC00000
FFC00000
FFC00000
FFC00000
FFC00000
FFC00000
FFC00000
FFFFFF00
FFFFFF00
FFFFFF00
FFFFFF00
FFFFFF00
FFFFFF00
FFFFFF00
FFFFFF00
FFFFFF00
FFFFFF00
FFC00000
FFC00000
FFC00000
FFC00000
FFC00000
FFC00000
FFC00000
FFC00000
FFC00000
FFC00000
FFC00000
FFC00000
FFC00000
FFC00000
FFC00000
FFC00000
FFC00000
FFC00000
FFFFFFC0
FFFFFFC0
FFFFFFC0
FFFFFFC0
FFFFFFC0
FFFFFFC0
FFFFFFC0
FFFFFFC0
FFFFFFC0
FFFFFFC0
ENDCHAR
STARTCHAR 00CC
ENCODING 204
SWIDTH 400 0
DWIDTH 18 0
BBX 16 76 -2 0
BITMAP
FFC0
FFC0
3FF0
3FF0
0FFC
0FFC
03FC
03FC
00FF
00FF
0000
0000
03FF
03FF
03FF
03FF
03FF
03FF
03FF
03FF
03FF
03FF
03FF
03FF
03FF
03FF
03FF
03FF
03FF
03FF
03FF
03FF
03FF
03FF
03FF
03FF
03FF
03FF
03FF
03FF
03FF
03FF
03FF
03FF
03FF
03FF
03FF
03FF
03FF
03FF
03FF
03FF
03FF
03FF
03FF
03FF
03FF
03FF
03FF
03FF
03FF
03FF
03FF
03FF
03FF
03FF
03FF
03FF
03FF
03FF
03FF
03FF
03FF
03FF
03FF
03FF
ENDCHAR
STARTCHAR 00CD
ENCODING 205
SWIDTH 400 0
DWIDTH 18 0
BBX 16 76 4 0
BITMAP
0FFF
0FFF
0FF0
0FF0
3FC0
3FC0
FF00
FF00
FC00
FC00
0000
0000
FFC0
FFC0
FFC0
FFC0
FFC0
FFC0
FFC0
FFC0
FFC0
FFC0
FFC0
FFC0
FFC0
FFC0
FFC0
FFC0
FFC0
FFC0
FFC0
FFC0
FFC0
FFC0
FFC0
FFC0
FFC0
FFC0
FFC0
FFC0
FFC0
FFC0
FFC0
FFC0
FFC0
FFC0
FFC0
FFC0
FFC0
FFC0
FFC0
FFC0
FFC0
FFC0
FFC0
FFC0
FFC0
FFC0
FFC0
FFC0
FFC0
FFC0
FFC0
FFC0
FFC0
FFC0
FFC0
FFC0
FFC0
FFC0
FFC0
FFC0
FFC0
FFC0
FFC0
FFC0
ENDCHAR
STARTCHAR 00CE
ENCODING 206
SWIDTH 400 0
DWIDTH 18 0
BBX 26 76 -4 0
BITMAP
00FFC000
00FFC000
03FFF000
03FFF000
0FFFFC00
0FFFFC00
3FC3FF00
3FC3FF00
FF00FFC0
FF00FFC0
00000000
00000000
00FFC000
00FFC000
00FFC000
00FFC000
00FFC000
00FFC000
00FFC000
00FFC000
00FFC000
00FFC000
00FFC000
00FFC000
00FFC000
00FFC000
00FFC000
00FFC000
00FFC000
00FFC000
00FFC000
00FFC000
00FFC000
00FFC000
00FFC000
00FFC000
00FFC000
00FFC000
00FFC000
00FFC000
00FFC000
00FFC000
00FFC000
00FFC000
00FFC000
00FFC000
00FFC000
00FFC000
00FFC000
00FFC000
00FFC000
00FFC000
00FFC000
00FFC000
00FFC000
00FFC000
00FFC000
00FFC000
00FFC000
00FFC000
00FFC000
00FFC000
00FFC000
00FFC000
00FFC000
00FFC000
00FFC000
00FFC000
00FFC000
00FFC000
00FFC000
00FFC000
00FFC000
00FFC000
00FFC000
00FFC000
ENDCHAR
STARTCHAR 00CF
ENCODING 207
SWIDTH 400 0
DWIDTH 18 0
BBX 22 76 -2 0
BITMAP
FF03FC
FF03FC
FF03FC
FF03FC
FF03FC
FF03FC
FF03FC
FF03FC
FF03FC
FF03FC
000000
000000
03FF00
03FF00
03FF00
03FF00
03FF00
03FF00
03FF00
03FF00
03FF00
03FF00
03FF00
03FF00
03FF00
03FF00
03FF00
03FF00
03FF00
03FF00
03FF00
03FF00
03FF00
03FF00
03FF00
03FF00
03FF00
03FF00
03FF00
03FF00
03FF00
03FF00
03FF00
03FF00
03FF00
03FF00
03FF00
03FF00
03FF00
03FF00
03FF00
03FF00
03FF00
03FF00
03FF00
03FF00
03FF00
03FF00
03FF00
03FF00
03FF00
03FF00
03FF00
03FF00
03FF00
03FF00
03FF00
03FF00
03FF00
03FF00
03FF00
03FF00
03FF00
03FF00
03FF00
03FF00
ENDCHAR
STARTCHAR 00D0
ENCODING 208
SWIDTH 800 0
DWIDTH 36 0
BBX 34 64 0 0
BITMAP
0FFFFFC000
0FFFFFC000
0FFFFFFC00
0FFFFFFC00
0FFFFFFF00
0FFFFFFF00
0FFFFFFF00
0FFFFFFF00
0FFFFFFFC0
0FFFFFFFC0
0FFC00FFC0
0FFC00FFC0
0FFC00FFC0
0FFC00FFC0
0FFC00FFC0
0FFC00FFC0
0FFC00FFC0
0FFC00FFC0
0FFC00FFC0
0FFC00FFC0
0FFC00FFC0
0FFC00FFC0
0FFC00FFC0
0FFC00FFC0
0FFC00FFC0
0FFC00FFC0
0FFC00FFC0
0FFC00FFC0
FFFFF0FFC0
FFFFF0FFC0
FFFFF0FFC0
FFFFF0FFC0
FFFFF0FFC0
FFFFF0FFC0
FFFFF0FFC0
FFFFF0FFC0
FFFFF0FFC0
FFFFF0FFC0
0FFC00FFC0
0FFC00FFC0
0FFC00FFC0
0FFC00FFC0
0FFC00FFC0
0FFC00FFC0
0FFC00FFC0
0FFC00FFC0
0FFC00FFC0
0FFC00FFC0
0FFC00FFC0
0FFC00FFC0
0FFC00FFC0
0FFC00FFC0
0FFC00FFC0
0FFC00FFC0
0FFFFFFFC0
0FFFFFFFC0
0FFFFFFF00
0FFFFFFF00
0FFFFFFF00
0FFFFFFF00
0FFFFFFC00
0FFFFFFC00
0FFFFFC000
0FFFFFC000
ENDCHAR
STARTCHAR 00D1
ENCODING 209
SWIDTH 844 0
DWIDTH 38 0
BBX 30 76 4 0
BITMAP
03FF0300
03FF0300
0FFFFFF0
0FFFFFF0
0FFFFFC0
0FFFFFC0
0300FF00
0300FF00
00000000
00000000
00000000
00000000
FFF003FC
FFF003FC
FFF003FC
FFF003FC
FFFC03FC
FFFC03FC
FFFC03FC
FFFC03FC
FFFC03FC
FFFC03FC
FFFC03FC
FFFC03FC
FFFF03FC
FFFF03FC
FFFF03FC
FFFF03FC
FFFF03FC
FFFF03FC
FFFF03FC
FFFF03FC
FF3FC3FC
FF3FC3FC
FF3FC3FC
FF3FC3FC
FF3FC3FC
FF3FC3FC
FF3FF3FC
FF3FF3FC
FF0FF3FC
FF0FF3FC
FF0FF3FC
FF0FF3FC
FF0FF3FC
FF0FF3FC
FF0FFFFC
FF0FFFFC
FF03FFFC
FF03FFFC
FF03FFFC
FF03FFFC
FF03FFFC
FF03FFFC
FF00FFFC
FF00FFFC
FF00FFFC
FF00FFFC
FF00FFFC
FF00FFFC
FF00FFFC
FF00FFFC
FF003FFC
FF003FFC
FF003FFC
FF003FFC
FF003FFC
FF003FFC
FF003FFC
FF003FFC
FF000FFC
FF000FFC
FF000FFC
FF000FFC
FF000FFC
FF000FFC
ENDCHAR
STARTCHAR 00D2
ENCODING 210
SWIDTH 800 0
DWIDTH 36 0
BBX 30 78 2 0
BITMAP
0FFF0000
0FFF0000
03FF0000
03FF0000
003FC000
003FC000
000FF000
000FF000
0003FC00
0003FC00
00000000
00000000
00000000
00000000
003FFC00
003FFC00
03FFFFC0
03FFFFC0
0FFFFFF0
0FFFFFF0
3FFFFFF0
3FFFFFF0
3FFFFFFC
3FFFFFFC
3FF00FFC
3FF00FFC
FFC00FFC
FFC00FFC
FFC00FFC
FFC00FFC
FFC00FFC
FFC00FFC
FFC00FFC
FFC00FFC
FFC00FFC
FFC00FFC
FFC00FFC
FFC00FFC
FFC00FFC
FFC00FFC
FFC00FFC
FFC00FFC
FFC00FFC
FFC00FFC
FFC00FFC
FFC00FFC
FFC00FFC
FFC00FFC
FFC00FFC
FFC00FFC
FFC00FFC
FFC00FFC
FFC00FFC
FFC00FFC
FFC00FFC
FFC00FFC
FFC00FFC
FFC00FFC
FFC00FFC
FFC00FFC
FFC00FFC
FFC00FFC
FFC00FFC
FFC00FFC
FFC00FFC
FFC00FFC
3FF00FFC
3FF00FFC
3FFFFFFC
3FFFFFFC
3FFFFFF0
3FFFFFF0
0FFFFFF0
0FFFFFF0
03FFFFC0
03FFFFC0
003FFC00
003FFC00
ENDCHAR
STARTCHAR 00D3
ENCODING 211
SWIDTH 800 0
DWIDTH 36 0
BBX 30 78 2 0
BITMAP
0000FFC0
0000FFC0
0000FF00
0000FF00
0003FC00
0003FC00
000FF000
000FF000
003FC000
003FC000
00000000
00000000
00000000
00000000
003FFC00
003FFC00
03FFFFC0
03FFFFC0
0FFFFFF0
0FFFFFF0
3FFFFFF0
3FFFFFF0
3FFFFFFC
3FFFFFFC
3FF00FFC
3FF00FFC
FFC00FFC
FFC00FFC
FFC00FFC
FFC00FFC
FFC00FFC
FFC00FFC
FFC00FFC
FFC00FFC
FFC00FFC
FFC00FFC
FFC00FFC
FFC00FFC
FFC00FFC
FFC00FFC
FFC00FFC
FFC00FFC
FFC00FFC
FFC00FFC
FFC00FFC
FFC00FFC
FFC00FFC
FFC00FFC
FFC00FFC
FFC00FFC
FFC00FFC
FFC00FFC
FFC00FFC
FFC00FFC
FFC00FFC
FFC00FFC
FFC00FFC
FFC00FFC
FFC00FFC
FFC00FFC
FFC00FFC
FFC00FFC
FFC00FFC
FFC00FFC
FFC00FFC
FFC00FFC
3FF00FFC
3FF00FFC
3FFFFFFC
3FFFFFFC
3FFFFFF0
3FFFFFF0
0FFFFFF0
0FFFFFF0
03FFFFC0
03FFFFC0
003FFC00
003FFC00
ENDCHAR
STARTCHAR 00D4
ENCODING 212
SWIDTH 800 0
DWIDTH 36 0
BBX 30 78 2 0
BITMAP
000FF000
000FF000
003FFC00
003FFC00
00FFFF00
00FFFF00
03FC3FC0
03FC3FC0
0FF03FF0
0FF03FF0
00000000
00000000
00000000
00000000
003FFC00
003FFC00
03FFFFC0
03FFFFC0
0FFFFFF0
0FFFFFF0
3FFFFFF0
3FFFFFF0
3FFFFFFC
3FFFFFFC
3FF00FFC
3FF00FFC
FFC00FFC
FFC00FFC
FFC00FFC
FFC00FFC
FFC00FFC
FFC00FFC
FFC00FFC
FFC00FFC
FFC00FFC
FFC00FFC
FFC00FFC
FFC00FFC
FFC00FFC
FFC00FFC
FFC00FFC
FFC00FFC
FFC00FFC
FFC00FFC
FFC00FFC
FFC00FFC
FFC00FFC
FFC00FFC
FFC00FFC
FFC00FFC
FFC00FFC
FFC00FFC
FFC00FFC
FFC00FFC
FFC00FFC
FFC00FFC
FFC00FFC
FFC00FFC
FFC00FFC
FFC00FFC
FFC00FFC
FFC00FFC
FFC00FFC
FFC00FFC
FFC00FFC
FFC00FFC
3FF00FFC
3FF00FFC
3FFFFFFC
3FFFFFFC
3FFFFFF0
3FFFFFF0
0FFFFFF0
0FFFFFF0
03FFFFC0
03FFFFC0
003FFC00
003FFC00
ENDCHAR
STARTCHAR 00D5
ENCODING 213
SWIDTH 800 0
DWIDTH 36 0
BBX 30 76 2 0
BITMAP
00FF03C0
00FF03C0
0FFFFFF0
0FFFFFF0
0FFFFFC0
0FFFFFC0
03C0FF00
03C0FF00
00000000
00000000
00000000
00000000
003FFC00
003FFC00
03FFFFC0
03FFFFC0
0FFFFFF0
0FFFFFF0
3FFFFFF0
3FFFFFF0
3FFFFFFC
3FFFFFFC
3FF00FFC
3FF00FFC
FFC00FFC
FFC00FFC
FFC00FFC
FFC00FFC
FFC00FFC
FFC00FFC
FFC00FFC
FFC00FFC
FFC00FFC
FFC00FFC
FFC00FFC
FFC00FFC
FFC00FFC
FFC00FFC
FFC00FFC
FFC00FFC
FFC00FFC
FFC00FFC
FFC00FFC
FFC00FFC
FFC00FFC
FFC00FFC
FFC00FFC
FFC00FFC
FFC00FFC
FFC00FFC
FFC00FFC
FFC00FFC
FFC00FFC
FFC00FFC
FFC00FFC
FFC00FFC
FFC00FFC
FFC00FFC
FFC00FFC
FFC00FFC
FFC00FFC
FFC00FFC
FFC00FFC
FFC00FFC
3FF00FFC
3FF00FFC
3FFFFFFC
3FFFFFFC
3FFFFFF0
3FFFFFF0
0FFFFFF0
0FFFFFF0
03FFFFC0
03FFFFC0
003FFC00
003FFC00
ENDCHAR
STARTCHAR 00D6
ENCODING 214
SWIDTH 800 0
DWIDTH 36 0
BBX 30 76 2 0
BITMAP
0FFC3FC0
0FFC3FC0
0FFC3FC0
0FFC3FC0
0FFC3FC0
0FFC3FC0
0FFC3FC0
0FFC3FC0
0FFC3FC0
0FFC3FC0
00000000
00000000
003FFC00
003FFC00
03FFFFC0
03FFFFC0
0FFFFFF0
0FFFFFF0
3FFFFFF0
3FFFFFF0
3FFFFFFC
3FFFFFFC
3FF00FFC
3FF00FFC
FFC00FFC
FFC00FFC
FFC00FFC
FFC00FFC
FFC00FFC
FFC00FFC
FFC00FFC
FFC00FFC
FFC00FFC
FFC00FFC
FFC00FFC
FFC00FFC
FFC00FFC
FFC00FFC
FFC00FFC
FFC00FFC
FFC00FFC
FFC00FFC
FFC00FFC
FFC00FFC
FFC00FFC
FFC00FFC
FFC00FFC
FFC00FFC
FFC00FFC
FFC00FFC
FFC00FFC
FFC00FFC
FFC00FFC
FFC00FFC
FFC00FFC
FFC00FFC
FFC00FFC
FFC00FFC
FFC00FFC
FFC00FFC
FFC00FFC
FFC00FFC
FFC00FFC
FFC00FFC
3FF00FFC
3FF00FFC
3FFFFFFC
3FFFFFFC
3FFFFFF0
3FFFFFF0
0FFFFFF0
0FFFFFF0
03FFFFC0
03FFFFC0
003FFC00
003FFC00
ENDCHAR
STARTCHAR 00D7
ENCODING 215
SWIDTH 800 0
DWIDTH 36 0
BBX 28 28 4 18
BITMAP
0C000300
0C000300
3F000FC0
3F000FC0
FFC03FF0
FFC03FF0
3FF0FFC0
3FF0FFC0
0FFFFF00
0FFFFF00
03FFFC00
03FFFC00
00FFF000
00FFF000
00FFF000
00FFF000
03FFFC00
03FFFC00
0FFFFF00
0FFFFF00
3FF0FFC0
3FF0FFC0
FFC03FF0
FFC03FF0
FF000FF0
FF000FF0
3C0003C0
3C0003C0
ENDCHAR
STARTCHAR 00D8
ENCODING 216
SWIDTH 800 0
DWIDTH 36 0
BBX 30 68 2 -2
BITMAP
0000003C
0000003C
003FFC3C
003FFC3C
03FFFFF0
03FFFFF0
0FFFFFF0
0FFFFFF0
3FFFFFF0
3FFFFFF0
3FFFFFFC
3FFFFFFC
3FF00FFC
3FF00FFC
FFC00FFC
FFC00FFC
FFC00FFC
FFC00FFC
FFC00FFC
FFC00FFC
FFC03FFC
FFC03FFC
FFC03FFC
FFC03FFC
FFC03FFC
FFC03FFC
FFC0FFFC
FFC0FFFC
FFC0FFFC
FFC0FFFC
FFC3CFFC
FFC3CFFC
FFC3CFFC
FFC3CFFC
FFC3CFFC
FFC3CFFC
FFCF0FFC
FFCF0FFC
FFCF0FFC
FFCF0FFC
FFCF0FFC
FFCF0FFC
FFFC0FFC
FFFC0FFC
FFFC0FFC
FFFC0FFC
FFF00FFC
FFF00FFC
FFF00FFC
FFF00FFC
FFF00FFC
FFF00FFC
FFC00FFC
FFC00FFC
3FF00FFC
3FF00FFC
3FFFFFFC
3FFFFFFC
3FFFFFF0
3FFFFFF0
0FFFFFF0
0FFFFFF0
0FFFFFC0
0FFFFFC0
3C3FFC00
3C3FFC00
3C000000
3C000000
ENDCHAR
STARTCHAR 00D9
ENCODING 217
SWIDTH 800 0
DWIDTH 36 0
BBX 28 78 4 0
BITMAP
0FFC0000
0FFC0000
03FC0000
03FC0000
00FF0000
00FF0000
003FC000
003FC000
000FF000
000FF000
00000000
00000000
00000000
00000000
FFC00FF0
FFC00FF0
FFC00FF0
FFC00FF0
FFC00FF0
FFC00FF0
FFC00FF0
FFC00FF0
FFC00FF0
FFC00FF0
FFC00FF0
FFC00FF0
FFC00FF0
FFC00FF0
FFC00FF0
FFC00FF0
FFC00FF0
FFC00FF0
FFC00FF0
FFC00FF0
FFC00FF0
FFC00FF0
FFC00FF0
FFC00FF0
FFC00FF0
FFC00FF0
FFC00FF0
FFC00FF0
FFC00FF0
FFC00FF0
FFC00FF0
FFC00FF0
FFC00FF0
FFC00FF0
FFC00FF0
FFC00FF0
FFC00FF0
FFC00FF0
FFC00FF0
FFC00FF0
FFC00FF0
FFC00FF0
FFC00FF0
FFC00FF0
FFC00FF0
FFC00FF0
FFC00FF0
FFC00FF0
FFC00FF0
FFC00FF0
FFC00FF0
FFC00FF0
FFC03FF0
FFC03FF0
FFFFFFF0
FFFFFFF0
FFFFFFC0
FFFFFFC0
3FFFFFC0
3FFFFFC0
0FFFFF00
0FFFFF00
00FFF000
00FFF000
ENDCHAR
STARTCHAR 00DA
ENCODING 218
SWIDTH 800 0
DWIDTH 36 0
BBX 28 78 4 0
BITMAP
0003FF00
0003FF00
0003FC00
0003FC00
000FF000
000FF000
003FC000
003FC000
00FF0000
00FF0000
00000000
00000000
00000000
00000000
FFC00FF0
FFC00FF0
FFC00FF0
FFC00FF0
FFC00FF0
FFC00FF0
FFC00FF0
FFC00FF0
FFC00FF0
FFC00FF0
FFC00FF0
FFC00FF0
FFC00FF0
FFC00FF0
FFC00FF0
FFC00FF0
FFC00FF0
FFC00FF0
FFC00FF0
FFC00FF0
FFC00FF0
FFC00FF0
FFC00FF0
FFC00FF0
FFC00FF0
FFC00FF0
FFC00FF0
FFC00FF0
FFC00FF0
FFC00FF0
FFC00FF0
FFC00FF0
FFC00FF0
FFC00FF0
FFC00FF0
FFC00FF0
FFC00FF0
FFC00FF0
FFC00FF0
FFC00FF0
FFC00FF0
FFC00FF0
FFC00FF0
FFC00FF0
FFC00FF0
FFC00FF0
FFC00FF0
FFC00FF0
FFC00FF0
FFC00FF0
FFC00FF0
FFC00FF0
FFC03FF0
FFC03FF0
FFFFFFF0
FFFFFFF0
FFFFFFC0
FFFFFFC0
3FFFFFC0
3FFFFFC0
0FFFFF00
0FFFFF00
00FFF000
00FFF000
ENDCHAR
STARTCHAR 00DB
ENCODING 219
SWIDTH 800 0
DWIDTH 36 0
BBX 28 78 4 0
BITMAP
003FC000
003FC000
00FFF000
00FFF000
03FFFC00
03FFFC00
0FF0FF00
0FF0FF00
3FC03FC0
3FC03FC0
00000000
00000000
00000000
00000000
FFC00FF0
FFC00FF0
FFC00FF0
FFC00FF0
FFC00FF0
FFC00FF0
FFC00FF0
FFC00FF0
FFC00FF0
FFC00FF0
FFC00FF0
FFC00FF0
FFC00FF0
FFC00FF0
FFC00FF0
FFC00FF0
FFC00FF0
FFC00FF0
FFC00FF0
FFC00FF0
FFC00FF0
FFC00FF0
FFC00FF0
FFC00FF0
FFC00FF0
FFC00FF0
FFC00FF0
FFC00FF0
FFC00FF0
FFC00FF0
FFC00FF0
FFC00FF0
FFC00FF0
FFC00FF0
FFC00FF0
FFC00FF0
FFC00FF0
FFC00FF0
FFC00FF0
FFC00FF0
FFC00FF0
FFC00FF0
FFC00FF0
FFC00FF0
FFC00FF0
FFC00FF0
FFC00FF0
FFC00FF0
FFC00FF0
FFC00FF0
FFC00FF0
FFC00FF0
FFC03FF0
FFC03FF0
FFFFFFF0
FFFFFFF0
FFFFFFC0
FFFFFFC0
3FFFFFC0
3FFFFFC0
0FFFFF00
0FFFFF00
00FFF000
00FFF000
ENDCHAR
STARTCHAR 00DC
ENCODING 220
SWIDTH 800 0
DWIDTH 36 0
BBX 28 76 4 0
BITMAP
3FF0FFC0
3FF0FFC0
3FF0FFC0
3FF0FFC0
3FF0FFC0
3FF0FFC0
3FF0FFC0
3FF0FFC0
3FF0FFC0
3FF0FFC0
00000000
00000000
FFC00FF0
FFC00FF0
FFC00FF0
FFC00FF0
FFC00FF0
FFC00FF0
FFC00FF0
FFC00FF0
FFC00FF0
FFC00FF0
FFC00FF0
FFC00FF0
FFC00FF0
FFC00FF0
FFC00FF0
FFC00FF0
FFC00FF0
FFC00FF0
FFC00FF0
FFC00FF0
FFC00FF0
FFC00FF0
FFC00FF0
FFC00FF0
FFC00FF0
FFC00FF0
FFC00FF0
FFC00FF0
FFC00FF0
FFC00FF0
FFC00FF0
FFC00FF0
FFC00FF0
FFC00FF0
FFC00FF0
FFC00FF0
FFC00FF0
FFC00FF0
FFC00FF0
FFC00FF0
FFC00FF0
FFC00FF0
FFC00FF0
FFC00FF0
FFC00FF0
FFC00FF0
FFC00FF0
FFC00FF0
FFC00FF0
FFC00FF0
FFC00FF0
FFC00FF0
FFC03FF0
FFC03FF0
FFFFFFF0
FFFFFFF0
FFFFFFC0
FFFFFFC0
3FFFFFC0
3FFFFFC0
0FFFFF00
0FFFFF00
00FFF000
00FFF000
ENDCHAR
STARTCHAR 00DD
ENCODING 221
SWIDTH 800 0
DWIDTH 36 0
BBX 36 76 0 0
BITMAP
00003FF000
00003FF000
00003FC000
00003FC000
0000FF0000
0000FF0000
0003FC0000
0003FC0000
000FF00000
000FF00000
0000000000
0000000000
FFC0003FF0
FFC0003FF0
3FF0003FC0
3FF0003FC0
3FF000FFC0
3FF000FFC0
3FF000FFC0
3FF000FFC0
3FFC00FF00
3FFC00FF00
0FFC00FF00
0FFC00FF00
0FFC03FF00
0FFC03FF00
0FFC03FC00
0FFC03FC00
03FF03FC00
03FF03FC00
03FF0FFC00
03FF0FFC00
03FF0FFC00
03FF0FFC00
00FF0FF000
00FF0FF000
00FFCFF000
00FFCFF000
00FFFFF000
00FFFFF000
00FFFFC000
00FFFFC000
003FFFC000
003FFFC000
003FFFC000
003FFFC000
003FFFC000
003FFFC000
000FFF0000
000FFF0000
000FFF0000
000FFF0000
000FFF0000
000FFF0000
000FFC0000
000FFC0000
000FFC0000
000FFC0000
000FFC0000
000FFC0000
000FFC0000
000FFC0000
000FFC0000
000FFC0000
000FFC0000
000FFC0000
000FFC0000
000FFC0000
000FFC0000
000FFC0000
000FFC0000
000FFC0000
000FFC0000
000FFC0000
000FFC0000
000FFC0000
ENDCHAR
STARTCHAR 00DE
ENCODING 222
SWIDTH 754 0
DWIDTH 34 0
BBX 28 64 4 0
BITMAP
FFC00000
FFC00000
FFC00000
FFC00000
FFC00000
FFC00000
FFC00000
FFC00000
FFFFF000
FFFFF000
FFFFFF00
FFFFFF00
FFFFFFC0
FFFFFFC0
FFFFFFF0
FFFFFFF0
FFFFFFF0
FFFFFFF0
FFC03FF0
FFC03FF0
FFC03FF0
FFC03FF0
FFC00FF0
FFC00FF0
FFC00FF0
FFC00FF0
FFC00FF0
FFC00FF0
FFC00FF0
FFC00FF0
FFC00FF0
FFC00FF0
FFC03FF0
FFC03FF0
FFC03FF0
FFC03FF0
FFC03FF0
FFC03FF0
FFFFFFF0
FFFFFFF0
FFFFFFC0
FFFFFFC0
FFFFFFC0
FFFFFFC0
FFFFFC00
FFFFFC00
FFFC0000
FFFC0000
FFC00000
FFC00000
FFC00000
FFC00000
FFC00000
FFC00000
FFC00000
FFC00000
FFC00000
FFC00000
FFC00000
FFC00000
FFC00000
FFC00000
FFC00000
FFC00000
ENDCHAR
STARTCHAR 00DF
ENCODING 223
SWIDTH 1510 0
DWIDTH 68 0
BBX 64 64 2 0
BITMAP
00FFFC00003FFC00
00FFFC00003FFC00
03FFFF0003FFFFC0
03FFFF0003FFFFC0
0FFFFFC00FFFFFF0
0FFFFFC00FFFFFF0
3FFFFFF00FFFFFFC
3FFFFFF00FFFFFFC
3FFFFFF03FFFFFFC
3FFFFFF03FFFFFFC
FFF00FFC3FF00FFC
FFF00FFC3FF00FFC
FFC00FFC3FF003FC
FFC00FFC3FF003FC
FFC00FFC3FF003FF
FFC00FFC3FF003FF
FFC00FFC3FF003FF
FFC00FFC3FF003FF
FFC000003FF00000
FFC000003FF00000
FFF000003FFC0000
FFF000003FFC0000
3FFC00000FFC0000
3FFC00000FFC0000
3FFC00000FFF0000
3FFC00000FFF0000
0FFF000003FFC000
0FFF000003FFC000
0FFFC00003FFF000
0FFFC00003FFF000
03FFFC0000FFFC00
03FFFC0000FFFC00
00FFFF00003FFF00
00FFFF00003FFF00
003FFF00000FFFC0
003FFF00000FFFC0
0003FFC00003FFF0
0003FFC00003FFF0
0000FFF00000FFFC
0000FFF00000FFFC
0000FFF000003FFC
0000FFF000003FFC
00003FF000000FFC
00003FF000000FFC
FFC00FFC3FF00FFC
FFC00FFC3FF00FFC
FFC00FFC3FF003FF
FFC00FFC3FF003FF
FFC00FFC3FF003FF
FFC00FFC3FF003FF
FFC00FFC3FF003FF
FFC00FFC3FF003FF
FFC03FFC3FF00FFC
FFC03FFC3FF00FFC
FFFFFFF03FFFFFFC
FFFFFFF03FFFFFFC
3FFFFFF00FFFFFFC
3FFFFFF00FFFFFFC
0FFFFFC00FFFFFF0
0FFFFFC00FFFFFF0
0FFFFF0003FFFFC0
0FFFFF0003FFFFC0
00FFFC00003FFC00
00FFFC00003FFC00
ENDCHAR
STARTCHAR 00E0
ENCODING 224
SWIDTH 800 0
DWIDTH 36 0
BBX 36 76 0 0
BITMAP
00FFC00000
00FFC00000
003FF00000
003FF00000
000FFC0000
000FFC0000
0003FC0000
0003FC0000
0000FF0000
0000FF0000
0000000000
0000000000
003FFFC000
003FFFC000
003FFFC000
003FFFC000
003FFFC000
003FFFC000
003FFFC000
003FFFC000
003FFFC000
003FFFC000
003FFFF000
003FFFF000
00FFFFF000
00FFFFF000
00FFFFF000
00FFFFF000
00FFFFF000
00FFFFF000
00FF3FF000
00FF3FF000
00FF0FF000
00FF0FF000
00FF0FFC00
00FF0FFC00
00FF0FFC00
00FF0FFC00
03FF0FFC00
03FF0FFC00
03FF0FFC00
03FF0FFC00
03FC0FFC00
03FC0FFC00
03FC0FFC00
03FC0FFC00
03FC03FF00
03FC03FF00
03FC03FF00
03FC03FF00
0FFC03FF00
0FFC03FF00
0FFC03FF00
0FFC03FF00
0FFC03FF00
0FFC03FF00
0FFFFFFF00
0FFFFFFF00
0FFFFFFF00
0FFFFFFF00
0FFFFFFFC0
0FFFFFFFC0
0FFFFFFFC0
0FFFFFFFC0
3FFFFFFFC0
3FFFFFFFC0
3FF000FFC0
3FF000FFC0
3FF000FFC0
3FF000FFC0
3FC000FFC0
3FC000FFC0
3FC0003FF0
3FC0003FF0
FFC0003FF0
FFC0003FF0
ENDCHAR
STARTCHAR 00E1
ENCODING 225
SWIDTH 800 0
DWIDTH 36 0
BBX 36 76 0 0
BITMAP
00003FF000
00003FF000
00003FC000
00003FC000
0000FF0000
0000FF0000
0003FC0000
0003FC0000
0003F00000
0003F00000
0000000000
0000000000
003FFFC000
003FFFC000
003FFFC000
003FFFC000
003FFFC000
003FFFC000
003FFFC000
003FFFC000
003FFFC000
003FFFC000
003FFFF000
003FFFF000
00FFFFF000
00FFFFF000
00FFFFF000
00FFFFF000
00FFFFF000
00FFFFF000
00FF3FF000
00FF3FF000
00FF0FF000
00FF0FF000
00FF0FFC00
00FF0FFC00
00FF0FFC00
00FF0FFC00
03FF0FFC00
03FF0FFC00
03FF0FFC00
03FF0FFC00
03FC0FFC00
03FC0FFC00
03FC0FFC00
03FC0FFC00
03FC03FF00
03FC03FF00
03FC03FF00
03FC03FF00
0FFC03FF00
0FFC03FF00
0FFC03FF00
0FFC03FF00
0FFC03FF00
0FFC03FF00
0FFFFFFF00
0FFFFFFF00
0FFFFFFF00
0FFFFFFF00
0FFFFFFFC0
0FFFFFFFC0
0FFFFFFFC0
0FFFFFFFC0
3FFFFFFFC0
3FFFFFFFC0
3FF000FFC0
3FF000FFC0
3FF000FFC0
3FF000FFC0
3FC000FFC0
3FC000FFC0
3FC0003FF0
3FC0003FF0
FFC0003FF0
FFC0003FF0
ENDCHAR
STARTCHAR 00E2
ENCODING 226
SWIDTH 800 0
DWIDTH 36 0
BBX 36 76 0 0
BITMAP
000FFF0000
000FFF0000
000FFFC000
000FFFC000
003FFFF000
003FFFF000
00FF0FF000
00FF0FF000
03FC03FC00
03FC03FC00
0000000000
0000000000
003FFFC000
003FFFC000
003FFFC000
003FFFC000
003FFFC000
003FFFC000
003FFFC000
003FFFC000
003FFFC000
003FFFC000
003FFFF000
003FFFF000
00FFFFF000
00FFFFF000
00FFFFF000
00FFFFF000
00FFFFF000
00FFFFF000
00FF3FF000
00FF3FF000
00FF0FF000
00FF0FF000
00FF0FFC00
00FF0FFC00
00FF0FFC00
00FF0FFC00
03FF0FFC00
03FF0FFC00
03FF0FFC00
03FF0FFC00
03FC0FFC00
03FC0FFC00
03FC0FFC00
03FC0FFC00
03FC03FF00
03FC03FF00
03FC03FF00
03FC03FF00
0FFC03FF00
0FFC03FF00
0FFC03FF00
0FFC03FF00
0FFC03FF00
0FFC03FF00
0FFFFFFF00
0FFFFFFF00
0FFFFFFF00
0FFFFFFF00
0FFFFFFFC0
0FFFFFFFC0
0FFFFFFFC0
0FFFFFFFC0
3FFFFFFFC0
3FFFFFFFC0
3FF000FFC0
3FF000FFC0
3FF000FFC0
3FF000FFC0
3FC000FFC0
3FC000FFC0
3FC0003FF0
3FC0003FF0
FFC0003FF0
FFC0003FF0
ENDCHAR
STARTCHAR 00E3
ENCODING 227
SWIDTH 800 0
DWIDTH 36 0
BBX 36 76 0 0
BITMAP
003FC0F000
003FC0F000
00FFFFFC00
00FFFFFC00
03FFFFFC00
03FFFFFC00
00F03FC000
00F03FC000
0000000000
0000000000
0000000000
0000000000
003FFFC000
003FFFC000
003FFFC000
003FFFC000
003FFFC000
003FFFC000
003FFFC000
003FFFC000
003FFFC000
003FFFC000
003FFFF000
003FFFF000
00FFFFF000
00FFFFF000
00FFFFF000
00FFFFF000
00FFFFF000
00FFFFF000
00FF3FF000
00FF3FF000
00FF0FF000
00FF0FF000
00FF0FFC00
00FF0FFC00
00FF0FFC00
00FF0FFC00
03FF0FFC00
03FF0FFC00
03FF0FFC00
03FF0FFC00
03FC0FFC00
03FC0FFC00
03FC0FFC00
03FC0FFC00
03FC03FF00
03FC03FF00
03FC03FF00
03FC03FF00
0FFC03FF00
0FFC03FF00
0FFC03FF00
0FFC03FF00
0FFC03FF00
0FFC03FF00
0FFFFFFF00
0FFFFFFF00
0FFFFFFF00
0FFFFFFF00
0FFFFFFFC0
0FFFFFFFC0
0FFFFFFFC0
0FFFFFFFC0
3FFFFFFFC0
3FFFFFFFC0
3FF000FFC0
3FF000FFC0
3FF000FFC0
3FF000FFC0
3FC000FFC0
3FC000FFC0
3FC0003FF0
3FC0003FF0
FFC0003FF0
FFC0003FF0
ENDCHAR
STARTCHAR 00E4
ENCODING 228
SWIDTH 800 0
DWIDTH 36 0
BBX 36 76 0 0
BITMAP
00FF0FFC00
00FF0FFC00
00FF0FFC00
00FF0FFC00
00FF0FFC00
00FF0FFC00
00FF0FFC00
00FF0FFC00
00FF0FFC00
00FF0FFC00
0000000000
0000000000
003FFFC000
003FFFC000
003FFFC000
003FFFC000
003FFFC000
003FFFC000
003FFFC000
003FFFC000
003FFFC000
003FFFC000
003FFFF000
003FFFF000
00FFFFF000
00FFFFF000
00FFFFF000
00FFFFF000
00FFFFF000
00FFFFF000
00FF3FF000
00FF3FF000
00FF0FF000
00FF0FF000
00FF0FFC00
00FF0FFC00
00FF0FFC00
00FF0FFC00
03FF0FFC00
03FF0FFC00
03FF0FFC00
03FF0FFC00
03FC0FFC00
03FC0FFC00
03FC0FFC00
03FC0FFC00
03FC03FF00
03FC03FF00
03FC03FF00
03FC03FF00
0FFC03FF00
0FFC03FF00
0FFC03FF00
0FFC03FF00
0FFC03FF00
0FFC03FF00
0FFFFFFF00
0FFFFFFF00
0FFFFFFF00
0FFFFFFF00
0FFFFFFFC0
0FFFFFFFC0
0FFFFFFFC0
0FFFFFFFC0
3FFFFFFFC0
3FFFFFFFC0
3FF000FFC0
3FF000FFC0
3FF000FFC0
3FF000FFC0
3FC000FFC0
3FC000FFC0
3FC0003FF0
3FC0003FF0
FFC0003FF0
FFC0003FF0
ENDCHAR
STARTCHAR 00E5
ENCODING 229
SWIDTH 800 0
DWIDTH 36 0
BBX 36 80 0 0
BITMAP
0003FC0000
0003FC0000
000FFF0000
000FFF0000
000F0FC000
000F0FC000
000F0FC000
000F0FC000
000F0FC000
000F0FC000
000FFF0000
000FFF0000
0003FC0000
0003FC0000
0000000000
0000000000
003FFFC000
003FFFC000
003FFFC000
003FFFC000
003FFFC000
003FFFC000
003FFFC000
003FFFC000
003FFFC000
003FFFC000
003FFFF000
003FFFF000
00FFFFF000
00FFFFF000
00FFFFF000
00FFFFF000
00FFFFF000
00FFFFF000
00FF3FF000
00FF3FF000
00FF0FF000
00FF0FF000
00FF0FFC00
00FF0FFC00
00FF0FFC00
00FF0FFC00
03FF0FFC00
03FF0FFC00
03FF0FFC00
03FF0FFC00
03FC0FFC00
03FC0FFC00
03FC0FFC00
03FC0FFC00
03FC03FF00
03FC03FF00
03FC03FF00
03FC03FF00
0FFC03FF00
0FFC03FF00
0FFC03FF00
0FFC03FF00
0FFC03FF00
0FFC03FF00
0FFFFFFF00
0FFFFFFF00
0FFFFFFF00
0FFFFFFF00
0FFFFFFFC0
0FFFFFFFC0
0FFFFFFFC0
0FFFFFFFC0
3FFFFFFFC0
3FFFFFFFC0
3FF000FFC0
3FF000FFC0
3FF000FFC0
3FF000FFC0
3FC000FFC0
3FC000FFC0
3FC0003FF0
3FC0003FF0
FFC0003FF0
FFC0003FF0
ENDCHAR
STARTCHAR 00E6
ENCODING 230
SWIDTH 1154 0
DWIDTH 52 0
BBX 50 64 0 0
BITMAP
0000FFFFFFFFC0
0000FFFFFFFFC0
0000FFFFFFFFC0
0000FFFFFFFFC0
0000FFFFFFFFC0
0000FFFFFFFFC0
0000FFFFFFFFC0
0000FFFFFFFFC0
0003FFFFFFFFC0
0003FFFFFFFFC0
0003FFFF000000
0003FFFF000000
0003FFFF000000
0003FFFF000000
0003FFFF000000
0003FFFF000000
000FFFFF000000
000FFFFF000000
000FFFFF000000
000FFFFF000000
000FF3FF000000
000FF3FF000000
000FF3FF000000
000FF3FF000000
003FF3FF000000
003FF3FF000000
003FF3FFFFFC00
003FF3FFFFFC00
003FC3FFFFFC00
003FC3FFFFFC00
003FC3FFFFFC00
003FC3FFFFFC00
00FFC3FFFFFC00
00FFC3FFFFFC00
00FFC3FFFFFC00
00FFC3FFFFFC00
00FF03FF000000
00FF03FF000000
03FF03FF000000
03FF03FF000000
03FF03FF000000
03FF03FF000000
03FF03FF000000
03FF03FF000000
03FFFFFF000000
03FFFFFF000000
0FFFFFFF000000
0FFFFFFF000000
0FFFFFFF000000
0FFFFFFF000000
0FFFFFFF000000
0FFFFFFF000000
0FFFFFFF000000
0FFFFFFF000000
3FF003FFFFFFC0
3FF003FFFFFFC0
3FF003FFFFFFC0
3FF003FFFFFFC0
3FF003FFFFFFC0
3FF003FFFFFFC0
3FC003FFFFFFC0
3FC003FFFFFFC0
FFC003FFFFFFC0
FFC003FFFFFFC0
ENDCHAR
STARTCHAR 00E7
ENCODING 231
SWIDTH 754 0
DWIDTH 34 0
BBX 30 78 2 -14
BITMAP
003FFC00
003FFC00
03FFFFC0
03FFFFC0
0FFFFFF0
0FFFFFF0
3FFFFFF0
3FFFFFF0
3FFFFFFC
3FFFFFFC
3FF00FFC
3FF00FFC
FFC00FFC
FFC00FFC
FFC00FFC
FFC00FFC
FFC00FFC
FFC00FFC
FFC00FFC
FFC00FFC
FFC00FFC
FFC00FFC
FFC00000
FFC00000
FFC00000
FFC00000
FFC00000
FFC00000
FFC00000
FFC00000
FFC00000
FFC00000
FFC00000
FFC00000
FFC00000
FFC00000
FFC00000
FFC00000
FFC00000
FFC00000
FFC00FFC
FFC00FFC
FFC00FFC
FFC00FFC
FFC00FFC
FFC00FFC
FFC00FFC
FFC00FFC
FFC00FFC
FFC00FFC
FFC00FFC
FFC00FFC
FFF00FFC
FFF00FFC
3FF00FFC
3FF00FFC
3FFFFFFC
3FFFFFFC
3FFFFFF0
3FFFFFF0
0FFFFFC0
0FFFFFC0
03FFFF00
03FFFF00
000FF000
000FF000
0003C000
0003C000
0003FC00
0003FC00
0000FF00
0000FF00
03FC3F00
03FC3F00
00FFFF00
00FFFF00
003FF000
003FF000
ENDCHAR
STARTCHAR 00E8
ENCODING 232
SWIDTH 754 0
DWIDTH 34 0
BBX 26 76 4 0
BITMAP
3FF00000
3FF00000
03FC0000
03FC0000
00FF0000
00FF0000
003FC000
003FC000
000FC000
000FC000
00000000
00000000
FFFFFFC0
FFFFFFC0
FFFFFFC0
FFFFFFC0
FFFFFFC0
FFFFFFC0
FFFFFFC0
FFFFFFC0
FFFFFFC0
FFFFFFC0
FFC00000
FFC00000
FFC00000
FFC00000
FFC00000
FFC00000
FFC00000
FFC00000
FFC00000
FFC00000
FFC00000
FFC00000
FFC00000
FFC00000
FFC00000
FFC00000
FFFFFF00
FFFFFF00
FFFFFF00
FFFFFF00
FFFFFF00
FFFFFF00
FFFFFF00
FFFFFF00
FFFFFF00
FFFFFF00
FFC00000
FFC00000
FFC00000
FFC00000
FFC00000
FFC00000
FFC00000
FFC00000
FFC00000
FFC00000
FFC00000
FFC00000
FFC00000
FFC00000
FFC00000
FFC00000
FFC00000
FFC00000
FFFFFFC0
FFFFFFC0
FFFFFFC0
FFFFFFC0
FFFFFFC0
FFFFFFC0
FFFFFFC0
FFFFFFC0
FFFFFFC0
FFFFFFC0
ENDCHAR
STARTCHAR 00E9
ENCODING 233
SWIDTH 754 0
DWIDTH 34 0
BBX 26 76 4 0
BITMAP
0003FF00
0003FF00
000FF000
000FF000
003FC000
003FC000
003F0000
003F0000
00FC0000
00FC0000
00000000
00000000
FFFFFFC0
FFFFFFC0
FFFFFFC0
FFFFFFC0
FFFFFFC0
FFFFFFC0
FFFFFFC0
FFFFFFC0
FFFFFFC0
FFFFFFC0
FFC00000
FFC00000
FFC00000
FFC00000
FFC00000
FFC00000
FFC00000
FFC00000
FFC00000
FFC00000
FFC00000
FFC00000
FFC00000
FFC00000
FFC00000
FFC00000
FFFFFF00
FFFFFF00
FFFFFF00
FFFFFF00
FFFFFF00
FFFFFF00
FFFFFF00
FFFFFF00
FFFFFF00
FFFFFF00
FFC00000
FFC00000
FFC00000
FFC00000
FFC00000
FFC00000
FFC00000
FFC00000
FFC00000
FFC00000
FFC00000
FFC00000
FFC00000
FFC00000
FFC00000
FFC00000
FFC00000
FFC00000
FFFFFFC0
FFFFFFC0
FFFFFFC0
FFFFFFC0
FFFFFFC0
FFFFFFC0
FFFFFFC0
FFFFFFC0
FFFFFFC0
FFFFFFC0
ENDCHAR
STARTCHAR 00EA
ENCODING 234
SWIDTH 754 0
DWIDTH 34 0
BBX 26 76 4 0
BITMAP
00FFC000
00FFC000
03FFF000
03FFF000
0FF3FC00
0FF3FC00
3FC0FF00
3FC0FF00
FFC0FFC0
FFC0FFC0
00000000
00000000
FFFFFFC0
FFFFFFC0
FFFFFFC0
FFFFFFC0
FFFFFFC0
FFFFFFC0
FFFFFFC0
FFFFFFC0
FFFFFFC0
FFFFFFC0
FFC00000
FFC00000
FFC00000
FFC00000
FFC00000
FFC00000
FFC00000
FFC00000
FFC00000
FFC00000
FFC00000
FFC00000
FFC00000
FFC00000
FFC00000
FFC00000
FFFFFF00
FFFFFF00
FFFFFF00
FFFFFF00
FFFFFF00
FFFFFF00
FFFFFF00
FFFFFF00
FFFFFF00
FFFFFF00
FFC00000
FFC00000
FFC00000
FFC00000
FFC00000
FFC00000
FFC00000
FFC00000
FFC00000
FFC00000
FFC00000
FFC00000
FFC00000
FFC00000
FFC00000
FFC00000
FFC00000
FFC00000
FFFFFFC0
FFFFFFC0
FFFFFFC0
FFFFFFC0
FFFFFFC0
FFFFFFC0
FFFFFFC0
FFFFFFC0
FFFFFFC0
FFFFFFC0
ENDCHAR
STARTCHAR 00EB
ENCODING 235
SWIDTH 754 0
DWIDTH 34 0
BBX 26 76 4 0
BITMAP
3FC0FF00
3FC0FF00
3FC0FF00
3FC0FF00
3FC0FF00
3FC0FF00
3FC0FF00
3FC0FF00
3FC0FF00
3FC0FF00
00000000
00000000
FFFFFFC0
FFFFFFC0
FFFFFFC0
FFFFFFC0
FFFFFFC0
FFFFFFC0
FFFFFFC0
FFFFFFC0
FFFFFFC0
FFFFFFC0
FFC00000
FFC00000
FFC00000
FFC00000
FFC00000
FFC00000
FFC00000
FFC00000
FFC00000
FFC00000
FFC00000
FFC00000
FFC00000
FFC00000
FFC00000
FFC00000
FFFFFF00
FFFFFF00
FFFFFF00
FFFFFF00
FFFFFF00
FFFFFF00
FFFFFF00
FFFFFF00
FFFFFF00
FFFFFF00
FFC00000
FFC00000
FFC00000
FFC00000
FFC00000
FFC00000
FFC00000
FFC00000
FFC00000
FFC00000
FFC00000
FFC00000
FFC00000
FFC00000
FFC00000
FFC00000
FFC00000
FFC00000
FFFFFFC0
FFFFFFC0
FFFFFFC0
FFFFFFC0
FFFFFFC0
FFFFFFC0
FFFFFFC0
FFFFFFC0
FFFFFFC0
FFFFFFC0
ENDCHAR
STARTCHAR 00EC
ENCODING 236
SWIDTH 400 0
DWIDTH 18 0
BBX 16 76 -2 0
BITMAP
FFC0
FFC0
3FF0
3FF0
0FFC
0FFC
03FC
03FC
00FF
00FF
0000
0000
03FF
03FF
03FF
03FF
03FF
03FF
03FF
03FF
03FF
03FF
03FF
03FF
03FF
03FF
03FF
03FF
03FF
03FF
03FF
03FF
03FF
03FF
03FF
03FF
03FF
03FF
03FF
03FF
03FF
03FF
03FF
03FF
03FF
03FF
03FF
03FF
03FF
03FF
03FF
03FF
03FF
03FF
03FF
03FF
03FF
03FF
03FF
03FF
03FF
03FF
03FF
03FF
03FF
03FF
03FF
03FF
03FF
03FF
03FF
03FF
03FF
03FF
03FF
03FF
ENDCHAR
STARTCHAR 00ED
ENCODING 237
SWIDTH 400 0
DWIDTH 18 0
BBX 16 76 4 0
BITMAP
0FFF
0FFF
0FF0
0FF0
3FC0
3FC0
FF00
FF00
FC00
FC00
0000
0000
FFC0
FFC0
FFC0
FFC0
FFC0
FFC0
FFC0
FFC0
FFC0
FFC0
FFC0
FFC0
FFC0
FFC0
FFC0
FFC0
FFC0
FFC0
FFC0
FFC0
FFC0
FFC0
FFC0
FFC0
FFC0
FFC0
FFC0
FFC0
FFC0
FFC0
FFC0
FFC0
FFC0
FFC0
FFC0
FFC0
FFC0
FFC0
FFC0
FFC0
FFC0
FFC0
FFC0
FFC0
FFC0
FFC0
FFC0
FFC0
FFC0
FFC0
FFC0
FFC0
FFC0
FFC0
FFC0
FFC0
FFC0
FFC0
FFC0
FFC0
FFC0
FFC0
FFC0
FFC0
ENDCHAR
STARTCHAR 00EE
ENCODING 238
SWIDTH 400 0
DWIDTH 18 0
BBX 26 76 -4 0
BITMAP
00FFC000
00FFC000
03FFF000
03FFF000
0FFFFC00
0FFFFC00
3FC3FF00
3FC3FF00
FF00FFC0
FF00FFC0
00000000
00000000
00FFC000
00FFC000
00FFC000
00FFC000
00FFC000
00FFC000
00FFC000
00FFC000
00FFC000
00FFC000
00FFC000
00FFC000
00FFC000
00FFC000
00FFC000
00FFC000
00FFC000
00FFC000
00FFC000
00FFC000
00FFC000
00FFC000
00FFC000
00FFC000
00FFC000
00FFC000
00FFC000
00FFC000
00FFC000
00FFC000
00FFC000
00FFC000
00FFC000
00FFC000
00FFC000
00FFC000
00FFC000
00FFC000
00FFC000
00FFC000
00FFC000
00FFC000
00FFC000
00FFC000
00FFC000
00FFC000
00FFC000
00FFC000
00FFC000
00FFC000
00FFC000
00FFC000
00FFC000
00FFC000
00FFC000
00FFC000
00FFC000
00FFC000
00FFC000
00FFC000
00FFC000
00FFC000
00FFC000
00FFC000
ENDCHAR
STARTCHAR 00EF
ENCODING 239
SWIDTH 400 0
DWIDTH 18 0
BBX 22 76 -2 0
BITMAP
FF03FC
FF03FC
FF03FC
FF03FC
FF03FC
FF03FC
FF03FC
FF03FC
FF03FC
FF03FC
000000
000000
03FF00
03FF00
03FF00
03FF00
03FF00
03FF00
03FF00
03FF00
03FF00
03FF00
03FF00
03FF00
03FF00
03FF00
03FF00
03FF00
03FF00
03FF00
03FF00
03FF00
03FF00
03FF00
03FF00
03FF00
03FF00
03FF00
03FF00
03FF00
03FF00
03FF00
03FF00
03FF00
03FF00
03FF00
03FF00
03FF00
03FF00
03FF00
03FF00
03FF00
03FF00
03FF00
03FF00
03FF00
03FF00
03FF00
03FF00
03FF00
03FF00
03FF00
03FF00
03FF00
03FF00
03FF00
03FF00
03FF00
03FF00
03FF00
03FF00
03FF00
03FF00
03FF00
03FF00
03FF00
ENDCHAR
STARTCHAR 00F0
ENCODING 240
SWIDTH 800 0
DWIDTH 36 0
BBX 34 64 0 0
BITMAP
0FFFFFC000
0FFFFFC000
0FFFFFFC00
0FFFFFFC00
0FFFFFFF00
0FFFFFFF00
0FFFFFFF00
0FFFFFFF00
0FFFFFFFC0
0FFFFFFFC0
0FFC00FFC0
0FFC00FFC0
0FFC00FFC0
0FFC00FFC0
0FFC00FFC0
0FFC00FFC0
0FFC00FFC0
0FFC00FFC0
0FFC00FFC0
0FFC00FFC0
0FFC00FFC0
0FFC00FFC0
0FFC00FFC0
0FFC00FFC0
0FFC00FFC0
0FFC00FFC0
0FFC00FFC0
0FFC00FFC0
FFFFF0FFC0
FFFFF0FFC0
FFFFF0FFC0
FFFFF0FFC0
FFFFF0FFC0
FFFFF0FFC0
FFFFF0FFC0
FFFFF0FFC0
FFFFF0FFC0
FFFFF0FFC0
0FFC00FFC0
0FFC00FFC0
0FFC00FFC0
0FFC00FFC0
0FFC00FFC0
0FFC00FFC0
0FFC00FFC0
0FFC00FFC0
0FFC00FFC0
0FFC00FFC0
0FFC00FFC0
0FFC00FFC0
0FFC00FFC0
0FFC00FFC0
0FFC00FFC0
0FFC00FFC0
0FFFFFFFC0
0FFFFFFFC0
0FFFFFFF00
0FFFFFFF00
0FFFFFFF00
0FFFFFFF00
0FFFFFFC00
0FFFFFFC00
0FFFFFC000
0FFFFFC000
ENDCHAR
STARTCHAR 00F1
ENCODING 241
SWIDTH 844 0
DWIDTH 38 0
BBX 30 76 4 0
BITMAP
03FF0300
03FF0300
0FFFFFF0
0FFFFFF0
0FFFFFC0
0FFFFFC0
0300FF00
0300FF00
00000000
00000000
00000000
00000000
FFF003FC
FFF003FC
FFF003FC
FFF003FC
FFFC03FC
FFFC03FC
FFFC03FC
FFFC03FC
FFFC03FC
FFFC03FC
FFFC03FC
FFFC03FC
FFFF03FC
FFFF03FC
FFFF03FC
FFFF03FC
FFFF03FC
FFFF03FC
FFFF03FC
FFFF03FC
FF3FC3FC
FF3FC3FC
FF3FC3FC
FF3FC3FC
FF3FC3FC
FF3FC3FC
FF3FF3FC
FF3FF3FC
FF0FF3FC
FF0FF3FC
FF0FF3FC
FF0FF3FC
FF0FF3FC
FF0FF3FC
FF0FFFFC
FF0FFFFC
FF03FFFC
FF03FFFC
FF03FFFC
FF03FFFC
FF03FFFC
FF03FFFC
FF00FFFC
FF00FFFC
FF00FFFC
FF00FFFC
FF00FFFC
FF00FFFC
FF00FFFC
FF00FFFC
FF003FFC
FF003FFC
FF003FFC
FF003FFC
FF003FFC
FF003FFC
FF003FFC
FF003FFC
FF000FFC
FF000FFC
FF000FFC
FF000FFC
FF000FFC
FF000FFC
ENDCHAR
STARTCHAR 00F2
ENCODING 242
SWIDTH 800 0
DWIDTH 36 0
BBX 30 78 2 0
BITMAP
0FFF0000
0FFF0000
03FF0000
03FF0000
003FC000
003FC000
000FF000
000FF000
0003FC00
0003FC00
00000000
00000000
00000000
00000000
003FFC00
003FFC00
03FFFFC0
03FFFFC0
0FFFFFF0
0FFFFFF0
3FFFFFF0
3FFFFFF0
3FFFFFFC
3FFFFFFC
3FF00FFC
3FF00FFC
FFC00FFC
FFC00FFC
FFC00FFC
FFC00FFC
FFC00FFC
FFC00FFC
FFC00FFC
FFC00FFC
FFC00FFC
FFC00FFC
FFC00FFC
FFC00FFC
FFC00FFC
FFC00FFC
FFC00FFC
FFC00FFC
FFC00FFC
FFC00FFC
FFC00FFC
FFC00FFC
FFC00FFC
FFC00FFC
FFC00FFC
FFC00FFC
FFC00FFC
FFC00FFC
FFC00FFC
FFC00FFC
FFC00FFC
FFC00FFC
FFC00FFC
FFC00FFC
FFC00FFC
FFC00FFC
FFC00FFC
FFC00FFC
FFC00FFC
FFC00FFC
FFC00FFC
FFC00FFC
3FF00FFC
3FF00FFC
3FFFFFFC
3FFFFFFC
3FFFFFF0
3FFFFFF0
0FFFFFF0
0FFFFFF0
03FFFFC0
03FFFFC0
003FFC00
003FFC00
ENDCHAR
STARTCHAR 00F3
ENCODING 243
SWIDTH 800 0
DWIDTH 36 0
BBX 30 78 2 0
BITMAP
0000FFC0
0000FFC0
0000FF00
0000FF00
0003FC00
0003FC00
000FF000
000FF000
003FC000
003FC000
00000000
00000000
00000000
00000000
003FFC00
003FFC00
03FFFFC0
03FFFFC0
0FFFFFF0
0FFFFFF0
3FFFFFF0
3FFFFFF0
3FFFFFFC
3FFFFFFC
3FF00FFC
3FF00FFC
FFC00FFC
FFC00FFC
FFC00FFC
FFC00FFC
FFC00FFC
FFC00FFC
FFC00FFC
FFC00FFC
FFC00FFC
FFC00FFC
FFC00FFC
FFC00FFC
FFC00FFC
FFC00FFC
FFC00FFC
FFC00FFC
FFC00FFC
FFC00FFC
FFC00FFC
FFC00FFC
FFC00FFC
FFC00FFC
FFC00FFC
FFC00FFC
FFC00FFC
FFC00FFC
FFC00FFC
FFC00FFC
FFC00FFC
FFC00FFC
FFC00FFC
FFC00FFC
FFC00FFC
FFC00FFC
FFC00FFC
FFC00FFC
FFC00FFC
FFC00FFC
FFC00FFC
FFC00FFC
3FF00FFC
3FF00FFC
3FFFFFFC
3FFFFFFC
3FFFFFF0
3FFFFFF0
0FFFFFF0
0FFFFFF0
03FFFFC0
03FFFFC0
003FFC00
003FFC00
ENDCHAR
STARTCHAR 00F4
ENCODING 244
SWIDTH 800 0
DWIDTH 36 0
BBX 30 78 2 0
BITMAP
000FF000
000FF000
003FFC00
003FFC00
00FFFF00
00FFFF00
03FC3FC0
03FC3FC0
0FF03FF0
0FF03FF0
00000000
00000000
00000000
00000000
003FFC00
003FFC00
03FFFFC0
03FFFFC0
0FFFFFF0
0FFFFFF0
3FFFFFF0
3FFFFFF0
3FFFFFFC
3FFFFFFC
3FF00FFC
3FF00FFC
FFC00FFC
FFC00FFC
FFC00FFC
FFC00FFC
FFC00FFC
FFC00FFC
FFC00FFC
FFC00FFC
FFC00FFC
FFC00FFC
FFC00FFC
FFC00FFC
FFC00FFC
FFC00FFC
FFC00FFC
FFC00FFC
FFC00FFC
FFC00FFC
FFC00FFC
FFC00FFC
FFC00FFC
FFC00FFC
FFC00FFC
FFC00FFC
FFC00FFC
FFC00FFC
FFC00FFC
FFC00FFC
FFC00FFC
FFC00FFC
FFC00FFC
FFC00FFC
FFC00FFC
FFC00FFC
FFC00FFC
FFC00FFC
FFC00FFC
FFC00FFC
FFC00FFC
FFC00FFC
3FF00FFC
3FF00FFC
3FFFFFFC
3FFFFFFC
3FFFFFF0
3FFFFFF0
0FFFFFF0
0FFFFFF0
03FFFFC0
03FFFFC0
003FFC00
003FFC00
ENDCHAR
STARTCHAR 00F5
ENCODING 245
SWIDTH 800 0
DWIDTH 36 0
BBX 30 76 2 0
BITMAP
00FF03C0
00FF03C0
0FFFFFF0
0FFFFFF0
0FFFFFC0
0FFFFFC0
03C0FF00
03C0FF00
00000000
00000000
00000000
00000000
003FFC00
003FFC00
03FFFFC0
03FFFFC0
0FFFFFF0
0FFFFFF0
3FFFFFF0
3FFFFFF0
3FFFFFFC
3FFFFFFC
3FF00FFC
3FF00FFC
FFC00FFC
FFC00FFC
FFC00FFC
FFC00FFC
FFC00FFC
FFC00FFC
FFC00FFC
FFC00FFC
FFC00FFC
FFC00FFC
FFC00FFC
FFC00FFC
FFC00FFC
FFC00FFC
FFC00FFC
FFC00FFC
FFC00FFC
FFC00FFC
FFC00FFC
FFC00FFC
FFC00FFC
FFC00FFC
FFC00FFC
FFC00FFC
FFC00FFC
FFC00FFC
FFC00FFC
FFC00FFC
FFC00FFC
FFC00FFC
FFC00FFC
FFC00FFC
FFC00FFC
FFC00FFC
FFC00FFC
FFC00FFC
FFC00FFC
FFC00FFC
FFC00FFC
FFC00FFC
3FF00FFC
3FF00FFC
3FFFFFFC
3FFFFFFC
3FFFFFF0
3FFFFFF0
0FFFFFF0
0FFFFFF0
03FFFFC0
03FFFFC0
003FFC00
003FFC00
ENDCHAR
STARTCHAR 00F6
ENCODING 246
SWIDTH 800 0
DWIDTH 36 0
BBX 30 76 2 0
BITMAP
0FFC3FC0
0FFC3FC0
0FFC3FC0
0FFC3FC0
0FFC3FC0
0FFC3FC0
0FFC3FC0
0FFC3FC0
0FFC3FC0
0FFC3FC0
00000000
00000000
003FFC00
003FFC00
03FFFFC0
03FFFFC0
0FFFFFF0
0FFFFFF0
3FFFFFF0
3FFFFFF0
3FFFFFFC
3FFFFFFC
3FF00FFC
3FF00FFC
FFC00FFC
FFC00FFC
FFC00FFC
FFC00FFC
FFC00FFC
FFC00FFC
FFC00FFC
FFC00FFC
FFC00FFC
FFC00FFC
FFC00FFC
FFC00FFC
FFC00FFC
FFC00FFC
FFC00FFC
FFC00FFC
FFC00FFC
FFC00FFC
FFC00FFC
FFC00FFC
FFC00FFC
FFC00FFC
FFC00FFC
FFC00FFC
FFC00FFC
FFC00FFC
FFC00FFC
FFC00FFC
FFC00FFC
FFC00FFC
FFC00FFC
FFC00FFC
FFC00FFC
FFC00FFC
FFC00FFC
FFC00FFC
FFC00FFC
FFC00FFC
FFC00FFC
FFC00FFC
3FF00FFC
3FF00FFC
3FFFFFFC
3FFFFFFC
3FFFFFF0
3FFFFFF0
0FFFFFF0
0FFFFFF0
03FFFFC0
03FFFFC0
003FFC00
003FFC00
ENDCHAR
STARTCHAR 00F7
ENCODING 247
SWIDTH 800 0
DWIDTH 36 0
BBX 32 38 2 14
BITMAP
000FF000
000FF000
000FF000
000FF000
000FF000
000FF000
000FF000
000FF000
000FF000
000FF000
00000000
00000000
00000000
00000000
00000000
00000000
FFFFFFFF
FFFFFFFF
FFFFFFFF
FFFFFFFF
FFFFFFFF
FFFFFFFF
FFFFFFFF
FFFFFFFF
00000000
00000000
00000000
00000000
000FF000
000FF000
000FF000
000FF000
000FF000
000FF000
000FF000
000FF000
000FF000
000FF000
ENDCHAR
STARTCHAR 00F8
ENCODING 248
SWIDTH 800 0
DWIDTH 36 0
BBX 30 68 2 -2
BITMAP
0000003C
0000003C
003FFC3C
003FFC3C
03FFFFF0
03FFFFF0
0FFFFFF0
0FFFFFF0
3FFFFFF0
3FFFFFF0
3FFFFFFC
3FFFFFFC
3FF00FFC
3FF00FFC
FFC00FFC
FFC00FFC
FFC00FFC
FFC00FFC
FFC00FFC
FFC00FFC
FFC03FFC
FFC03FFC
FFC03FFC
FFC03FFC
FFC03FFC
FFC03FFC
FFC0FFFC
FFC0FFFC
FFC0FFFC
FFC0FFFC
FFC3CFFC
FFC3CFFC
FFC3CFFC
FFC3CFFC
FFC3CFFC
FFC3CFFC
FFCF0FFC
FFCF0FFC
FFCF0FFC
FFCF0FFC
FFCF0FFC
FFCF0FFC
FFFC0FFC
FFFC0FFC
FFFC0FFC
FFFC0FFC
FFF00FFC
FFF00FFC
FFF00FFC
FFF00FFC
FFF00FFC
FFF00FFC
FFC00FFC
FFC00FFC
3FF00FFC
3FF00FFC
3FFFFFFC
3FFFFFFC
3FFFFFF0
3FFFFFF0
0FFFFFF0
0FFFFFF0
0FFFFFC0
0FFFFFC0
3C3FFC00
3C3FFC00
3C000000
3C000000
ENDCHAR
STARTCHAR 00F9
ENCODING 249
SWIDTH 800 0
DWIDTH 36 0
BBX 28 78 4 0
BITMAP
0FFC0000
0FFC0000
03FC0000
03FC0000
00FF0000
00FF0000
003FC000
003FC000
000FF000
000FF000
00000000
00000000
00000000
00000000
FFC00FF0
FFC00FF0
FFC00FF0
FFC00FF0
FFC00FF0
FFC00FF0
FFC00FF0
FFC00FF0
FFC00FF0
FFC00FF0
FFC00FF0
FFC00FF0
FFC00FF0
FFC00FF0
FFC00FF0
FFC00FF0
FFC00FF0
FFC00FF0
FFC00FF0
FFC00FF0
FFC00FF0
FFC00FF0
FFC00FF0
FFC00FF0
FFC00FF0
FFC00FF0
FFC00FF0
FFC00FF0
FFC00FF0
FFC00FF0
FFC00FF0
FFC00FF0
FFC00FF0
FFC00FF0
FFC00FF0
FFC00FF0
FFC00FF0
FFC00FF0
FFC00FF0
FFC00FF0
FFC00FF0
FFC00FF0
FFC00FF0
FFC00FF0
FFC00FF0
FFC00FF0
FFC00FF0
FFC00FF0
FFC00FF0
FFC00FF0
FFC00FF0
FFC00FF0
FFC03FF0
FFC03FF0
FFFFFFF0
FFFFFFF0
FFFFFFC0
FFFFFFC0
3FFFFFC0
3FFFFFC0
0FFFFF00
0FFFFF00
00FFF000
00FFF000
ENDCHAR
STARTCHAR 00FA
ENCODING 250
SWIDTH 800 0
DWIDTH 36 0
BBX 28 78 4 0
BITMAP
0003FF00
0003FF00
0003FC00
0003FC00
000FF000
000FF000
003FC000
003FC000
00FF0000
00FF0000
00000000
00000000
00000000
00000000
FFC00FF0
FFC00FF0
FFC00FF0
FFC00FF0
FFC00FF0
FFC00FF0
FFC00FF0
FFC00FF0
FFC00FF0
FFC00FF0
FFC00FF0
FFC00FF0
FFC00FF0
FFC00FF0
FFC00FF0
FFC00FF0
FFC00FF0
FFC00FF0
FFC00FF0
FFC00FF0
FFC00FF0
FFC00FF0
FFC00FF0
FFC00FF0
FFC00FF0
FFC00FF0
FFC00FF0
FFC00FF0
FFC00FF0
FFC00FF0
FFC00FF0
FFC00FF0
FFC00FF0
FFC00FF0
FFC00FF0
FFC00FF0
FFC00FF0
FFC00FF0
FFC00FF0
FFC00FF0
FFC00FF0
FFC00FF0
FFC00FF0
FFC00FF0
FFC00FF0
FFC00FF0
FFC00FF0
FFC00FF0
FFC00FF0
FFC00FF0
FFC00FF0
FFC00FF0
FFC03FF0
FFC03FF0
FFFFFFF0
FFFFFFF0
FFFFFFC0
FFFFFFC0
3FFFFFC0
3FFFFFC0
0FFFFF00
0FFFFF00
00FFF000
00FFF000
ENDCHAR
STARTCHAR 00FB
ENCODING 251
SWIDTH 800 0
DWIDTH 36 0
BBX 28 78 4 0
BITMAP
003FC000
003FC000
00FFF000
00FFF000
03FFFC00
03FFFC00
0FF0FF00
0FF0FF00
3FC03FC0
3FC03FC0
00000000
00000000
00000000
00000000
FFC00FF0
FFC00FF0
FFC00FF0
FFC00FF0
FFC00FF0
FFC00FF0
FFC00FF0
FFC00FF0
FFC00FF0
FFC00FF0
FFC00FF0
FFC00FF0
FFC00FF0
FFC00FF0
FFC00FF0
FFC00FF0
FFC00FF0
FFC00FF0
FFC00FF0
FFC00FF0
FFC00FF0
FFC00FF0
FFC00FF0
FFC00FF0
FFC00FF0
FFC00FF0
FFC00FF0
FFC00FF0
FFC00FF0
FFC00FF0
FFC00FF0
FFC00FF0
FFC00FF0
FFC00FF0
FFC00FF0
FFC00FF0
FFC00FF0
FFC00FF0
FFC00FF0
FFC00FF0
FFC00FF0
FFC00FF0
FFC00FF0
FFC00FF0
FFC00FF0
FFC00FF0
FFC00FF0
FFC00FF0
FFC00FF0
FFC00FF0
FFC00FF0
FFC00FF0
FFC03FF0
FFC03FF0
FFFFFFF0
FFFFFFF0
FFFFFFC0
FFFFFFC0
3FFFFFC0
3FFFFFC0
0FFFFF00
0FFFFF00
00FFF000
00FFF000
ENDCHAR
STARTCHAR 00FC
ENCODING 252
SWIDTH 800 0
DWIDTH 36 0
BBX 28 76 4 0
BITMAP
3FF0FFC0
3FF0FFC0
3FF0FFC0
3FF0FFC0
3FF0FFC0
3FF0FFC0
3FF0FFC0
3FF0FFC0
3FF0FFC0
3FF0FFC0
00000000
00000000
FFC00FF0
FFC00FF0
FFC00FF0
FFC00FF0
FFC00FF0
FFC00FF0
FFC00FF0
FFC00FF0
FFC00FF0
FFC00FF0
FFC00FF0
FFC00FF0
FFC00FF0
FFC00FF0
FFC00FF0
FFC00FF0
FFC00FF0
FFC00FF0
FFC00FF0
FFC00FF0
FFC00FF0
FFC00FF0
FFC00FF0
FFC00FF0
FFC00FF0
FFC00FF0
FFC00FF0
FFC00FF0
FFC00FF0
FFC00FF0
FFC00FF0
FFC00FF0
FFC00FF0
FFC00FF0
FFC00FF0
FFC00FF0
FFC00FF0
FFC00FF0
FFC00FF0
FFC00FF0
FFC00FF0
FFC00FF0
FFC00FF0
FFC00FF0
FFC00FF0
FFC00FF0
FFC00FF0
FFC00FF0
FFC00FF0
FFC00FF0
FFC00FF0
FFC00FF0
FFC03FF0
FFC03FF0
FFFFFFF0
FFFFFFF0
FFFFFFC0
FFFFFFC0
3FFFFFC0
3FFFFFC0
0FFFFF00
0FFFFF00
00FFF000
00FFF000
ENDCHAR
STARTCHAR 00FD
ENCODING 253
SWIDTH 800 0
DWIDTH 36 0
BBX 36 76 0 0
BITMAP
00003FF000
00003FF000
00003FC000
00003FC000
0000FF0000
0000FF0000
0003FC0000
0003FC0000
000FF00000
000FF00000
0000000000
0000000000
FFC0003FF0
FFC0003FF0
3FF0003FC0
3FF0003FC0
3FF000FFC0
3FF000FFC0
3FF000FFC0
3FF000FFC0
3FFC00FF00
3FFC00FF00
0FFC00FF00
0FFC00FF00
0FFC03FF00
0FFC03FF00
0FFC03FC00
0FFC03FC00
03FF03FC00
03FF03FC00
03FF0FFC00
03FF0FFC00
03FF0FFC00
03FF0FFC00
00FF0FF000
00FF0FF000
00FFCFF000
00FFCFF000
00FFFFF000
00FFFFF000
00FFFFC000
00FFFFC000
003FFFC000
003FFFC000
003FFFC000
003FFFC000
003FFFC000
003FFFC000
000FFF0000
000FFF0000
000FFF0000
000FFF0000
000FFF0000
000FFF0000
000FFC0000
000FFC0000
000FFC0000
000FFC0000
000FFC0000
000FFC0000
000FFC0000
000FFC0000
000FFC0000
000FFC0000
000FFC0000
000FFC0000
000FFC0000
000FFC0000
000FFC0000
000FFC0000
000FFC0000
000FFC0000
000FFC0000
000FFC0000
000FFC0000
000FFC0000
ENDCHAR
STARTCHAR 00FE
ENCODING 254
SWIDTH 754 0
DWIDTH 34 0
BBX 28 64 4 0
BITMAP
FFC00000
FFC00000
FFC00000
FFC00000
FFC00000
FFC00000
FFC00000
FFC00000
FFFFF000
FFFFF000
FFFFFF00
FFFFFF00
FFFFFFC0
FFFFFFC0
FFFFFFF0
FFFFFFF0
FFFFFFF0
FFFFFFF0
FFC03FF0
FFC03FF0
FFC03FF0
FFC03FF0
FFC00FF0
FFC00FF0
FFC00FF0
FFC00FF0
FFC00FF0
FFC00FF0
FFC00FF0
FFC00FF0
FFC00FF0
FFC00FF0
FFC03FF0
FFC03FF0
FFC03FF0
FFC03FF0
FFC03FF0
FFC03FF0
FFFFFFF0
FFFFFFF0
FFFFFFC0
FFFFFFC0
FFFFFFC0
FFFFFFC0
FFFFFC00
FFFFFC00
FFFC0000
FFFC0000
FFC00000
FFC00000
FFC00000
FFC00000
FFC00000
FFC00000
FFC00000
FFC00000
FFC00000
FFC00000
FFC00000
FFC00000
FFC00000
FFC00000
FFC00000
FFC00000
ENDCHAR
STARTCHAR 00FF
ENCODING 255
SWIDTH 800 0
DWIDTH 36 0
BBX 36 76 0 0
BITMAP
00FF0FFC00
00FF0FFC00
00FF0FFC00
00FF0FFC00
00FF0FFC00
00FF0FFC00
00FF0FFC00
00FF0FFC00
00FF0FFC00
00FF0FFC00
0000000000
0000000000
FFC0003FF0
FFC0003FF0
3FF0003FC0
3FF0003FC0
3FF000FFC0
3FF000FFC0
3FF000FFC0
3FF000FFC0
3FFC00FF00
3FFC00FF00
0FFC00FF00
0FFC00FF00
0FFC03FF00
0FFC03FF00
0FFC03FC00
0FFC03FC00
03FF03FC00
03FF03FC00
03FF0FFC00
03FF0FFC00
03FF0FFC00
03FF0FFC00
00FF0FF000
00FF0FF000
00FFCFF000
00FFCFF000
00FFFFF000
00FFFFF000
00FFFFC000
00FFFFC000
003FFFC000
003FFFC000
003FFFC000
003FFFC000
003FFFC000
003FFFC000
000FFF0000
000FFF0000
000FFF0000
000FFF0000
000FFF0000
000FFF0000
000FFC0000
000FFC0000
000FFC0000
000FFC0000
000FFC0000
000FFC0000
000FFC0000
000FFC0000
000FFC0000
000FFC0000
000FFC0000
000FFC0000
000FFC0000
000FFC0000
000FFC0000
000FFC0000
000FFC0000
000FFC0000
000FFC0000
000FFC0000
000FFC0000
000FFC0000
ENDCHAR
STARTCHAR 0100
ENCODING 256
SWIDTH 800 0
DWIDTH 36 0
BBX 36 74 0 0
BITMAP
00FFFFF000
00FFFFF000
00FFFFF000
00FFFFF000
00FFFFF000
00FFFFF000
00FFFFF000
00FFFFF000
0000000000
0000000000
003FFFC000
003FFFC000
003FFFC000
003FFFC000
003FFFC000
003FFFC000
003FFFC000
003FFFC000
003FFFC000
003FFFC000
003FFFF000
003FFFF000
00FFFFF000
00FFFFF000
00FFFFF000
00FFFFF000
00FFFFF000
00FFFFF000
00FF3FF000
00FF3FF000
00FF0FF000
00FF0FF000
00FF0FFC00
00FF0FFC00
00FF0FFC00
00FF0FFC00
03FF0FFC00
03FF0FFC00
03FF0FFC00
03FF0FFC00
03FC0FFC00
03FC0FFC00
03FC0FFC00
03FC0FFC00
03FC03FF00
03FC03FF00
03FC03FF00
03FC03FF00
0FFC03FF00
0FFC03FF00
0FFC03FF00
0FFC03FF00
0FFC03FF00
0FFC03FF00
0FFFFFFF00
0FFFFFFF00
0FFFFFFF00
0FFFFFFF00
0FFFFFFFC0
0FFFFFFFC0
0FFFFFFFC0
0FFFFFFFC0
3FFFFFFFC0
3FFFFFFFC0
3FF000FFC0
3FF000FFC0
3FF000FFC0
3FF000FFC0
3FC000FFC0
3FC000FFC0
3FC0003FF0
3FC0003FF0
FFC0003FF0
FFC0003FF0
ENDCHAR
STARTCHAR 0101
ENCODING 257
SWIDTH 800 0
DWIDTH 36 0
BBX 36 74 0 0
BITMAP
00FFFFF000
00FFFFF000
00FFFFF000
00FFFFF000
00FFFFF000
00FFFFF000
00FFFFF000
00FFFFF000
0000000000
0000000000
003FFFC000
003FFFC000
003FFFC000
003FFFC000
003FFFC000
003FFFC000
003FFFC000
003FFFC000
003FFFC000
003FFFC000
003FFFF000
003FFFF000
00FFFFF000
00FFFFF000
00FFFFF000
00FFFFF000
00FFFFF000
00FFFFF000
00FF3FF000
00FF3FF000
00FF0FF000
00FF0FF000
00FF0FFC00
00FF0FFC00
00FF0FFC00
00FF0FFC00
03FF0FFC00
03FF0FFC00
03FF0FFC00
03FF0FFC00
03FC0FFC00
03FC0FFC00
03FC0FFC00
03FC0FFC00
03FC03FF00
03FC03FF00
03FC03FF00
03FC03FF00
0FFC03FF00
0FFC03FF00
0FFC03FF00
0FFC03FF00
0FFC03FF00
0FFC03FF00
0FFFFFFF00
0FFFFFFF00
0FFFFFFF00
0FFFFFFF00
0FFFFFFFC0
0FFFFFFFC0
0FFFFFFFC0
0FFFFFFFC0
3FFFFFFFC0
3FFFFFFFC0
3FF000FFC0
3FF000FFC0
3FF000FFC0
3FF000FFC0
3FC000FFC0
3FC000FFC0
3FC0003FF0
3FC0003FF0
FFC0003FF0
FFC0003FF0
ENDCHAR
STARTCHAR 0102
ENCODING 258
SWIDTH 800 0
DWIDTH 36 0
BBX 36 78 0 0
BITMAP
00FC03F000
00FC03F000
00FC03F000
00FC03F000
00FF03F000
00FF03F000
003FFFF000
003FFFF000
003FFFC000
003FFFC000
0003FF0000
0003FF0000
0000000000
0000000000
003FFFC000
003FFFC000
003FFFC000
003FFFC000
003FFFC000
003FFFC000
003FFFC000
003FFFC000
003FFFC000
003FFFC000
003FFFF000
003FFFF000
00FFFFF000
00FFFFF000
00FFFFF000
00FFFFF000
00FFFFF000
00FFFFF000
00FF3FF000
00FF3FF000
00FF0FF000
00FF0FF000
00FF0FFC00
00FF0FFC00
00FF0FFC00
00FF0FFC00
03FF0FFC00
03FF0FFC00
03FF0FFC00
03FF0FFC00
03FC0FFC00
03FC0FFC00
03FC0FFC00
03FC0FFC00
03FC03FF00
03FC03FF00
03FC03FF00
03FC03FF00
0FFC03FF00
0FFC03FF00
0FFC03FF00
0FFC03FF00
0FFC03FF00
0FFC03FF00
0FFFFFFF00
0FFFFFFF00
0FFFFFFF00
0FFFFFFF00
0FFFFFFFC0
0FFFFFFFC0
0FFFFFFFC0
0FFFFFFFC0
3FFFFFFFC0
3FFFFFFFC0
3FF000FFC0
3FF000FFC0
3FF000FFC0
3FF000FFC0
3FC000FFC0
3FC000FFC0
3FC0003FF0
3FC0003FF0
FFC0003FF0
FFC0003FF0
ENDCHAR
STARTCHAR 0103
ENCODING 259
SWIDTH 800 0
DWIDTH 36 0
BBX 36 78 0 0
BITMAP
00FC03F000
00FC03F000
00FC03F000
00FC03F000
00FF03F000
00FF03F000
003FFFF000
003FFFF000
003FFFC000
003FFFC000
0003FF0000
0003FF0000
0000000000
0000000000
003FFFC000
003FFFC000
003FFFC000
003FFFC000
003FFFC000
003FFFC000
003FFFC000
003FFFC000
003FFFC000
003FFFC000
003FFFF000
003FFFF000
00FFFFF000
00FFFFF000
00FFFFF000
00FFFFF000
00FFFFF000
00FFFFF000
00FF3FF000
00FF3FF000
00FF0FF000
00FF0FF000
00FF0FFC00
00FF0FFC00
00FF0FFC00
00FF0FFC00
03FF0FFC00
03FF0FFC00
03FF0FFC00
03FF0FFC00
03FC0FFC00
03FC0FFC00
03FC0FFC00
03FC0FFC00
03FC03FF00
03FC03FF00
03FC03FF00
03FC03FF00
0FFC03FF00
0FFC03FF00
0FFC03FF00
0FFC03FF00
0FFC03FF00
0FFC03FF00
0FFFFFFF00
0FFFFFFF00
0FFFFFFF00
0FFFFFFF00
0FFFFFFFC0
0FFFFFFFC0
0FFFFFFFC0
0FFFFFFFC0
3FFFFFFFC0
3FFFFFFFC0
3FF000FFC0
3FF000FFC0
3FF000FFC0
3FF000FFC0
3FC000FFC0
3FC000FFC0
3FC0003FF0
3FC0003FF0
FFC0003FF0
FFC0003FF0
ENDCHAR
STARTCHAR 0104
ENCODING 260
SWIDTH 800 0
DWIDTH 36 0
BBX 36 78 0 -14
BITMAP
003FFFC000
003FFFC000
003FFFC000
003FFFC000
003FFFC000
003FFFC000
003FFFC000
003FFFC000
003FFFC000
003FFFC000
003FFFF000
003FFFF000
00FFFFF000
00FFFFF000
00FFFFF000
00FFFFF000
00FFFFF000
00FFFFF000
00FF3FF000
00FF3FF000
00FF0FF000
00FF0FF000
00FF0FFC00
00FF0FFC00
00FF0FFC00
00FF0FFC00
03FF0FFC00
03FF0FFC00
03FF0FFC00
03FF0FFC00
03FC0FFC00
03FC0FFC00
03FC0FFC00
03FC0FFC00
03FC03FF00
03FC03FF00
03FC03FF00
03FC03FF00
0FFC03FF00
0FFC03FF00
0FFC03FF00
0FFC03FF00
0FFC03FF00
0FFC03FF00
0FFFFFFF00
0FFFFFFF00
0FFFFFFF00
0FFFFFFF00
0FFFFFFFC0
0FFFFFFFC0
0FFFFFFFC0
0FFFFFFFC0
3FFFFFFFC0
3FFFFFFFC0
3FF000FFC0
3FF000FFC0
3FF000FFC0
3FF000FFC0
3FC000FFC0
3FC000FFC0
3FC0003FF0
3FC0003FF0
3FC0003FF0
3FC0003FF0
C000003C00
C000003C00
000000FC00
000000FC00
000003FC00
000003FC00
000003FC00
000003FC00
000003FFF0
000003FFF0
000003FFF0
000003FFF0
0000003FC0
0000003FC0
ENDCHAR
STARTCHAR 0105
ENCODING 261
SWIDTH 800 0
DWIDTH 36 0
BBX 36 78 0 -14
BITMAP
003FFFC000
003FFFC000
003FFFC000
003FFFC000
003FFFC000
003FFFC000
003FFFC000
003FFFC000
003FFFC000
003FFFC000
003FFFF000
003FFFF000
00FFFFF000
00FFFFF000
00FFFFF000
00FFFFF000
00FFFFF000
00FFFFF000
00FF3FF000
00FF3FF000
00FF0FF000
00FF0FF000
00FF0FFC00
00FF0FFC00
00FF0FFC00
00FF0FFC00
03FF0FFC00
03FF0FFC00
03FF0FFC00
03FF0FFC00
03FC0FFC00
03FC0FFC00
03FC0FFC00
03FC0FFC00
03FC03FF00
03FC03FF00
03FC03FF00
03FC03FF00
0FFC03FF00
0FFC03FF00
0FFC03FF00
0FFC03FF00
0FFC03FF00
0FFC03FF00
0FFFFFFF00
0FFFFFFF00
0FFFFFFF00
0FFFFFFF00
0FFFFFFFC0
0FFFFFFFC0
0FFFFFFFC0
0FFFFFFFC0
3FFFFFFFC0
3FFFFFFFC0
3FF000FFC0
3FF000FFC0
3FF000FFC0
3FF000FFC0
3FC000FFC0
3FC000FFC0
3FC0003FF0
3FC0003FF0
3FC0003FF0
3FC0003FF0
C000003C00
C000003C00
000000FC00
000000FC00
000003FC00
000003FC00
000003FC00
000003FC00
000003FFF0
000003FFF0
000003FFF0
000003FFF0
0000003FC0
0000003FC0
ENDCHAR
STARTCHAR 0106
ENCODING 262
SWIDTH 754 0
DWIDTH 34 0
BBX 30 78 2 0
BITMAP
0000FFC0
0000FFC0
0000FF00
0000FF00
0003FC00
0003FC00
000FF000
000FF000
003FC000
003FC000
00000000
00000000
00000000
00000000
003FFC00
003FFC00
03FFFFC0
03FFFFC0
0FFFFFF0
0FFFFFF0
3FFFFFF0
3FFFFFF0
3FFFFFFC
3FFFFFFC
3FF00FFC
3FF00FFC
FFC00FFC
FFC00FFC
FFC00FFC
FFC00FFC
FFC00FFC
FFC00FFC
FFC00FFC
FFC00FFC
FFC00FFC
FFC00FFC
FFC00000
FFC00000
FFC00000
FFC00000
FFC00000
FFC00000
FFC00000
FFC00000
FFC00000
FFC00000
FFC00000
FFC00000
FFC00000
FFC00000
FFC00000
FFC00000
FFC00000
FFC00000
FFC00FFC
FFC00FFC
FFC00FFC
FFC00FFC
FFC00FFC
FFC00FFC
FFC00FFC
FFC00FFC
FFC00FFC
FFC00FFC
FFC00FFC
FFC00FFC
3FF00FFC
3FF00FFC
3FFFFFFC
3FFFFFFC
3FFFFFF0
3FFFFFF0
0FFFFFF0
0FFFFFF0
03FFFFC0
03FFFFC0
003FFC00
003FFC00
ENDCHAR
STARTCHAR 0107
ENCODING 263
SWIDTH 754 0
DWIDTH 34 0
BBX 30 78 2 0
BITMAP
0000FFC0
0000FFC0
0000FF00
0000FF00
0003FC00
0003FC00
000FF000
000FF000
003FC000
003FC000
00000000
00000000
00000000
00000000
003FFC00
003FFC00
03FFFFC0
03FFFFC0
0FFFFFF0
0FFFFFF0
3FFFFFF0
3FFFFFF0
3FFFFFFC
3FFFFFFC
3FF00FFC
3FF00FFC
FFC00FFC
FFC00FFC
FFC00FFC
FFC00FFC
FFC00FFC
FFC00FFC
FFC00FFC
FFC00FFC
FFC00FFC
FFC00FFC
FFC00000
FFC00000
FFC00000
FFC00000
FFC00000
FFC00000
FFC00000
FFC00000
FFC00000
FFC00000
FFC00000
FFC00000
FFC00000
FFC00000
FFC00000
FFC00000
FFC00000
FFC00000
FFC00FFC
FFC00FFC
FFC00FFC
FFC00FFC
FFC00FFC
FFC00FFC
FFC00FFC
FFC00FFC
FFC00FFC
FFC00FFC
FFC00FFC
FFC00FFC
3FF00FFC
3FF00FFC
3FFFFFFC
3FFFFFFC
3FFFFFF0
3FFFFFF0
0FFFFFF0
0FFFFFF0
03FFFFC0
03FFFFC0
003FFC00
003FFC00
ENDCHAR
STARTCHAR 0108
ENCODING 264
SWIDTH 754 0
DWIDTH 34 0
BBX 30 78 2 0
BITMAP
003FF000
003FF000
003FFC00
003FFC00
00FFFF00
00FFFF00
03FCFFC0
03FCFFC0
0FF03FF0
0FF03FF0
00000000
00000000
00000000
00000000
003FFC00
003FFC00
03FFFFC0
03FFFFC0
0FFFFFF0
0FFFFFF0
3FFFFFF0
3FFFFFF0
3FFFFFFC
3FFFFFFC
3FF00FFC
3FF00FFC
FFC00FFC
FFC00FFC
FFC00FFC
FFC00FFC
FFC00FFC
FFC00FFC
FFC00FFC
FFC00FFC
FFC00FFC
FFC00FFC
FFC00000
FFC00000
FFC00000
FFC00000
FFC00000
FFC00000
FFC00000
FFC00000
FFC00000
FFC00000
FFC00000
FFC00000
FFC00000
FFC00000
FFC00000
FFC00000
FFC00000
FFC00000
FFC00FFC
FFC00FFC
FFC00FFC
FFC00FFC
FFC00FFC
FFC00FFC
FFC00FFC
FFC00FFC
FFC00FFC
FFC00FFC
FFC00FFC
FFC00FFC
3FF00FFC
3FF00FFC
3FFFFFFC
3FFFFFFC
3FFFFFF0
3FFFFFF0
0FFFFFF0
0FFFFFF0
03FFFFC0
03FFFFC0
003FFC00
003FFC00
ENDCHAR
STARTCHAR 0109
ENCODING 265
SWIDTH 754 0
DWIDTH 34 0
BBX 30 78 2 0
BITMAP
003FF000
003FF000
003FFC00
003FFC00
00FFFF00
00FFFF00
03FCFFC0
03FCFFC0
0FF03FF0
0FF03FF0
00000000
00000000
00000000
00000000
003FFC00
003FFC00
03FFFFC0
03FFFFC0
0FFFFFF0
0FFFFFF0
3FFFFFF0
3FFFFFF0
3FFFFFFC
3FFFFFFC
3FF00FFC
3FF00FFC
FFC00FFC
FFC00FFC
FFC00FFC
FFC00FFC
FFC00FFC
FFC00FFC
FFC00FFC
FFC00FFC
FFC00FFC
FFC00FFC
FFC00000
FFC00000
FFC00000
FFC00000
FFC00000
FFC00000
FFC00000
FFC00000
FFC00000
FFC00000
FFC00000
FFC00000
FFC00000
FFC00000
FFC00000
FFC00000
FFC00000
FFC00000
FFC00FFC
FFC00FFC
FFC00FFC
FFC00FFC
FFC00FFC
FFC00FFC
FFC00FFC
FFC00FFC
FFC00FFC
FFC00FFC
FFC00FFC
FFC00FFC
3FF00FFC
3FF00FFC
3FFFFFFC
3FFFFFFC
3FFFFFF0
3FFFFFF0
0FFFFFF0
0FFFFFF0
03FFFFC0
03FFFFC0
003FFC00
003FFC00
ENDCHAR
STARTCHAR 010A
ENCODING 266
SWIDTH 754 0
DWIDTH 34 0
BBX 30 76 2 0
BITMAP
000FF000
000FF000
000FF000
000FF000
000FF000
000FF000
000FF000
000FF000
000FF000
000FF000
00000000
00000000
003FFC00
003FFC00
03FFFFC0
03FFFFC0
0FFFFFF0
0FFFFFF0
3FFFFFF0
3FFFFFF0
3FFFFFFC
3FFFFFFC
3FF00FFC
3FF00FFC
FFC00FFC
FFC00FFC
FFC00FFC
FFC00FFC
FFC00FFC
FFC00FFC
FFC00FFC
FFC00FFC
FFC00FFC
FFC00FFC
FFC00000
FFC00000
FFC00000
FFC00000
FFC00000
FFC00000
FFC00000
FFC00000
FFC00000
FFC00000
FFC00000
FFC00000
FFC00000
FFC00000
FFC00000
FFC00000
FFC00000
FFC00000
FFC00FFC
FFC00FFC
FFC00FFC
FFC00FFC
FFC00FFC
FFC00FFC
FFC00FFC
FFC00FFC
FFC00FFC
FFC00FFC
FFC00FFC
FFC00FFC
3FF00FFC
3FF00FFC
3FFFFFFC
3FFFFFFC
3FFFFFF0
3FFFFFF0
0FFFFFF0
0FFFFFF0
03FFFFC0
03FFFFC0
003FFC00
003FFC00
ENDCHAR
STARTCHAR 010B
ENCODING 267
SWIDTH 754 0
DWIDTH 34 0
BBX 30 76 2 0
BITMAP
000FF000
000FF000
000FF000
000FF000
000FF000
000FF000
000FF000
000FF000
000FF000
000FF000
00000000
00000000
003FFC00
003FFC00
03FFFFC0
03FFFFC0
0FFFFFF0
0FFFFFF0
3FFFFFF0
3FFFFFF0
3FFFFFFC
3FFFFFFC
3FF00FFC
3FF00FFC
FFC00FFC
FFC00FFC
FFC00FFC
FFC00FFC
FFC00FFC
FFC00FFC
FFC00FFC
FFC00FFC
FFC00FFC
FFC00FFC
FFC00000
FFC00000
FFC00000
FFC00000
FFC00000
FFC00000
FFC00000
FFC00000
FFC00000
FFC00000
FFC00000
FFC00000
FFC00000
FFC00000
FFC00000
FFC00000
FFC00000
FFC00000
FFC00FFC
FFC00FFC
FFC00FFC
FFC00FFC
FFC00FFC
FFC00FFC
FFC00FFC
FFC00FFC
FFC00FFC
FFC00FFC
FFC00FFC
FFC00FFC
3FF00FFC
3FF00FFC
3FFFFFFC
3FFFFFFC
3FFFFFF0
3FFFFFF0
0FFFFFF0
0FFFFFF0
03FFFFC0
03FFFFC0
003FFC00
003FFC00
ENDCHAR
STARTCHAR 010C
ENCODING 268
SWIDTH 754 0
DWIDTH 34 0
BBX 30 78 2 0
BITMAP
0FF00FF0
0FF00FF0
0FFC3FC0
0FFC3FC0
03FCFF00
03FCFF00
00FFFC00
00FFFC00
003FF000
003FF000
00000000
00000000
00000000
00000000
003FFC00
003FFC00
03FFFFC0
03FFFFC0
0FFFFFF0
0FFFFFF0
3FFFFFF0
3FFFFFF0
3FFFFFFC
3FFFFFFC
3FF00FFC
3FF00FFC
FFC00FFC
FFC00FFC
FFC00FFC
FFC00FFC
FFC00FFC
FFC00FFC
FFC00FFC
FFC00FFC
FFC00FFC
FFC00FFC
FFC00000
FFC00000
FFC00000
FFC00000
FFC00000
FFC00000
FFC00000
FFC00000
FFC00000
FFC00000
FFC00000
FFC00000
FFC00000
FFC00000
FFC00000
FFC00000
FFC00000
FFC00000
FFC00FFC
FFC00FFC
FFC00FFC
FFC00FFC
FFC00FFC
FFC00FFC
FFC00FFC
FFC00FFC
FFC00FFC
FFC00FFC
FFC00FFC
FFC00FFC
3FF00FFC
3FF00FFC
3FFFFFFC
3FFFFFFC
3FFFFFF0
3FFFFFF0
0FFFFFF0
0FFFFFF0
03FFFFC0
03FFFFC0
003FFC00
003FFC00
ENDCHAR
STARTCHAR 010D
ENCODING 269
SWIDTH 754 0
DWIDTH 34 0
BBX 30 78 2 0
BITMAP
0FF00FF0
0FF00FF0
0FFC3FC0
0FFC3FC0
03FCFF00
03FCFF00
00FFFC00
00FFFC00
003FF000
003FF000
00000000
00000000
00000000
00000000
003FFC00
003FFC00
03FFFFC0
03FFFFC0
0FFFFFF0
0FFFFFF0
3FFFFFF0
3FFFFFF0
3FFFFFFC
3FFFFFFC
3FF00FFC
3FF00FFC
FFC00FFC
FFC00FFC
FFC00FFC
FFC00FFC
FFC00FFC
FFC00FFC
FFC00FFC
FFC00FFC
FFC00FFC
FFC00FFC
FFC00000
FFC00000
FFC00000
FFC00000
FFC00000
FFC00000
FFC00000
FFC00000
FFC00000
FFC00000
FFC00000
FFC00000
FFC00000
FFC00000
FFC00000
FFC00000
FFC00000
FFC00000
FFC00FFC
FFC00FFC
FFC00FFC
FFC00FFC
FFC00FFC
FFC00FFC
FFC00FFC
FFC00FFC
FFC00FFC
FFC00FFC
FFC00FFC
FFC00FFC
3FF00FFC
3FF00FFC
3FFFFFFC
3FFFFFFC
3FFFFFF0
3FFFFFF0
0FFFFFF0
0FFFFFF0
03FFFFC0
03FFFFC0
003FFC00
003FFC00
ENDCHAR
STARTCHAR 010E
ENCODING 270
SWIDTH 800 0
DWIDTH 36 0
BBX 30 76 4 0
BITMAP
3FC0FFC0
3FC0FFC0
0FF0FF00
0FF0FF00
03FFFC00
03FFFC00
00FFF000
00FFF000
003FC000
003FC000
00000000
00000000
FFFFFC00
FFFFFC00
FFFFFFC0
FFFFFFC0
FFFFFFF0
FFFFFFF0
FFFFFFF0
FFFFFFF0
FFFFFFFC
FFFFFFFC
FFC00FFC
FFC00FFC
FFC00FFC
FFC00FFC
FFC00FFC
FFC00FFC
FFC00FFC
FFC00FFC
FFC00FFC
FFC00FFC
FFC00FFC
FFC00FFC
FFC00FFC
FFC00FFC
FFC00FFC
FFC00FFC
FFC00FFC
FFC00FFC
FFC00FFC
FFC00FFC
FFC00FFC
FFC00FFC
FFC00FFC
FFC00FFC
FFC00FFC
FFC00FFC
FFC00FFC
FFC00FFC
FFC00FFC
FFC00FFC
FFC00FFC
FFC00FFC
FFC00FFC
FFC00FFC
FFC00FFC
FFC00FFC
FFC00FFC
FFC00FFC
FFC00FFC
FFC00FFC
FFC00FFC
FFC00FFC
FFC00FFC
FFC00FFC
FFFFFFFC
FFFFFFFC
FFFFFFF0
FFFFFFF0
FFFFFFF0
FFFFFFF0
FFFFFFC0
FFFFFFC0
FFFFFC00
FFFFFC00
ENDCHAR
STARTCHAR 010F
ENCODING 271
SWIDTH 800 0
DWIDTH 36 0
BBX 30 76 4 0
BITMAP
3FC0FFC0
3FC0FFC0
0FF0FF00
0FF0FF00
03FFFC00
03FFFC00
00FFF000
00FFF000
003FC000
003FC000
00000000
00000000
FFFFFC00
FFFFFC00
FFFFFFC0
FFFFFFC0
FFFFFFF0
FFFFFFF0
FFFFFFF0
FFFFFFF0
FFFFFFFC
FFFFFFFC
FFC00FFC
FFC00FFC
FFC00FFC
FFC00FFC
FFC00FFC
FFC00FFC
FFC00FFC
FFC00FFC
FFC00FFC
FFC00FFC
FFC00FFC
FFC00FFC
FFC00FFC
FFC00FFC
FFC00FFC
FFC00FFC
FFC00FFC
FFC00FFC
FFC00FFC
FFC00FFC
FFC00FFC
FFC00FFC
FFC00FFC
FFC00FFC
FFC00FFC
FFC00FFC
FFC00FFC
FFC00FFC
FFC00FFC
FFC00FFC
FFC00FFC
FFC00FFC
FFC00FFC
FFC00FFC
FFC00FFC
FFC00FFC
FFC00FFC
FFC00FFC
FFC00FFC
FFC00FFC
FFC00FFC
FFC00FFC
FFC00FFC
FFC00FFC
FFFFFFFC
FFFFFFFC
FFFFFFF0
FFFFFFF0
FFFFFFF0
FFFFFFF0
FFFFFFC0
FFFFFFC0
FFFFFC00
FFFFFC00
ENDCHAR
STARTCHAR 0110
ENCODING 272
SWIDTH 800 0
DWIDTH 36 0
BBX 34 64 0 0
BITMAP
0FFFFFC000
0FFFFFC000
0FFFFFFC00
0FFFFFFC00
0FFFFFFF00
0FFFFFFF00
0FFFFFFF00
0FFFFFFF00
0FFFFFFFC0
0FFFFFFFC0
0FFC00FFC0
0FFC00FFC0
0FFC00FFC0
0FFC00FFC0
0FFC00FFC0
0FFC00FFC0
0FFC00FFC0
0FFC00FFC0
0FFC00FFC0
0FFC00FFC0
0FFC00FFC0
0FFC00FFC0
0FFC00FFC0
0FFC00FFC0
0FFC00FFC0
0FFC00FFC0
0FFC00FFC0
0FFC00FFC0
FFFFF0FFC0
FFFFF0FFC0
FFFFF0FFC0
FFFFF0FFC0
FFFFF0FFC0
FFFFF0FFC0
FFFFF0FFC0
FFFFF0FFC0
FFFFF0FFC0
FFFFF0FFC0
0FFC00FFC0
0FFC00FFC0
0FFC00FFC0
0FFC00FFC0
0FFC00FFC0
0FFC00FFC0
0FFC00FFC0
0FFC00FFC0
0FFC00FFC0
0FFC00FFC0
0FFC00FFC0
0FFC00FFC0
0FFC00FFC0
0FFC00FFC0
0FFC00FFC0
0FFC00FFC0
0FFFFFFFC0
0FFFFFFFC0
0FFFFFFF00
0FFFFFFF00
0FFFFFFF00
0FFFFFFF00
0FFFFFFC00
0FFFFFFC00
0FFFFFC000
0FFFFFC000
ENDCHAR
STARTCHAR 0111
ENCODING 273
SWIDTH 800 0
DWIDTH 36 0
BBX 34 64 0 0
BITMAP
0FFFFFC000
0FFFFFC000
0FFFFFFC00
0FFFFFFC00
0FFFFFFF00
0FFFFFFF00
0FFFFFFF00
0FFFFFFF00
0FFFFFFFC0
0FFFFFFFC0
0FFC00FFC0
0FFC00FFC0
0FFC00FFC0
0FFC00FFC0
0FFC00FFC0
0FFC00FFC0
0FFC00FFC0
0FFC00FFC0
0FFC00FFC0
0FFC00FFC0
0FFC00FFC0
0FFC00FFC0
0FFC00FFC0
0FFC00FFC0
0FFC00FFC0
0FFC00FFC0
0FFC00FFC0
0FFC00FFC0
FFFFF0FFC0
FFFFF0FFC0
FFFFF0FFC0
FFFFF0FFC0
FFFFF0FFC0
FFFFF0FFC0
FFFFF0FFC0
FFFFF0FFC0
FFFFF0FFC0
FFFFF0FFC0
0FFC00FFC0
0FFC00FFC0
0FFC00FFC0
0FFC00FFC0
0FFC00FFC0
0FFC00FFC0
0FFC00FFC0
0FFC00FFC0
0FFC00FFC0
0FFC00FFC0
0FFC00FFC0
0FFC00FFC0
0FFC00FFC0
0FFC00FFC0
0FFC00FFC0
0FFC00FFC0
0FFFFFFFC0
0FFFFFFFC0
0FFFFFFF00
0FFFFFFF00
0FFFFFFF00
0FFFFFFF00
0FFFFFFC00
0FFFFFFC00
0FFFFFC000
0FFFFFC000
ENDCHAR
STARTCHAR 0112
ENCODING 274
SWIDTH 754 0
DWIDTH 34 0
BBX 26 74 4 0
BITMAP
3FFFFF00
3FFFFF00
3FFFFF00
3FFFFF00
3FFFFF00
3FFFFF00
3FFFFF00
3FFFFF00
00000000
00000000
FFFFFFC0
FFFFFFC0
FFFFFFC0
FFFFFFC0
FFFFFFC0
FFFFFFC0
FFFFFFC0
FFFFFFC0
FFFFFFC0
FFFFFFC0
FFC00000
FFC00000
FFC00000
FFC00000
FFC00000
FFC00000
FFC00000
FFC00000
FFC00000
FFC00000
FFC00000
FFC00000
FFC00000
FFC00000
FFC00000
FFC00000
FFFFFF00
FFFFFF00
FFFFFF00
FFFFFF00
FFFFFF00
FFFFFF00
FFFFFF00
FFFFFF00
FFFFFF00
FFFFFF00
FFC00000
FFC00000
FFC00000
FFC00000
FFC00000
FFC00000
FFC00000
FFC00000
FFC00000
FFC00000
FFC00000
FFC00000
FFC00000
FFC00000
FFC00000
FFC00000
FFC00000
FFC00000
FFFFFFC0
FFFFFFC0
FFFFFFC0
FFFFFFC0
FFFFFFC0
FFFFFFC0
FFFFFFC0
FFFFFFC0
FFFFFFC0
FFFFFFC0
ENDCHAR
STARTCHAR 0113
ENCODING 275
SWIDTH 754 0
DWIDTH 34 0
BBX 26 74 4 0
BITMAP
3FFFFF00
3FFFFF00
3FFFFF00
3FFFFF00
3FFFFF00
3FFFFF00
3FFFFF00
3FFFFF00
00000000
00000000
FFFFFFC0
FFFFFFC0
FFFFFFC0
FFFFFFC0
FFFFFFC0
FFFFFFC0
FFFFFFC0
FFFFFFC0
FFFFFFC0
FFFFFFC0
FFC00000
FFC00000
FFC00000
FFC00000
FFC00000
FFC00000
FFC00000
FFC00000
FFC00000
FFC00000
FFC00000
FFC00000
FFC00000
FFC00000
FFC00000
FFC00000
FFFFFF00
FFFFFF00
FFFFFF00
FFFFFF00
FFFFFF00
FFFFFF00
FFFFFF00
FFFFFF00
FFFFFF00
FFFFFF00
FFC00000
FFC00000
FFC00000
FFC00000
FFC00000
FFC00000
FFC00000
FFC00000
FFC00000
FFC00000
FFC00000
FFC00000
FFC00000
FFC00000
FFC00000
FFC00000
FFC00000
FFC00000
FFFFFFC0
FFFFFFC0
FFFFFFC0
FFFFFFC0
FFFFFFC0
FFFFFFC0
FFFFFFC0
FFFFFFC0
FFFFFFC0
FFFFFFC0
ENDCHAR
STARTCHAR 0114
ENCODING 276
SWIDTH 754 0
DWIDTH 34 0
BBX 26 78 4 0
BITMAP
3F003F00
3F003F00
3F00FC00
3F00FC00
0FC0FC00
0FC0FC00
0FFFFC00
0FFFFC00
03FFF000
03FFF000
00FFC000
00FFC000
00000000
00000000
FFFFFFC0
FFFFFFC0
FFFFFFC0
FFFFFFC0
FFFFFFC0
FFFFFFC0
FFFFFFC0
FFFFFFC0
FFFFFFC0
FFFFFFC0
FFC00000
FFC00000
FFC00000
FFC00000
FFC00000
FFC00000
FFC00000
FFC00000
FFC00000
FFC00000
FFC00000
FFC00000
FFC00000
FFC00000
FFC00000
FFC00000
FFFFFF00
FFFFFF00
FFFFFF00
FFFFFF00
FFFFFF00
FFFFFF00
FFFFFF00
FFFFFF00
FFFFFF00
FFFFFF00
FFC00000
FFC00000
FFC00000
FFC00000
FFC00000
FFC00000
FFC00000
FFC00000
FFC00000
FFC00000
FFC00000
FFC00000
FFC00000
FFC00000
FFC00000
FFC00000
FFC00000
FFC00000
FFFFFFC0
FFFFFFC0
FFFFFFC0
FFFFFFC0
FFFFFFC0
FFFFFFC0
FFFFFFC0
FFFFFFC0
FFFFFFC0
FFFFFFC0
ENDCHAR
STARTCHAR 0115
ENCODING 277
SWIDTH 754 0
DWIDTH 34 0
BBX 26 78 4 0
BITMAP
3F003F00
3F003F00
3F00FC00
3F00FC00
0FC0FC00
0FC0FC00
0FFFFC00
0FFFFC00
03FFF000
03FFF000
00FFC000
00FFC000
00000000
00000000
FFFFFFC0
FFFFFFC0
FFFFFFC0
FFFFFFC0
FFFFFFC0
FFFFFFC0
FFFFFFC0
FFFFFFC0
FFFFFFC0
FFFFFFC0
FFC00000
FFC00000
FFC00000
FFC00000
FFC00000
FFC00000
FFC00000
FFC00000
FFC00000
FFC00000
FFC00000
FFC00000
FFC00000
FFC00000
FFC00000
FFC00000
FFFFFF00
FFFFFF00
FFFFFF00
FFFFFF00
FFFFFF00
FFFFFF00
FFFFFF00
FFFFFF00
FFFFFF00
FFFFFF00
FFC00000
FFC00000
FFC00000
FFC00000
FFC00000
FFC00000
FFC00000
FFC00000
FFC00000
FFC00000
FFC00000
FFC00000
FFC00000
FFC00000
FFC00000
FFC00000
FFC00000
FFC00000
FFFFFFC0
FFFFFFC0
FFFFFFC0
FFFFFFC0
FFFFFFC0
FFFFFFC0
FFFFFFC0
FFFFFFC0
FFFFFFC0
FFFFFFC0
ENDCHAR
STARTCHAR 0116
ENCODING 278
SWIDTH 754 0
DWIDTH 34 0
BBX 26 76 4 0
BITMAP
00FFC000
00FFC000
00FFC000
00FFC000
00FFC000
00FFC000
00FFC000
00FFC000
00FFC000
00FFC000
00000000
00000000
FFFFFFC0
FFFFFFC0
FFFFFFC0
FFFFFFC0
FFFFFFC0
FFFFFFC0
FFFFFFC0
FFFFFFC0
FFFFFFC0
FFFFFFC0
FFC00000
FFC00000
FFC00000
FFC00000
FFC00000
FFC00000
FFC00000
FFC00000
FFC00000
FFC00000
FFC00000
FFC00000
FFC00000
FFC00000
FFC00000
FFC00000
FFFFFF00
FFFFFF00
FFFFFF00
FFFFFF00
FFFFFF00
FFFFFF00
FFFFFF00
FFFFFF00
FFFFFF00
FFFFFF00
FFC00000
FFC00000
FFC00000
FFC00000
FFC00000
FFC00000
FFC00000
FFC00000
FFC00000
FFC00000
FFC00000
FFC00000
FFC00000
FFC00000
FFC00000
FFC00000
FFC00000
FFC00000
FFFFFFC0
FFFFFFC0
FFFFFFC0
FFFFFFC0
FFFFFFC0
FFFFFFC0
FFFFFFC0
FFFFFFC0
FFFFFFC0
FFFFFFC0
ENDCHAR
STARTCHAR 0117
ENCODING 279
SWIDTH 754 0
DWIDTH 34 0
BBX 26 76 4 0
BITMAP
00FFC000
00FFC000
00FFC000
00FFC000
00FFC000
00FFC000
00FFC000
00FFC000
00FFC000
00FFC000
00000000
00000000
FFFFFFC0
FFFFFFC0
FFFFFFC0
FFFFFFC0
FFFFFFC0
FFFFFFC0
FFFFFFC0
FFFFFFC0
FFFFFFC0
FFFFFFC0
FFC00000
FFC00000
FFC00000
FFC00000
FFC00000
FFC00000
FFC00000
FFC00000
FFC00000
FFC00000
FFC00000
FFC00000
FFC00000
FFC00000
FFC00000
FFC00000
FFFFFF00
FFFFFF00
FFFFFF00
FFFFFF00
FFFFFF00
FFFFFF00
FFFFFF00
FFFFFF00
FFFFFF00
FFFFFF00
FFC00000
FFC00000
FFC00000
FFC00000
FFC00000
FFC00000
FFC00000
FFC00000
FFC00000
FFC00000
FFC00000
FFC00000
FFC00000
FFC00000
FFC00000
FFC00000
FFC00000
FFC00000
FFFFFFC0
FFFFFFC0
FFFFFFC0
FFFFFFC0
FFFFFFC0
FFFFFFC0
FFFFFFC0
FFFFFFC0
FFFFFFC0
FFFFFFC0
ENDCHAR
STARTCHAR 0118
ENCODING 280
SWIDTH 754 0
DWIDTH 34 0
BBX 26 78 4 -14
BITMAP
FFFFFFC0
FFFFFFC0
FFFFFFC0
FFFFFFC0
FFFFFFC0
FFFFFFC0
FFFFFFC0
FFFFFFC0
FFFFFFC0
FFFFFFC0
FFC00000
FFC00000
FFC00000
FFC00000
FFC00000
FFC00000
FFC00000
FFC00000
FFC00000
FFC00000
FFC00000
FFC00000
FFC00000
FFC00000
FFC00000
FFC00000
FFFFFF00
FFFFFF00
FFFFFF00
FFFFFF00
FFFFFF00
FFFFFF00
FFFFFF00
FFFFFF00
FFFFFF00
FFFFFF00
FFC00000
FFC00000
FFC00000
FFC00000
FFC00000
FFC00000
FFC00000
FFC00000
FFC00000
FFC00000
FFC00000
FFC00000
FFC00000
FFC00000
FFC00000
FFC00000
FFC00000
FFC00000
FFFFFFC0
FFFFFFC0
FFFFFFC0
FFFFFFC0
FFFFFFC0
FFFFFFC0
FFFFFFC0
FFFFFFC0
FFFFFFC0
FFFFFFC0
00003C00
00003C00
0003F000
0003F000
0003F000
0003F000
000FF000
000FF000
000FFFC0
000FFFC0
0003FFC0
0003FFC0
0000FFC0
0000FFC0
ENDCHAR
STARTCHAR 0119
ENCODING 281
SWIDTH 754 0
DWIDTH 34 0
BBX 26 78 4 -14
BITMAP
FFFFFFC0
FFFFFFC0
FFFFFFC0
FFFFFFC0
FFFFFFC0
FFFFFFC0
FFFFFFC0
FFFFFFC0
FFFFFFC0
FFFFFFC0
FFC00000
FFC00000
FFC00000
FFC00000
FFC00000
FFC00000
FFC00000
FFC00000
FFC00000
FFC00000
FFC00000
FFC00000
FFC00000
FFC00000
FFC00000
FFC00000
FFFFFF00
FFFFFF00
FFFFFF00
FFFFFF00
FFFFFF00
FFFFFF00
FFFFFF00
FFFFFF00
FFFFFF00
FFFFFF00
FFC00000
FFC00000
FFC00000
FFC00000
FFC00000
FFC00000
FFC00000
FFC00000
FFC00000
FFC00000
FFC00000
FFC00000
FFC00000
FFC00000
FFC00000
FFC00000
FFC00000
FFC00000
FFFFFFC0
FFFFFFC0
FFFFFFC0
FFFFFFC0
FFFFFFC0
FFFFFFC0
FFFFFFC0
FFFFFFC0
FFFFFFC0
FFFFFFC0
00003C00
00003C00
0003F000
0003F000
0003F000
0003F000
000FF000
000FF000
000FFFC0
000FFFC0
0003FFC0
0003FFC0
0000FFC0
0000FFC0
ENDCHAR
STARTCHAR 011A
ENCODING 282
SWIDTH 754 0
DWIDTH 34 0
BBX 26 76 4 0
BITMAP
FFC0FFC0
FFC0FFC0
0FF3FC00
0FF3FC00
0FFFF000
0FFFF000
03FFF000
03FFF000
00FFC000
00FFC000
00000000
00000000
FFFFFFC0
FFFFFFC0
FFFFFFC0
FFFFFFC0
FFFFFFC0
FFFFFFC0
FFFFFFC0
FFFFFFC0
FFFFFFC0
FFFFFFC0
FFC00000
FFC00000
FFC00000
FFC00000
FFC00000
FFC00000
FFC00000
FFC00000
FFC00000
FFC00000
FFC00000
FFC00000
FFC00000
FFC00000
FFC00000
FFC00000
FFFFFF00
FFFFFF00
FFFFFF00
FFFFFF00
FFFFFF00
FFFFFF00
FFFFFF00
FFFFFF00
FFFFFF00
FFFFFF00
FFC00000
FFC00000
FFC00000
FFC00000
FFC00000
FFC00000
FFC00000
FFC00000
FFC00000
FFC00000
FFC00000
FFC00000
FFC00000
FFC00000
FFC00000
FFC00000
FFC00000
FFC00000
FFFFFFC0
FFFFFFC0
FFFFFFC0
FFFFFFC0
FFFFFFC0
FFFFFFC0
FFFFFFC0
FFFFFFC0
FFFFFFC0
FFFFFFC0
ENDCHAR
STARTCHAR 011B
ENCODING 283
SWIDTH 754 0
DWIDTH 34 0
BBX 26 76 4 0
BITMAP
FFC0FFC0
FFC0FFC0
0FF3FC00
0FF3FC00
0FFFF000
0FFFF000
03FFF000
03FFF000
00FFC000
00FFC000
00000000
00000000
FFFFFFC0
FFFFFFC0
FFFFFFC0
FFFFFFC0
FFFFFFC0
FFFFFFC0
FFFFFFC0
FFFFFFC0
FFFFFFC0
FFFFFFC0
FFC00000
FFC00000
FFC00000
FFC00000
FFC00000
FFC00000
FFC00000
FFC00000
FFC00000
FFC00000
FFC00000
FFC00000
FFC00000
FFC00000
FFC00000
FFC00000
FFFFFF00
FFFFFF00
FFFFFF00
FFFFFF00
FFFFFF00
FFFFFF00
FFFFFF00
FFFFFF00
FFFFFF00
FFFFFF00
FFC00000
FFC00000
FFC00000
FFC00000
FFC00000
FFC00000
FFC00000
FFC00000
FFC00000
FFC00000
FFC00000
FFC00000
FFC00000
FFC00000
FFC00000
FFC00000
FFC00000
FFC00000
FFFFFFC0
FFFFFFC0
FFFFFFC0
FFFFFFC0
FFFFFFC0
FFFFFFC0
FFFFFFC0
FFFFFFC0
FFFFFFC0
FFFFFFC0
ENDCHAR
STARTCHAR 011C
ENCODING 284
SWIDTH 800 0
DWIDTH 36 0
BBX 30 78 2 0
BITMAP
003FF000
003FF000
003FFC00
003FFC00
00FFFF00
00FFFF00
03FCFFC0
03FCFFC0
0FF03FF0
0FF03FF0
00000000
00000000
00000000
00000000
003FFC00
003FFC00
03FFFFC0
03FFFFC0
0FFFFFF0
0FFFFFF0
3FFFFFF0
3FFFFFF0
3FFFFFFC
3FFFFFFC
3FF00FFC
3FF00FFC
FFC00FFC
FFC00FFC
FFC00FFC
FFC00FFC
FFC00FFC
FFC00FFC
FFC00FFC
FFC00FFC
FFC00FFC
FFC00FFC
FFC00000
FFC00000
FFC00000
FFC00000
FFC00000
FFC00000
FFC0FFFC
FFC0FFFC
FFC0FFFC
FFC0FFFC
FFC0FFFC
FFC0FFFC
FFC0FFFC
FFC0FFFC
FFC0FFFC
FFC0FFFC
FFC00FFC
FFC00FFC
FFC00FFC
FFC00FFC
FFC00FFC
FFC00FFC
FFC00FFC
FFC00FFC
FFC00FFC
FFC00FFC
FFC00FFC
FFC00FFC
FFC00FFC
FFC00FFC
3FF00FFC
3FF00FFC
3FFFFFFC
3FFFFFFC
3FFFFFF0
3FFFFFF0
0FFFFFF0
0FFFFFF0
03FFFFC0
03FFFFC0
003FFC00
003FFC00
ENDCHAR
STARTCHAR 011D
ENCODING 285
SWIDTH 800 0
DWIDTH 36 0
BBX 30 78 2 0
BITMAP
003FF000
003FF000
003FFC00
003FFC00
00FFFF00
00FFFF00
03FCFFC0
03FCFFC0
0FF03FF0
0FF03FF0
00000000
00000000
00000000
00000000
003FFC00
003FFC00
03FFFFC0
03FFFFC0
0FFFFFF0
0FFFFFF0
3FFFFFF0
3FFFFFF0
3FFFFFFC
3FFFFFFC
3FF00FFC
3FF00FFC
FFC00FFC
FFC00FFC
FFC00FFC
FFC00FFC
FFC00FFC
FFC00FFC
FFC00FFC
FFC00FFC
FFC00FFC
FFC00FFC
FFC00000
FFC00000
FFC00000
FFC00000
FFC00000
FFC00000
FFC0FFFC
FFC0FFFC
FFC0FFFC
FFC0FFFC
FFC0FFFC
FFC0FFFC
FFC0FFFC
FFC0FFFC
FFC0FFFC
FFC0FFFC
FFC00FFC
FFC00FFC
FFC00FFC
FFC00FFC
FFC00FFC
FFC00FFC
FFC00FFC
FFC00FFC
FFC00FFC
FFC00FFC
FFC00FFC
FFC00FFC
FFC00FFC
FFC00FFC
3FF00FFC
3FF00FFC
3FFFFFFC
3FFFFFFC
3FFFFFF0
3FFFFFF0
0FFFFFF0
0FFFFFF0
03FFFFC0
03FFFFC0
003FFC00
003FFC00
ENDCHAR
STARTCHAR 011E
ENCODING 286
SWIDTH 800 0
DWIDTH 36 0
BBX 30 78 2 0
BITMAP
03F00FC0
03F00FC0
03F03FC0
03F03FC0
03FFFF00
03FFFF00
00FFFF00
00FFFF00
003FF000
003FF000
00000000
00000000
00000000
00000000
003FFC00
003FFC00
03FFFFC0
03FFFFC0
0FFFFFF0
0FFFFFF0
3FFFFFF0
3FFFFFF0
3FFFFFFC
3FFFFFFC
3FF00FFC
3FF00FFC
FFC00FFC
FFC00FFC
FFC00FFC
FFC00FFC
FFC00FFC
FFC00FFC
FFC00FFC
FFC00FFC
FFC00FFC
FFC00FFC
FFC00000
FFC00000
FFC00000
FFC00000
FFC00000
FFC00000
FFC0FFFC
FFC0FFFC
FFC0FFFC
FFC0FFFC
FFC0FFFC
FFC0FFFC
FFC0FFFC
FFC0FFFC
FFC0FFFC
FFC0FFFC
FFC00FFC
FFC00FFC
FFC00FFC
FFC00FFC
FFC00FFC
FFC00FFC
FFC00FFC
FFC00FFC
FFC00FFC
FFC00FFC
FFC00FFC
FFC00FFC
FFC00FFC
FFC00FFC
3FF00FFC
3FF00FFC
3FFFFFFC
3FFFFFFC
3FFFFFF0
3FFFFFF0
0FFFFFF0
0FFFFFF0
03FFFFC0
03FFFFC0
003FFC00
003FFC00
ENDCHAR
STARTCHAR 011F
ENCODING 287
SWIDTH 800 0
DWIDTH 36 0
BBX 30 78 2 0
BITMAP
03F00FC0
03F00FC0
03F03FC0
03F03FC0
03FFFF00
03FFFF00
00FFFF00
00FFFF00
003FF000
003FF000
00000000
00000000
00000000
00000000
003FFC00
003FFC00
03FFFFC0
03FFFFC0
0FFFFFF0
0FFFFFF0
3FFFFFF0
3FFFFFF0
3FFFFFFC
3FFFFFFC
3FF00FFC
3FF00FFC
FFC00FFC
FFC00FFC
FFC00FFC
FFC00FFC
FFC00FFC
FFC00FFC
FFC00FFC
FFC00FFC
FFC00FFC
FFC00FFC
FFC00000
FFC00000
FFC00000
FFC00000
FFC00000
FFC00000
FFC0FFFC
FFC0FFFC
FFC0FFFC
FFC0FFFC
FFC0FFFC
FFC0FFFC
FFC0FFFC
FFC0FFFC
FFC0FFFC
FFC0FFFC
FFC00FFC
FFC00FFC
FFC00FFC
FFC00FFC
FFC00FFC
FFC00FFC
FFC00FFC
FFC00FFC
FFC00FFC
FFC00FFC
FFC00FFC
FFC00FFC
FFC00FFC
FFC00FFC
3FF00FFC
3FF00FFC
3FFFFFFC
3FFFFFFC
3FFFFFF0
3FFFFFF0
0FFFFFF0
0FFFFFF0
03FFFFC0
03FFFFC0
003FFC00
003FFC00
ENDCHAR
STARTCHAR 0120
ENCODING 288
SWIDTH 800 0
DWIDTH 36 0
BBX 30 76 2 0
BITMAP
000FF000
000FF000
000FF000
000FF000
000FF000
000FF000
000FF000
000FF000
000FF000
000FF000
00000000
00000000
003FFC00
003FFC00
03FFFFC0
03FFFFC0
0FFFFFF0
0FFFFFF0
3FFFFFF0
3FFFFFF0
3FFFFFFC
3FFFFFFC
3FF00FFC
3FF00FFC
FFC00FFC
FFC00FFC
FFC00FFC
FFC00FFC
FFC00FFC
FFC00FFC
FFC00FFC
FFC00FFC
FFC00FFC
FFC00FFC
FFC00000
FFC00000
FFC00000
FFC00000
FFC00000
FFC00000
FFC0FFFC
FFC0FFFC
FFC0FFFC
FFC0FFFC
FFC0FFFC
FFC0FFFC
FFC0FFFC
FFC0FFFC
FFC0FFFC
FFC0FFFC
FFC00FFC
FFC00FFC
FFC00FFC
FFC00FFC
FFC00FFC
FFC00FFC
FFC00FFC
FFC00FFC
FFC00FFC
FFC00FFC
FFC00FFC
FFC00FFC
FFC00FFC
FFC00FFC
3FF00FFC
3FF00FFC
3FFFFFFC
3FFFFFFC
3FFFFFF0
3FFFFFF0
0FFFFFF0
0FFFFFF0
03FFFFC0
03FFFFC0
003FFC00
003FFC00
ENDCHAR
STARTCHAR 0121
ENCODING 289
SWIDTH 800 0
DWIDTH 36 0
BBX 30 76 2 0
BITMAP
000FF000
000FF000
000FF000
000FF000
000FF000
000FF000
000FF000
000FF000
000FF000
000FF000
00000000
00000000
003FFC00
003FFC00
03FFFFC0
03FFFFC0
0FFFFFF0
0FFFFFF0
3FFFFFF0
3FFFFFF0
3FFFFFFC
3FFFFFFC
3FF00FFC
3FF00FFC
FFC00FFC
FFC00FFC
FFC00FFC
FFC00FFC
FFC00FFC
FFC00FFC
FFC00FFC
FFC00FFC
FFC00FFC
FFC00FFC
FFC00000
FFC00000
FFC00000
FFC00000
FFC00000
FFC00000
FFC0FFFC
FFC0FFFC
FFC0FFFC
FFC0FFFC
FFC0FFFC
FFC0FFFC
FFC0FFFC
FFC0FFFC
FFC0FFFC
FFC0FFFC
FFC00FFC
FFC00FFC
FFC00FFC
FFC00FFC
FFC00FFC
FFC00FFC
FFC00FFC
FFC00FFC
FFC00FFC
FFC00FFC
FFC00FFC
FFC00FFC
FFC00FFC
FFC00FFC
3FF00FFC
3FF00FFC
3FFFFFFC
3FFFFFFC
3FFFFFF0
3FFFFFF0
0FFFFFF0
0FFFFFF0
03FFFFC0
03FFFFC0
003FFC00
003FFC00
ENDCHAR
STARTCHAR 0122
ENCODING 290
SWIDTH 800 0
DWIDTH 36 0
BBX 30 78 2 -14
BITMAP
003FFC00
003FFC00
03FFFFC0
03FFFFC0
0FFFFFF0
0FFFFFF0
3FFFFFF0
3FFFFFF0
3FFFFFFC
3FFFFFFC
3FF00FFC
3FF00FFC
FFC00FFC
FFC00FFC
FFC00FFC
FFC00FFC
FFC00FFC
FFC00FFC
FFC00FFC
FFC00FFC
FFC00FFC
FFC00FFC
FFC00000
FFC00000
FFC00000
FFC00000
FFC00000
FFC00000
FFC0FFFC
FFC0FFFC
FFC0FFFC
FFC0FFFC
FFC0FFFC
FFC0FFFC
FFC0FFFC
FFC0FFFC
FFC0FFFC
FFC0FFFC
FFC00FFC
FFC00FFC
FFC00FFC
FFC00FFC
FFC00FFC
FFC00FFC
FFC00FFC
FFC00FFC
FFC00FFC
FFC00FFC
FFC00FFC
FFC00FFC
FFC00FFC
FFC00FFC
3FF00FFC
3FF00FFC
3FFFFFFC
3FFFFFFC
3FFFFFF0
3FFFFFF0
0FFFFFF0
0FFFFFF0
03FFFFC0
03FFFFC0
003FFC00
003FFC00
00000000
00000000
000FF000
000FF000
000FF000
000FF000
000FF000
000FF000
000FF000
000FF000
000FC000
000FC000
000FC000
000FC000
ENDCHAR
STARTCHAR 0123
ENCODING 291
SWIDTH 800 0
DWIDTH 36 0
BBX 30 78 2 -14
BITMAP
003FFC00
003FFC00
03FFFFC0
03FFFFC0
0FFFFFF0
0FFFFFF0
3FFFFFF0
3FFFFFF0
3FFFFFFC
3FFFFFFC
3FF00FFC
3FF00FFC
FFC00FFC
FFC00FFC
FFC00FFC
FFC00FFC
FFC00FFC
FFC00FFC
FFC00FFC
FFC00FFC
FFC00FFC
FFC00FFC
FFC00000
FFC00000
FFC00000
FFC00000
FFC00000
FFC00000
FFC0FFFC
FFC0FFFC
FFC0FFFC
FFC0FFFC
FFC0FFFC
FFC0FFFC
FFC0FFFC
FFC0FFFC
FFC0FFFC
FFC0FFFC
FFC00FFC
FFC00FFC
FFC00FFC
FFC00FFC
FFC00FFC
FFC00FFC
FFC00FFC
FFC00FFC
FFC00FFC
FFC00FFC
FFC00FFC
FFC00FFC
FFC00FFC
FFC00FFC
3FF00FFC
3FF00FFC
3FFFFFFC
3FFFFFFC
3FFFFFF0
3FFFFFF0
0FFFFFF0
0FFFFFF0
03FFFFC0
03FFFFC0
003FFC00
003FFC00
00000000
00000000
000FF000
000FF000
000FF000
000FF000
000FF000
000FF000
000FF000
000FF000
000FC000
000FC000
000FC000
000FC000
ENDCHAR
STARTCHAR 0124
ENCODING 292
SWIDTH 844 0
DWIDTH 38 0
BBX 30 76 4 0
BITMAP
003FF000
003FF000
00FFFC00
00FFFC00
03FCFF00
03FCFF00
0FFC3FC0
0FFC3FC0
3FF00FF0
3FF00FF0
00000000
00000000
FFC00FFC
FFC00FFC
FFC00FFC
FFC00FFC
FFC00FFC
FFC00FFC
FFC00FFC
FFC00FFC
FFC00FFC
FFC00FFC
FFC00FFC
FFC00FFC
FFC00FFC
FFC00FFC
FFC00FFC
FFC00FFC
FFC00FFC
FFC00FFC
FFC00FFC
FFC00FFC
FFC00FFC
FFC00FFC
FFC00FFC
FFC00FFC
FFC00FFC
FFC00FFC
FFC00FFC
FFC00FFC
FFFFFFFC
FFFFFFFC
FFFFFFFC
FFFFFFFC
FFFFFFFC
FFFFFFFC
FFFFFFFC
FFFFFFFC
FFFFFFFC
FFFFFFFC
FFC00FFC
FFC00FFC
FFC00FFC
FFC00FFC
FFC00FFC
FFC00FFC
FFC00FFC
FFC00FFC
FFC00FFC
FFC00FFC
FFC00FFC
FFC00FFC
FFC00FFC
FFC00FFC
FFC00FFC
FFC00FFC
FFC00FFC
FFC00FFC
FFC00FFC
FFC00FFC
FFC00FFC
FFC00FFC
FFC00FFC
FFC00FFC
FFC00FFC
FFC00FFC
ENDCHAR
STARTCHAR 0125
ENCODING 293
SWIDTH 844 0
DWIDTH 38 0
BBX 30 76 4 0
BITMAP
003FF000
003FF000
00FFFC00
00FFFC00
03FCFF00
03FCFF00
0FFC3FC0
0FFC3FC0
3FF00FF0
3FF00FF0
00000000
00000000
FFC00FFC
FFC00FFC
FFC00FFC
FFC00FFC
FFC00FFC
FFC00FFC
FFC00FFC
FFC00FFC
FFC00FFC
FFC00FFC
FFC00FFC
FFC00FFC
FFC00FFC
FFC00FFC
FFC00FFC
FFC00FFC
FFC00FFC
FFC00FFC
FFC00FFC
FFC00FFC
FFC00FFC
FFC00FFC
FFC00FFC
FFC00FFC
FFC00FFC
FFC00FFC
FFC00FFC
FFC00FFC
FFFFFFFC
FFFFFFFC
FFFFFFFC
FFFFFFFC
FFFFFFFC
FFFFFFFC
FFFFFFFC
FFFFFFFC
FFFFFFFC
FFFFFFFC
FFC00FFC
FFC00FFC
FFC00FFC
FFC00FFC
FFC00FFC
FFC00FFC
FFC00FFC
FFC00FFC
FFC00FFC
FFC00FFC
FFC00FFC
FFC00FFC
FFC00FFC
FFC00FFC
FFC00FFC
FFC00FFC
FFC00FFC
FFC00FFC
FFC00FFC
FFC00FFC
FFC00FFC
FFC00FFC
FFC00FFC
FFC00FFC
FFC00FFC
FFC00FFC
ENDCHAR
STARTCHAR 0126
ENCODING 294
SWIDTH 888 0
DWIDTH 40 0
BBX 38 64 0 0
BITMAP
0FFC003FF0
0FFC003FF0
0FFC003FF0
0FFC003FF0
0FFC003FF0
0FFC003FF0
0FFC003FF0
0FFC003FF0
0FFC003FF0
0FFC003FF0
FFFFFFFFFC
FFFFFFFFFC
FFFFFFFFFC
FFFFFFFFFC
FFFFFFFFFC
FFFFFFFFFC
FFFFFFFFFC
FFFFFFFFFC
0FFC003FF0
0FFC003FF0
0FFC003FF0
0FFC003FF0
0FFC003FF0
0FFC003FF0
0FFC003FF0
0FFC003FF0
0FFC003FF0
0FFC003FF0
0FFFFFFFF0
0FFFFFFFF0
0FFFFFFFF0
0FFFFFFFF0
0FFFFFFFF0
0FFFFFFFF0
0FFFFFFFF0
0FFFFFFFF0
0FFFFFFFF0
0FFFFFFFF0
0FFC003FF0
0FFC003FF0
0FFC003FF0
0FFC003FF0
0FFC003FF0
0FFC003FF0
0FFC003FF0
0FFC003FF0
0FFC003FF0
0FFC003FF0
0FFC003FF0
0FFC003FF0
0FFC003FF0
0FFC003FF0
0FFC003FF0
0FFC003FF0
0FFC003FF0
0FFC003FF0
0FFC003FF0
0FFC003FF0
0FFC003FF0
0FFC003FF0
0FFC003FF0
0FFC003FF0
0FFC003FF0
0FFC003FF0
ENDCHAR
STARTCHAR 0127
ENCODING 295
SWIDTH 888 0
DWIDTH 40 0
BBX 38 64 0 0
BITMAP
0FFC003FF0
0FFC003FF0
0FFC003FF0
0FFC003FF0
0FFC003FF0
0FFC003FF0
0FFC003FF0
0FFC003FF0
0FFC003FF0
0FFC003FF0
FFFFFFFFFC
FFFFFFFFFC
FFFFFFFFFC
FFFFFFFFFC
FFFFFFFFFC
FFFFFFFFFC
FFFFFFFFFC
FFFFFFFFFC
0FFC003FF0
0FFC003FF0
0FFC003FF0
0FFC003FF0
0FFC003FF0
0FFC003FF0
0FFC003FF0
0FFC003FF0
0FFC003FF0
0FFC003FF0
0FFFFFFFF0
0FFFFFFFF0
0FFFFFFFF0
0FFFFFFFF0
0FFFFFFFF0
0FFFFFFFF0
0FFFFFFFF0
0FFFFFFFF0
0FFFFFFFF0
0FFFFFFFF0
0FFC003FF0
0FFC003FF0
0FFC003FF0
0FFC003FF0
0FFC003FF0
0FFC003FF0
0FFC003FF0
0FFC003FF0
0FFC003FF0
0FFC003FF0
0FFC003FF0
0FFC003FF0
0FFC003FF0
0FFC003FF0
0FFC003FF0
0FFC003FF0
0FFC003FF0
0FFC003FF0
0FFC003FF0
0FFC003FF0
0FFC003FF0
0FFC003FF0
0FFC003FF0
0FFC003FF0
0FFC003FF0
0FFC003FF0
ENDCHAR
STARTCHAR 0128
ENCODING 296
SWIDTH 400 0
DWIDTH 18 0
BBX 24 76 -4 0
BITMAP
0FF03C
0FF03C
3FFFFF
3FFFFF
FFFFFF
FFFFFF
3C0FFC
3C0FFC
000000
000000
000000
000000
00FFC0
00FFC0
00FFC0
00FFC0
00FFC0
00FFC0
00FFC0
00FFC0
00FFC0
00FFC0
00FFC0
00FFC0
00FFC0
00FFC0
00FFC0
00FFC0
00FFC0
00FFC0
00FFC0
00FFC0
00FFC0
00FFC0
00FFC0
00FFC0
00FFC0
00FFC0
00FFC0
00FFC0
00FFC0
00FFC0
00FFC0
00FFC0
00FFC0
00FFC0
00FFC0
00FFC0
00FFC0
00FFC0
00FFC0
00FFC0
00FFC0
00FFC0
00FFC0
00FFC0
00FFC0
00FFC0
00FFC0
00FFC0
00FFC0
00FFC0
00FFC0
00FFC0
00FFC0
00FFC0
00FFC0
00FFC0
00FFC0
00FFC0
00FFC0
00FFC0
00FFC0
00FFC0
00FFC0
00FFC0
ENDCHAR
STARTCHAR 0129
ENCODING 297
SWIDTH 400 0
DWIDTH 18 0
BBX 24 76 -4 0
BITMAP
0FF03C
0FF03C
3FFFFF
3FFFFF
FFFFFF
FFFFFF
3C0FFC
3C0FFC
000000
000000
000000
000000
00FFC0
00FFC0
00FFC0
00FFC0
00FFC0
00FFC0
00FFC0
00FFC0
00FFC0
00FFC0
00FFC0
00FFC0
00FFC0
00FFC0
00FFC0
00FFC0
00FFC0
00FFC0
00FFC0
00FFC0
00FFC0
00FFC0
00FFC0
00FFC0
00FFC0
00FFC0
00FFC0
00FFC0
00FFC0
00FFC0
00FFC0
00FFC0
00FFC0
00FFC0
00FFC0
00FFC0
00FFC0
00FFC0
00FFC0
00FFC0
00FFC0
00FFC0
00FFC0
00FFC0
00FFC0
00FFC0
00FFC0
00FFC0
00FFC0
00FFC0
00FFC0
00FFC0
00FFC0
00FFC0
00FFC0
00FFC0
00FFC0
00FFC0
00FFC0
00FFC0
00FFC0
00FFC0
00FFC0
00FFC0
ENDCHAR
STARTCHAR 012A
ENCODING 298
SWIDTH 400 0
DWIDTH 18 0
BBX 20 74 -2 0
BITMAP
FFFFF0
FFFFF0
FFFFF0
FFFFF0
FFFFF0
FFFFF0
FFFFF0
FFFFF0
000000
000000
03FF00
03FF00
03FF00
03FF00
03FF00
03FF00
03FF00
03FF00
03FF00
03FF00
03FF00
03FF00
03FF00
03FF00
03FF00
03FF00
03FF00
03FF00
03FF00
03FF00
03FF00
03FF00
03FF00
03FF00
03FF00
03FF00
03FF00
03FF00
03FF00
03FF00
03FF00
03FF00
03FF00
03FF00
03FF00
03FF00
03FF00
03FF00
03FF00
03FF00
03FF00
03FF00
03FF00
03FF00
03FF00
03FF00
03FF00
03FF00
03FF00
03FF00
03FF00
03FF00
03FF00
03FF00
03FF00
03FF00
03FF00
03FF00
03FF00
03FF00
03FF00
03FF00
03FF00
03FF00
ENDCHAR
STARTCHAR 012B
ENCODING 299
SWIDTH 400 0
DWIDTH 18 0
BBX 20 74 -2 0
BITMAP
FFFFF0
FFFFF0
FFFFF0
FFFFF0
FFFFF0
FFFFF0
FFFFF0
FFFFF0
000000
000000
03FF00
03FF00
03FF00
03FF00
03FF00
03FF00
03FF00
03FF00
03FF00
03FF00
03FF00
03FF00
03FF00
03FF00
03FF00
03FF00
03FF00
03FF00
03FF00
03FF00
03FF00
03FF00
03FF00
03FF00
03FF00
03FF00
03FF00
03FF00
03FF00
03FF00
03FF00
03FF00
03FF00
03FF00
03FF00
03FF00
03FF00
03FF00
03FF00
03FF00
03FF00
03FF00
03FF00
03FF00
03FF00
03FF00
03FF00
03FF00
03FF00
03FF00
03FF00
03FF00
03FF00
03FF00
03FF00
03FF00
03FF00
03FF00
03FF00
03FF00
03FF00
03FF00
03FF00
03FF00
ENDCHAR
STARTCHAR 012C
ENCODING 300
SWIDTH 400 0
DWIDTH 18 0
BBX 20 78 -2 0
BITMAP
FC03F0
FC03F0
FC03F0
FC03F0
FF03F0
FF03F0
3FFFF0
3FFFF0
3FFFC0
3FFFC0
03FF00
03FF00
000000
000000
03FF00
03FF00
03FF00
03FF00
03FF00
03FF00
03FF00
03FF00
03FF00
03FF00
03FF00
03FF00
03FF00
03FF00
03FF00
03FF00
03FF00
03FF00
03FF00
03FF00
03FF00
03FF00
03FF00
03FF00
03FF00
03FF00
03FF00
03FF00
03FF00
03FF00
03FF00
03FF00
03FF00
03FF00
03FF00
03FF00
03FF00
03FF00
03FF00
03FF00
03FF00
03FF00
03FF00
03FF00
03FF00
03FF00
03FF00
03FF00
03FF00
03FF00
03FF00
03FF00
03FF00
03FF00
03FF00
03FF00
03FF00
03FF00
03FF00
03FF00
03FF00
03FF00
03FF00
03FF00
ENDCHAR
STARTCHAR 012D
ENCODING 301
SWIDTH 400 0
DWIDTH 18 0
BBX 20 78 -2 0
BITMAP
FC03F0
FC03F0
FC03F0
FC03F0
FF03F0
FF03F0
3FFFF0
3FFFF0
3FFFC0
3FFFC0
03FF00
03FF00
000000
000000
03FF00
03FF00
03FF00
03FF00
03FF00
03FF00
03FF00
03FF00
03FF00
03FF00
03FF00
03FF00
03FF00
03FF00
03FF00
03FF00
03FF00
03FF00
03FF00
03FF00
03FF00
03FF00
03FF00
03FF00
03FF00
03FF00
03FF00
03FF00
03FF00
03FF00
03FF00
03FF00
03FF00
03FF00
03FF00
03FF00
03FF00
03FF00
03FF00
03FF00
03FF00
03FF00
03FF00
03FF00
03FF00
03FF00
03FF00
03FF00
03FF00
03FF00
03FF00
03FF00
03FF00
03FF00
03FF00
03FF00
03FF00
03FF00
03FF00
03FF00
03FF00
03FF00
03FF00
03FF00
ENDCHAR
STARTCHAR 012E
ENCODING 302
SWIDTH 400 0
DWIDTH 18 0
BBX 14 78 2 -14
BITMAP
3FF0
3FF0
3FF0
3FF0
3FF0
3FF0
3FF0
3FF0
3FF0
3FF0
3FF0
3FF0
3FF0
3FF0
3FF0
3FF0
3FF0
3FF0
3FF0
3FF0
3FF0
3FF0
3FF0
3FF0
3FF0
3FF0
3FF0
3FF0
3FF0
3FF0
3FF0
3FF0
3FF0
3FF0
3FF0
3FF0
3FF0
3FF0
3FF0
3FF0
3FF0
3FF0
3FF0
3FF0
3FF0
3FF0
3FF0
3FF0
3FF0
3FF0
3FF0
3FF0
3FF0
3FF0
3FF0
3FF0
3FF0
3FF0
3FF0
3FF0
3FF0
3FF0
3FF0
3FF0
0F00
0F00
3F00
3F00
FF00
FF00
FF00
FF00
FFFC
FFFC
FFFC
FFFC
3FF0
3FF0
ENDCHAR
STARTCHAR 012F
ENCODING 303
SWIDTH 400 0
DWIDTH 18 0
BBX 14 78 2 -14
BITMAP
3FF0
3FF0
3FF0
3FF0
3FF0
3FF0
3FF0
3FF0
3FF0
3FF0
3FF0
3FF0
3FF0
3FF0
3FF0
3FF0
3FF0
3FF0
3FF0
3FF0
3FF0
3FF0
3FF0
3FF0
3FF0
3FF0
3FF0
3FF0
3FF0
3FF0
3FF0
3FF0
3FF0
3FF0
3FF0
3FF0
3FF0
3FF0
3FF0
3FF0
3FF0
3FF0
3FF0
3FF0
3FF0
3FF0
3FF0
3FF0
3FF0
3FF0
3FF0
3FF0
3FF0
3FF0
3FF0
3FF0
3FF0
3FF0
3FF0
3FF0
3FF0
3FF0
3FF0
3FF0
0F00
0F00
3F00
3F00
FF00
FF00
FF00
FF00
FFFC
FFFC
FFFC
FFFC
3FF0
3FF0
ENDCHAR
STARTCHAR 0130
ENCODING 304
SWIDTH 400 0
DWIDTH 18 0
BBX 10 76 4 0
BITMAP
FF00
FF00
FF00
FF00
FF00
FF00
FF00
FF00
FF00
FF00
0000
0000
FFC0
FFC0
FFC0
FFC0
FFC0
FFC0
FFC0
FFC0
FFC0
FFC0
FFC0
FFC0
FFC0
FFC0
FFC0
FFC0
FFC0
FFC0
FFC0
FFC0
FFC0
FFC0
FFC0
FFC0
FFC0
FFC0
FFC0
FFC0
FFC0
FFC0
FFC0
FFC0
FFC0
FFC0
FFC0
FFC0
FFC0
FFC0
FFC0
FFC0
FFC0
FFC0
FFC0
FFC0
FFC0
FFC0
FFC0
FFC0
FFC0
FFC0
FFC0
FFC0
FFC0
FFC0
FFC0
FFC0
FFC0
FFC0
FFC0
FFC0
FFC0
FFC0
FFC0
FFC0
ENDCHAR
STARTCHAR 0131
ENCODING 305
SWIDTH 400 0
DWIDTH 18 0
BBX 10 64 4 0
BITMAP
FFC0
FFC0
FFC0
FFC0
FFC0
FFC0
FFC0
FFC0
FFC0
FFC0
FFC0
FFC0
FFC0
FFC0
FFC0
FFC0
FFC0
FFC0
FFC0
FFC0
FFC0
FFC0
FFC0
FFC0
FFC0
FFC0
FFC0
FFC0
FFC0
FFC0
FFC0
FFC0
FFC0
FFC0
FFC0
FFC0
FFC0
FFC0
FFC0
FFC0
FFC0
FFC0
FFC0
FFC0
FFC0
FFC0
FFC0
FFC0
FFC0
FFC0
FFC0
FFC0
FFC0
FFC0
FFC0
FFC0
FFC0
FFC0
FFC0
FFC0
FFC0
FFC0
FFC0
FFC0
ENDCHAR
STARTCHAR 0132
ENCODING 306
SWIDTH 888 0
DWIDTH 40 0
BBX 34 64 4 0
BITMAP
FFC000FFC0
FFC000FFC0
FFC000FFC0
FFC000FFC0
FFC000FFC0
FFC000FFC0
FFC000FFC0
FFC000FFC0
FFC000FFC0
FFC000FFC0
FFC000FFC0
FFC000FFC0
FFC000FFC0
FFC000FFC0
FFC000FFC0
FFC000FFC0
FFC000FFC0
FFC000FFC0
FFC000FFC0
FFC000FFC0
FFC000FFC0
FFC000FFC0
FFC000FFC0
FFC000FFC0
FFC000FFC0
FFC000FFC0
FFC000FFC0
FFC000FFC0
FFC000FFC0
FFC000FFC0
FFC000FFC0
FFC000FFC0
FFC000FFC0
FFC000FFC0
FFC000FFC0
FFC000FFC0
FFC000FFC0
FFC000FFC0
FFC000FFC0
FFC000FFC0
FFC000FFC0
FFC000FFC0
FFC000FFC0
FFC000FFC0
FFC000FFC0
FFC000FFC0
FFC000FFC0
FFC000FFC0
FFC000FF00
FFC000FF00
FFC003FF00
FFC003FF00
FFC003FF00
FFC003FF00
FFC3FFFF00
FFC3FFFF00
FFC3FFFF00
FFC3FFFF00
FFC3FFFC00
FFC3FFFC00
FFC3FFF000
FFC3FFF000
FFC3FF0000
FFC3FF0000
ENDCHAR
STARTCHAR 0133
ENCODING 307
SWIDTH 888 0
DWIDTH 40 0
BBX 34 64 4 0
BITMAP
FFC000FFC0
FFC000FFC0
FFC000FFC0
FFC000FFC0
FFC000FFC0
FFC000FFC0
FFC000FFC0
FFC000FFC0
FFC000FFC0
FFC000FFC0
FFC000FFC0
FFC000FFC0
FFC000FFC0
FFC000FFC0
FFC000FFC0
FFC000FFC0
FFC000FFC0
FFC000FFC0
FFC000FFC0
FFC000FFC0
FFC000FFC0
FFC000FFC0
FFC000FFC0
FFC000FFC0
FFC000FFC0
FFC000FFC0
FFC000FFC0
FFC000FFC0
FFC000FFC0
FFC000FFC0
FFC000FFC0
FFC000FFC0
FFC000FFC0
FFC000FFC0
FFC000FFC0
FFC000FFC0
FFC000FFC0
FFC000FFC0
FFC000FFC0
FFC000FFC0
FFC000FFC0
FFC000FFC0
FFC000FFC0
FFC000FFC0
FFC000FFC0
FFC000FFC0
FFC000FFC0
FFC000FFC0
FFC000FF00
FFC000FF00
FFC003FF00
FFC003FF00
FFC003FF00
FFC003FF00
FFC3FFFF00
FFC3FFFF00
FFC3FFFF00
FFC3FFFF00
FFC3FFFC00
FFC3FFFC00
FFC3FFF000
FFC3FFF000
FFC3FF0000
FFC3FF0000
ENDCHAR
STARTCHAR 0134
ENCODING 308
SWIDTH 532 0
DWIDTH 24 0
BBX 26 76 0 0
BITMAP
00FFC000
00FFC000
03FFF000
03FFF000
0FF3FC00
0FF3FC00
3FF0FF00
3FF0FF00
FFC03FC0
FFC03FC0
00000000
00000000
003FF000
003FF000
003FF000
003FF000
003FF000
003FF000
003FF000
003FF000
003FF000
003FF000
003FF000
003FF000
003FF000
003FF000
003FF000
003FF000
003FF000
003FF000
003FF000
003FF000
003FF000
003FF000
003FF000
003FF000
003FF000
003FF000
003FF000
003FF000
003FF000
003FF000
003FF000
003FF000
003FF000
003FF000
003FF000
003FF000
003FF000
003FF000
003FF000
003FF000
003FF000
003FF000
003FF000
003FF000
003FF000
003FF000
003FF000
003FF000
003FF000
003FF000
003FF000
003FF000
003FF000
003FF000
FFFFC000
FFFFC000
FFFFC000
FFFFC000
FFFFC000
FFFFC000
FFFF0000
FFFF0000
FFF00000
FFF00000
ENDCHAR
STARTCHAR 0135
ENCODING 309
SWIDTH 532 0
DWIDTH 24 0
BBX 26 76 0 0
BITMAP
00FFC000
00FFC000
03FFF000
03FFF000
0FF3FC00
0FF3FC00
3FF0FF00
3FF0FF00
FFC03FC0
FFC03FC0
00000000
00000000
003FF000
003FF000
003FF000
003FF000
003FF000
003FF000
003FF000
003FF000
003FF000
003FF000
003FF000
003FF000
003FF000
003FF000
003FF000
003FF000
003FF000
003FF000
003FF000
003FF000
003FF000
003FF000
003FF000
003FF000
003FF000
003FF000
003FF000
003FF000
003FF000
003FF000
003FF000
003FF000
003FF000
003FF000
003FF000
003FF000
003FF000
003FF000
003FF000
003FF000
003FF000
003FF000
003FF000
003FF000
003FF000
003FF000
003FF000
003FF000
003FF000
003FF000
003FF000
003FF000
003FF000
003FF000
FFFFC000
FFFFC000
FFFFC000
FFFFC000
FFFFC000
FFFFC000
FFFF0000
FFFF0000
FFF00000
FFF00000
ENDCHAR
STARTCHAR 0136
ENCODING 310
SWIDTH 844 0
DWIDTH 38 0
BBX 32 80 4 -16
BITMAP
FFC003FF
FFC003FF
FFC003FC
FFC003FC
FFC00FFC
FFC00FFC
FFC00FFC
FFC00FFC
FFC03FF0
FFC03FF0
FFC03FF0
FFC03FF0
FFC0FFC0
FFC0FFC0
FFC0FFC0
FFC0FFC0
FFC3FF00
FFC3FF00
FFC3FF00
FFC3FF00
FFCFFC00
FFCFFC00
FFCFFC00
FFCFFC00
FFFFF000
FFFFF000
FFFFF000
FFFFF000
FFFFC000
FFFFC000
FFFFF000
FFFFF000
FFFFF000
FFFFF000
FFFFF000
FFFFF000
FFFFFC00
FFFFFC00
FFFFFC00
FFFFFC00
FFF3FF00
FFF3FF00
FFC3FF00
FFC3FF00
FFC3FF00
FFC3FF00
FFC0FFC0
FFC0FFC0
FFC0FFC0
FFC0FFC0
FFC03FF0
FFC03FF0
FFC03FF0
FFC03FF0
FFC03FF0
FFC03FF0
FFC00FFC
FFC00FFC
FFC00FFC
FFC00FFC
FFC003FF
FFC003FF
FFC003FF
FFC003FF
00000000
00000000
000FF000
000FF000
000FF000
000FF000
000FF000
000FF000
000FF000
000FF000
000FF000
000FF000
0003C000
0003C000
000F0000
000F0000
ENDCHAR
STARTCHAR 0137
ENCODING 311
SWIDTH 844 0
DWIDTH 38 0
BBX 32 80 4 -16
BITMAP
FFC003FF
FFC003FF
FFC003FC
FFC003FC
FFC00FFC
FFC00FFC
FFC00FFC
FFC00FFC
FFC03FF0
FFC03FF0
FFC03FF0
FFC03FF0
FFC0FFC0
FFC0FFC0
FFC0FFC0
FFC0FFC0
FFC3FF00
FFC3FF00
FFC3FF00
FFC3FF00
FFCFFC00
FFCFFC00
FFCFFC00
FFCFFC00
FFFFF000
FFFFF000
FFFFF000
FFFFF000
FFFFC000
FFFFC000
FFFFF000
FFFFF000
FFFFF000
FFFFF000
FFFFF000
FFFFF000
FFFFFC00
FFFFFC00
FFFFFC00
FFFFFC00
FFF3FF00
FFF3FF00
FFC3FF00
FFC3FF00
FFC3FF00
FFC3FF00
FFC0FFC0
FFC0FFC0
FFC0FFC0
FFC0FFC0
FFC03FF0
FFC03FF0
FFC03FF0
FFC03FF0
FFC03FF0
FFC03FF0
FFC00FFC
FFC00FFC
FFC00FFC
FFC00FFC
FFC003FF
FFC003FF
FFC003FF
FFC003FF
00000000
00000000
000FF000
000FF000
000FF000
000FF000
000FF000
000FF000
000FF000
000FF000
000FF000
000FF000
0003C000
0003C000
000F0000
000F0000
ENDCHAR
STARTCHAR 0138
ENCODING 312
SWIDTH 844 0
DWIDTH 38 0
BBX 32 64 4 0
BITMAP
FFC003FF
FFC003FF
FFC003FC
FFC003FC
FFC00FFC
FFC00FFC
FFC00FFC
FFC00FFC
FFC03FF0
FFC03FF0
FFC03FF0
FFC03FF0
FFC0FFC0
FFC0FFC0
FFC0FFC0
FFC0FFC0
FFC3FF00
FFC3FF00
FFC3FF00
FFC3FF00
FFCFFC00
FFCFFC00
FFCFFC00
FFCFFC00
FFFFF000
FFFFF000
FFFFF000
FFFFF000
FFFFC000
FFFFC000
FFFFF000
FFFFF000
FFFFF000
FFFFF000
FFFFF000
FFFFF000
FFFFFC00
FFFFFC00
FFFFFC00
FFFFFC00
FFF3FF00
FFF3FF00
FFC3FF00
FFC3FF00
FFC3FF00
FFC3FF00
FFC0FFC0
FFC0FFC0
FFC0FFC0
FFC0FFC0
FFC03FF0
FFC03FF0
FFC03FF0
FFC03FF0
FFC03FF0
FFC03FF0
FFC00FFC
FFC00FFC
FFC00FFC
FFC00FFC
FFC003FF
FFC003FF
FFC003FF
FFC003FF
ENDCHAR
STARTCHAR 0139
ENCODING 313
SWIDTH 666 0
DWIDTH 30 0
BBX 26 76 4 0
BITMAP
00FFC000
00FFC000
03FF0000
03FF0000
03FC0000
03FC0000
0FF00000
0FF00000
3FC00000
3FC00000
00000000
00000000
FFC00000
FFC00000
FFC00000
FFC00000
FFC00000
FFC00000
FFC00000
FFC00000
FFC00000
FFC00000
FFC00000
FFC00000
FFC00000
FFC00000
FFC00000
FFC00000
FFC00000
FFC00000
FFC00000
FFC00000
FFC00000
FFC00000
FFC00000
FFC00000
FFC00000
FFC00000
FFC00000
FFC00000
FFC00000
FFC00000
FFC00000
FFC00000
FFC00000
FFC00000
FFC00000
FFC00000
FFC00000
FFC00000
FFC00000
FFC00000
FFC00000
FFC00000
FFC00000
FFC00000
FFC00000
FFC00000
FFC00000
FFC00000
FFC00000
FFC00000
FFC00000
FFC00000
FFC00000
FFC00000
FFFFFFC0
FFFFFFC0
FFFFFFC0
FFFFFFC0
FFFFFFC0
FFFFFFC0
FFFFFFC0
FFFFFFC0
FFFFFFC0
FFFFFFC0
ENDCHAR
STARTCHAR 013A
ENCODING 314
SWIDTH 666 0
DWIDTH 30 0
BBX 26 76 4 0
BITMAP
00FFC000
00FFC000
03FF0000
03FF0000
03FC0000
03FC0000
0FF00000
0FF00000
3FC00000
3FC00000
00000000
00000000
FFC00000
FFC00000
FFC00000
FFC00000
FFC00000
FFC00000
FFC00000
FFC00000
FFC00000
FFC00000
FFC00000
FFC00000
FFC00000
FFC00000
FFC00000
FFC00000
FFC00000
FFC00000
FFC00000
FFC00000
FFC00000
FFC00000
FFC00000
FFC00000
FFC00000
FFC00000
FFC00000
FFC00000
FFC00000
FFC00000
FFC00000
FFC00000
FFC00000
FFC00000
FFC00000
FFC00000
FFC00000
FFC00000
FFC00000
FFC00000
FFC00000
FFC00000
FFC00000
FFC00000
FFC00000
FFC00000
FFC00000
FFC00000
FFC00000
FFC00000
FFC00000
FFC00000
FFC00000
FFC00000
FFFFFFC0
FFFFFFC0
FFFFFFC0
FFFFFFC0
FFFFFFC0
FFFFFFC0
FFFFFFC0
FFFFFFC0
FFFFFFC0
FFFFFFC0
ENDCHAR
STARTCHAR 013B
ENCODING 315
SWIDTH 666 0
DWIDTH 30 0
BBX 26 80 4 -16
BITMAP
FFC00000
FFC00000
FFC00000
FFC00000
FFC00000
FFC00000
FFC00000
FFC00000
FFC00000
FFC00000
FFC00000
FFC00000
FFC00000
FFC00000
FFC00000
FFC00000
FFC00000
FFC00000
FFC00000
FFC00000
FFC00000
FFC00000
FFC00000
FFC00000
FFC00000
FFC00000
FFC00000
FFC00000
FFC00000
FFC00000
FFC00000
FFC00000
FFC00000
FFC00000
FFC00000
FFC00000
FFC00000
FFC00000
FFC00000
FFC00000
FFC00000
FFC00000
FFC00000
FFC00000
FFC00000
FFC00000
FFC00000
FFC00000
FFC00000
FFC00000
FFC00000
FFC00000
FFC00000
FFC00000
FFFFFFC0
FFFFFFC0
FFFFFFC0
FFFFFFC0
FFFFFFC0
FFFFFFC0
FFFFFFC0
FFFFFFC0
FFFFFFC0
FFFFFFC0
00000000
00000000
00FF0000
00FF0000
00FF0000
00FF0000
00FF0000
00FF0000
00FF0000
00FF0000
00FF0000
00FF0000
000F0000
000F0000
003C0000
003C0000
ENDCHAR
STARTCHAR 013C
ENCODING 316
SWIDTH 666 0
DWIDTH 30 0
BBX 26 80 4 -16
BITMAP
FFC00000
FFC00000
FFC00000
FFC00000
FFC00000
FFC00000
FFC00000
FFC00000
FFC00000
FFC00000
FFC00000
FFC00000
FFC00000
FFC00000
FFC00000
FFC00000
FFC00000
FFC00000
FFC00000
FFC00000
FFC00000
FFC00000
FFC00000
FFC00000
FFC00000
FFC00000
FFC00000
FFC00000
FFC00000
FFC00000
FFC00000
FFC00000
FFC00000
FFC00000
FFC00000
FFC00000
FFC00000
FFC00000
FFC00000
FFC00000
FFC00000
FFC00000
FFC00000
FFC00000
FFC00000
FFC00000
FFC00000
FFC00000
FFC00000
FFC00000
FFC00000
FFC00000
FFC00000
FFC00000
FFFFFFC0
FFFFFFC0
FFFFFFC0
FFFFFFC0
FFFFFFC0
FFFFFFC0
FFFFFFC0
FFFFFFC0
FFFFFFC0
FFFFFFC0
00000000
00000000
00FF0000
00FF0000
00FF0000
00FF0000
00FF0000
00FF0000
00FF0000
00FF0000
00FF0000
00FF0000
000F0000
000F0000
003C0000
003C0000
ENDCHAR
STARTCHAR 013D
ENCODING 317
SWIDTH 666 0
DWIDTH 30 0
BBX 26 64 4 0
BITMAP
FFC3FF00
FFC3FF00
FFC3FF00
FFC3FF00
FFC3FF00
FFC3FF00
FFC3FF00
FFC3FF00
FFC3FF00
FFC3FF00
FFC03F00
FFC03F00
FFC03C00
FFC03C00
FFC03C00
FFC03C00
FFC0F000
FFC0F000
FFC00000
FFC00000
FFC00000
FFC00000
FFC00000
FFC00000
FFC00000
FFC00000
FFC00000
FFC00000
FFC00000
FFC00000
FFC00000
FFC00000
FFC00000
FFC00000
FFC00000
FFC00000
FFC00000
FFC00000
FFC00000
FFC00000
FFC00000
FFC00000
FFC00000
FFC00000
FFC00000
FFC00000
FFC00000
FFC00000
FFC00000
FFC00000
FFC00000
FFC00000
FFC00000
FFC00000
FFFFFFC0
FFFFFFC0
FFFFFFC0
FFFFFFC0
FFFFFFC0
FFFFFFC0
FFFFFFC0
FFFFFFC0
FFFFFFC0
FFFFFFC0
ENDCHAR
STARTCHAR 013E
ENCODING 318
SWIDTH 666 0
DWIDTH 30 0
BBX 26 64 4 0
BITMAP
FFC3FF00
FFC3FF00
FFC3FF00
FFC3FF00
FFC3FF00
FFC3FF00
FFC3FF00
FFC3FF00
FFC3FF00
FFC3FF00
FFC03F00
FFC03F00
FFC03C00
FFC03C00
FFC03C00
FFC03C00
FFC0F000
FFC0F000
FFC00000
FFC00000
FFC00000
FFC00000
FFC00000
FFC00000
FFC00000
FFC00000
FFC00000
FFC00000
FFC00000
FFC00000
FFC00000
FFC00000
FFC00000
FFC00000
FFC00000
FFC00000
FFC00000
FFC00000
FFC00000
FFC00000
FFC00000
FFC00000
FFC00000
FFC00000
FFC00000
FFC00000
FFC00000
FFC00000
FFC00000
FFC00000
FFC00000
FFC00000
FFC00000
FFC00000
FFFFFFC0
FFFFFFC0
FFFFFFC0
FFFFFFC0
FFFFFFC0
FFFFFFC0
FFFFFFC0
FFFFFFC0
FFFFFFC0
FFFFFFC0
ENDCHAR
STARTCHAR 013F
ENCODING 319
SWIDTH 666 0
DWIDTH 30 0
BBX 26 64 4 0
BITMAP
FFC00000
FFC00000
FFC00000
FFC00000
FFC00000
FFC00000
FFC00000
FFC00000
FFC00000
FFC00000
FFC00000
FFC00000
FFC00000
FFC00000
FFC00000
FFC00000
FFC00000
FFC00000
FFC00000
FFC00000
FFC00000
FFC00000
FFC00000
FFC00000
FFC00000
FFC00000
FFC00000
FFC00000
FFC3FF00
FFC3FF00
FFC3FF00
FFC3FF00
FFC3FF00
FFC3FF00
FFC3FF00
FFC3FF00
FFC3FF00
FFC3FF00
FFC00000
FFC00000
FFC00000
FFC00000
FFC00000
FFC00000
FFC00000
FFC00000
FFC00000
FFC00000
FFC00000
FFC00000
FFC00000
FFC00000
FFC00000
FFC00000
FFFFFFC0
FFFFFFC0
FFFFFFC0
FFFFFFC0
FFFFFFC0
FFFFFFC0
FFFFFFC0
FFFFFFC0
FFFFFFC0
FFFFFFC0
ENDCHAR
STARTCHAR 0140
ENCODING 320
SWIDTH 666 0
DWIDTH 30 0
BBX 26 64 4 0
BITMAP
FFC00000
FFC00000
FFC00000
FFC00000
FFC00000
FFC00000
FFC00000
FFC00000
FFC00000
FFC00000
FFC00000
FFC00000
FFC00000
FFC00000
FFC00000
FFC00000
FFC00000
FFC00000
FFC00000
FFC00000
FFC00000
FFC00000
FFC00000
FFC00000
FFC00000
FFC00000
FFC00000
FFC00000
FFC3FF00
FFC3FF00
FFC3FF00
FFC3FF00
FFC3FF00
FFC3FF00
FFC3FF00
FFC3FF00
FFC3FF00
FFC3FF00
FFC00000
FFC00000
FFC00000
FFC00000
FFC00000
FFC00000
FFC00000
FFC00000
FFC00000
FFC00000
FFC00000
FFC00000
FFC00000
FFC00000
FFC00000
FFC00000
FFFFFFC0
FFFFFFC0
FFFFFFC0
FFFFFFC0
FFFFFFC0
FFFFFFC0
FFFFFFC0
FFFFFFC0
FFFFFFC0
FFFFFFC0
ENDCHAR
STARTCHAR 0141
ENCODING 321
SWIDTH 710 0
DWIDTH 32 0
BBX 30 64 0 0
BITMAP
0FFC0000
0FFC0000
0FFC0000
0FFC0000
0FFC0000
0FFC0000
0FFC0000
0FFC0000
0FFC0000
0FFC0000
0FFC0000
0FFC0000
0FFC0000
0FFC0000
0FFC0000
0FFC0000
0FFC0000
0FFC0000
0FFC0000
0FFC0000
0FFC00C0
0FFC00C0
0FFC03C0
0FFC03C0
0FFC0FC0
0FFC0FC0
0FFC3FC0
0FFC3FC0
0FFCFF00
0FFCFF00
0FFFFC00
0FFFFC00
0FFFF000
0FFFF000
0FFFF000
0FFFF000
0FFFC000
0FFFC000
0FFF0000
0FFF0000
0FFC0000
0FFC0000
0FFC0000
0FFC0000
3FFC0000
3FFC0000
FFFC0000
FFFC0000
FFFC0000
FFFC0000
FFFC0000
FFFC0000
CFFC0000
CFFC0000
CFFFFFFC
CFFFFFFC
0FFFFFFC
0FFFFFFC
0FFFFFFC
0FFFFFFC
0FFFFFFC
0FFFFFFC
0FFFFFFC
0FFFFFFC
ENDCHAR
STARTCHAR 0142
ENCODING 322
SWIDTH 710 0
DWIDTH 32 0
BBX 30 64 0 0
BITMAP
0FFC0000
0FFC0000
0FFC0000
0FFC0000
0FFC0000
0FFC0000
0FFC0000
0FFC0000
0FFC0000
0FFC0000
0FFC0000
0FFC0000
0FFC0000
0FFC0000
0FFC0000
0FFC0000
0FFC0000
0FFC0000
0FFC0000
0FFC0000
0FFC00C0
0FFC00C0
0FFC03C0
0FFC03C0
0FFC0FC0
0FFC0FC0
0FFC3FC0
0FFC3FC0
0FFCFF00
0FFCFF00
0FFFFC00
0FFFFC00
0FFFF000
0FFFF000
0FFFF000
0FFFF000
0FFFC000
0FFFC000
0FFF0000
0FFF0000
0FFC0000
0FFC0000
0FFC0000
0FFC0000
3FFC0000
3FFC0000
FFFC0000
FFFC0000
FFFC0000
FFFC0000
FFFC0000
FFFC0000
CFFC0000
CFFC0000
CFFFFFFC
CFFFFFFC
0FFFFFFC
0FFFFFFC
0FFFFFFC
0FFFFFFC
0FFFFFFC
0FFFFFFC
0FFFFFFC
0FFFFFFC
ENDCHAR
STARTCHAR 0143
ENCODING 323
SWIDTH 844 0
DWIDTH 38 0
BBX 30 76 4 0
BITMAP
0000FFC0
0000FFC0
0003FC00
0003FC00
000FF000
000FF000
000FC000
000FC000
003F0000
003F0000
00000000
00000000
FFF003FC
FFF003FC
FFF003FC
FFF003FC
FFFC03FC
FFFC03FC
FFFC03FC
FFFC03FC
FFFC03FC
FFFC03FC
FFFC03FC
FFFC03FC
FFFF03FC
FFFF03FC
FFFF03FC
FFFF03FC
FFFF03FC
FFFF03FC
FFFF03FC
FFFF03FC
FF3FC3FC
FF3FC3FC
FF3FC3FC
FF3FC3FC
FF3FC3FC
FF3FC3FC
FF3FF3FC
FF3FF3FC
FF0FF3FC
FF0FF3FC
FF0FF3FC
FF0FF3FC
FF0FF3FC
FF0FF3FC
FF0FFFFC
FF0FFFFC
FF03FFFC
FF03FFFC
FF03FFFC
FF03FFFC
FF03FFFC
FF03FFFC
FF00FFFC
FF00FFFC
FF00FFFC
FF00FFFC
FF00FFFC
FF00FFFC
FF00FFFC
FF00FFFC
FF003FFC
FF003FFC
FF003FFC
FF003FFC
FF003FFC
FF003FFC
FF003FFC
FF003FFC
FF000FFC
FF000FFC
FF000FFC
FF000FFC
FF000FFC
FF000FFC
ENDCHAR
STARTCHAR 0144
ENCODING 324
SWIDTH 844 0
DWIDTH 38 0
BBX 30 76 4 0
BITMAP
0000FFC0
0000FFC0
0003FC00
0003FC00
000FF000
000FF000
000FC000
000FC000
003F0000
003F0000
00000000
00000000
FFF003FC
FFF003FC
FFF003FC
FFF003FC
FFFC03FC
FFFC03FC
FFFC03FC
FFFC03FC
FFFC03FC
FFFC03FC
FFFC03FC
FFFC03FC
FFFF03FC
FFFF03FC
FFFF03FC
FFFF03FC
FFFF03FC
FFFF03FC
FFFF03FC
FFFF03FC
FF3FC3FC
FF3FC3FC
FF3FC3FC
FF3FC3FC
FF3FC3FC
FF3FC3FC
FF3FF3FC
FF3FF3FC
FF0FF3FC
FF0FF3FC
FF0FF3FC
FF0FF3FC
FF0FF3FC
FF0FF3FC
FF0FFFFC
FF0FFFFC
FF03FFFC
FF03FFFC
FF03FFFC
FF03FFFC
FF03FFFC
FF03FFFC
FF00FFFC
FF00FFFC
FF00FFFC
FF00FFFC
FF00FFFC
FF00FFFC
FF00FFFC
FF00FFFC
FF003FFC
FF003FFC
FF003FFC
FF003FFC
FF003FFC
FF003FFC
FF003FFC
FF003FFC
FF000FFC
FF000FFC
FF000FFC
FF000FFC
FF000FFC
FF000FFC
ENDCHAR
STARTCHAR 0145
ENCODING 325
SWIDTH 844 0
DWIDTH 38 0
BBX 30 80 4 -16
BITMAP
FFF003FC
FFF003FC
FFF003FC
FFF003FC
FFFC03FC
FFFC03FC
FFFC03FC
FFFC03FC
FFFC03FC
FFFC03FC
FFFC03FC
FFFC03FC
FFFF03FC
FFFF03FC
FFFF03FC
FFFF03FC
FFFF03FC
FFFF03FC
FFFF03FC
FFFF03FC
FF3FC3FC
FF3FC3FC
FF3FC3FC
FF3FC3FC
FF3FC3FC
FF3FC3FC
FF3FF3FC
FF3FF3FC
FF0FF3FC
FF0FF3FC
FF0FF3FC
FF0FF3FC
FF0FF3FC
FF0FF3FC
FF0FFFFC
FF0FFFFC
FF03FFFC
FF03FFFC
FF03FFFC
FF03FFFC
FF03FFFC
FF03FFFC
FF00FFFC
FF00FFFC
FF00FFFC
FF00FFFC
FF00FFFC
FF00FFFC
FF00FFFC
FF00FFFC
FF003FFC
FF003FFC
FF003FFC
FF003FFC
FF003FFC
FF003FFC
FF003FFC
FF003FFC
FF000FFC
FF000FFC
FF000FFC
FF000FFC
FF000FFC
FF000FFC
00000000
00000000
000FF000
000FF000
000FF000
000FF000
000FF000
000FF000
000FF000
000FF000
000FF000
000FF000
0003C000
0003C000
000F0000
000F0000
ENDCHAR
STARTCHAR 0146
ENCODING 326
SWIDTH 844 0
DWIDTH 38 0
BBX 30 80 4 -16
BITMAP
FFF003FC
FFF003FC
FFF003FC
FFF003FC
FFFC03FC
FFFC03FC
FFFC03FC
FFFC03FC
FFFC03FC
FFFC03FC
FFFC03FC
FFFC03FC
FFFF03FC
FFFF03FC
FFFF03FC
FFFF03FC
FFFF03FC
FFFF03FC
FFFF03FC
FFFF03FC
FF3FC3FC
FF3FC3FC
FF3FC3FC
FF3FC3FC
FF3FC3FC
FF3FC3FC
FF3FF3FC
FF3FF3FC
FF0FF3FC
FF0FF3FC
FF0FF3FC
FF0FF3FC
FF0FF3FC
FF0FF3FC
FF0FFFFC
FF0FFFFC
FF03FFFC
FF03FFFC
FF03FFFC
FF03FFFC
FF03FFFC
FF03FFFC
FF00FFFC
FF00FFFC
FF00FFFC
FF00FFFC
FF00FFFC
FF00FFFC
FF00FFFC
FF00FFFC
FF003FFC
FF003FFC
FF003FFC
FF003FFC
FF003FFC
FF003FFC
FF003FFC
FF003FFC
FF000FFC
FF000FFC
FF000FFC
FF000FFC
FF000FFC
FF000FFC
00000000
00000000
000FF000
000FF000
000FF000
000FF000
000FF000
000FF000
000FF000
000FF000
000FF000
000FF000
0003C000
0003C000
000F0000
000F0000
ENDCHAR
STARTCHAR 0147
ENCODING 327
SWIDTH 844 0
DWIDTH 38 0
BBX 30 76 4 0
BITMAP
3FF03FF0
3FF03FF0
03FCFFC0
03FCFFC0
00FFFF00
00FFFF00
00FFFC00
00FFFC00
003FF000
003FF000
00000000
00000000
FFF003FC
FFF003FC
FFF003FC
FFF003FC
FFFC03FC
FFFC03FC
FFFC03FC
FFFC03FC
FFFC03FC
FFFC03FC
FFFC03FC
FFFC03FC
FFFF03FC
FFFF03FC
FFFF03FC
FFFF03FC
FFFF03FC
FFFF03FC
FFFF03FC
FFFF03FC
FF3FC3FC
FF3FC3FC
FF3FC3FC
FF3FC3FC
FF3FC3FC
FF3FC3FC
FF3FF3FC
FF3FF3FC
FF0FF3FC
FF0FF3FC
FF0FF3FC
FF0FF3FC
FF0FF3FC
FF0FF3FC
FF0FFFFC
FF0FFFFC
FF03FFFC
FF03FFFC
FF03FFFC
FF03FFFC
FF03FFFC
FF03FFFC
FF00FFFC
FF00FFFC
FF00FFFC
FF00FFFC
FF00FFFC
FF00FFFC
FF00FFFC
FF00FFFC
FF003FFC
FF003FFC
FF003FFC
FF003FFC
FF003FFC
FF003FFC
FF003FFC
FF003FFC
FF000FFC
FF000FFC
FF000FFC
FF000FFC
FF000FFC
FF000FFC
ENDCHAR
STARTCHAR 0148
ENCODING 328
SWIDTH 844 0
DWIDTH 38 0
BBX 30 76 4 0
BITMAP
3FF03FF0
3FF03FF0
03FCFFC0
03FCFFC0
00FFFF00
00FFFF00
00FFFC00
00FFFC00
003FF000
003FF000
00000000
00000000
FFF003FC
FFF003FC
FFF003FC
FFF003FC
FFFC03FC
FFFC03FC
FFFC03FC
FFFC03FC
FFFC03FC
FFFC03FC
FFFC03FC
FFFC03FC
FFFF03FC
FFFF03FC
FFFF03FC
FFFF03FC
FFFF03FC
FFFF03FC
FFFF03FC
FFFF03FC
FF3FC3FC
FF3FC3FC
FF3FC3FC
FF3FC3FC
FF3FC3FC
FF3FC3FC
FF3FF3FC
FF3FF3FC
FF0FF3FC
FF0FF3FC
FF0FF3FC
FF0FF3FC
FF0FF3FC
FF0FF3FC
FF0FFFFC
FF0FFFFC
FF03FFFC
FF03FFFC
FF03FFFC
FF03FFFC
FF03FFFC
FF03FFFC
FF00FFFC
FF00FFFC
FF00FFFC
FF00FFFC
FF00FFFC
FF00FFFC
FF00FFFC
FF00FFFC
FF003FFC
FF003FFC
FF003FFC
FF003FFC
FF003FFC
FF003FFC
FF003FFC
FF003FFC
FF000FFC
FF000FFC
FF000FFC
FF000FFC
FF000FFC
FF000FFC
ENDCHAR
STARTCHAR 0149
ENCODING 329
SWIDTH 1066 0
DWIDTH 48 0
BBX 46 64 0 0
BITMAP
FFC3FFC00FFC
FFC3FFC00FFC
FFC3FFF00FFC
FFC3FFF00FFC
FFC3FFF00FFC
FFC3FFF00FFC
FFC3FFF00FFC
FFC3FFF00FFC
FFC3FFF00FFC
FFC3FFF00FFC
0F03FFFC0FFC
0F03FFFC0FFC
0F03FFFC0FFC
0F03FFFC0FFC
3F03FFFC0FFC
3F03FFFC0FFC
3C03FFFC0FFC
3C03FFFC0FFC
0003FCFF0FFC
0003FCFF0FFC
0003FCFF0FFC
0003FCFF0FFC
0003FCFF0FFC
0003FCFF0FFC
0003FCFFCFFC
0003FCFFCFFC
0003FC3FCFFC
0003FC3FCFFC
0003FC3FCFFC
0003FC3FCFFC
0003FC3FCFFC
0003FC3FCFFC
0003FC0FFFFC
0003FC0FFFFC
0003FC0FFFFC
0003FC0FFFFC
0003FC0FFFFC
0003FC0FFFFC
0003FC0FFFFC
0003FC0FFFFC
0003FC03FFFC
0003FC03FFFC
0003FC03FFFC
0003FC03FFFC
0003FC03FFFC
0003FC03FFFC
0003FC03FFFC
0003FC03FFFC
0003FC00FFFC
0003FC00FFFC
0003FC00FFFC
0003FC00FFFC
0003FC00FFFC
0003FC00FFFC
0003FC00FFFC
0003FC00FFFC
0003FC003FFC
0003FC003FFC
0003FC003FFC
0003FC003FFC
0003FC003FFC
0003FC003FFC
0003FC003FFC
0003FC003FFC
ENDCHAR
STARTCHAR 014C
ENCODING 332
SWIDTH 800 0
DWIDTH 36 0
BBX 30 76 2 0
BITMAP
03FFFFC0
03FFFFC0
03FFFFC0
03FFFFC0
03FFFFC0
03FFFFC0
03FFFFC0
03FFFFC0
00000000
00000000
00000000
00000000
003FFC00
003FFC00
03FFFFC0
03FFFFC0
0FFFFFF0
0FFFFFF0
3FFFFFF0
3FFFFFF0
3FFFFFFC
3FFFFFFC
3FF00FFC
3FF00FFC
FFC00FFC
FFC00FFC
FFC00FFC
FFC00FFC
FFC00FFC
FFC00FFC
FFC00FFC
FFC00FFC
FFC00FFC
FFC00FFC
FFC00FFC
FFC00FFC
FFC00FFC
FFC00FFC
FFC00FFC
FFC00FFC
FFC00FFC
FFC00FFC
FFC00FFC
FFC00FFC
FFC00FFC
FFC00FFC
FFC00FFC
FFC00FFC
FFC00FFC
FFC00FFC
FFC00FFC
FFC00FFC
FFC00FFC
FFC00FFC
FFC00FFC
FFC00FFC
FFC00FFC
FFC00FFC
FFC00FFC
FFC00FFC
FFC00FFC
FFC00FFC
FFC00FFC
FFC00FFC
3FF00FFC
3FF00FFC
3FFFFFFC
3FFFFFFC
3FFFFFF0
3FFFFFF0
0FFFFFF0
0FFFFFF0
03FFFFC0
03FFFFC0
003FFC00
003FFC00
ENDCHAR
STARTCHAR 014D
ENCODING 333
SWIDTH 800 0
DWIDTH 36 0
BBX 30 76 2 0
BITMAP
03FFFFC0
03FFFFC0
03FFFFC0
03FFFFC0
03FFFFC0
03FFFFC0
03FFFFC0
03FFFFC0
00000000
00000000
00000000
00000000
003FFC00
003FFC00
03FFFFC0
03FFFFC0
0FFFFFF0
0FFFFFF0
3FFFFFF0
3FFFFFF0
3FFFFFFC
3FFFFFFC
3FF00FFC
3FF00FFC
FFC00FFC
FFC00FFC
FFC00FFC
FFC00FFC
FFC00FFC
FFC00FFC
FFC00FFC
FFC00FFC
FFC00FFC
FFC00FFC
FFC00FFC
FFC00FFC
FFC00FFC
FFC00FFC
FFC00FFC
FFC00FFC
FFC00FFC
FFC00FFC
FFC00FFC
FFC00FFC
FFC00FFC
FFC00FFC
FFC00FFC
FFC00FFC
FFC00FFC
FFC00FFC
FFC00FFC
FFC00FFC
FFC00FFC
FFC00FFC
FFC00FFC
FFC00FFC
FFC00FFC
FFC00FFC
FFC00FFC
FFC00FFC
FFC00FFC
FFC00FFC
FFC00FFC
FFC00FFC
3FF00FFC
3FF00FFC
3FFFFFFC
3FFFFFFC
3FFFFFF0
3FFFFFF0
0FFFFFF0
0FFFFFF0
03FFFFC0
03FFFFC0
003FFC00
003FFC00
ENDCHAR
STARTCHAR 014E
ENCODING 334
SWIDTH 800 0
DWIDTH 36 0
BBX 30 78 2 0
BITMAP
03F00FC0
03F00FC0
03F00FC0
03F00FC0
03FFFFC0
03FFFFC0
00FFFF00
00FFFF00
003FFC00
003FFC00
00000000
00000000
00000000
00000000
003FFC00
003FFC00
03FFFFC0
03FFFFC0
0FFFFFF0
0FFFFFF0
3FFFFFF0
3FFFFFF0
3FFFFFFC
3FFFFFFC
3FF00FFC
3FF00FFC
FFC00FFC
FFC00FFC
FFC00FFC
FFC00FFC
FFC00FFC
FFC00FFC
FFC00FFC
FFC00FFC
FFC00FFC
FFC00FFC
FFC00FFC
FFC00FFC
FFC00FFC
FFC00FFC
FFC00FFC
FFC00FFC
FFC00FFC
FFC00FFC
FFC00FFC
FFC00FFC
FFC00FFC
FFC00FFC
FFC00FFC
FFC00FFC
FFC00FFC
FFC00FFC
FFC00FFC
FFC00FFC
FFC00FFC
FFC00FFC
FFC00FFC
FFC00FFC
FFC00FFC
FFC00FFC
FFC00FFC
FFC00FFC
FFC00FFC
FFC00FFC
FFC00FFC
FFC00FFC
3FF00FFC
3FF00FFC
3FFFFFFC
3FFFFFFC
3FFFFFF0
3FFFFFF0
0FFFFFF0
0FFFFFF0
03FFFFC0
03FFFFC0
003FFC00
003FFC00
ENDCHAR
STARTCHAR 014F
ENCODING 335
SWIDTH 800 0
DWIDTH 36 0
BBX 30 78 2 0
BITMAP
03F00FC0
03F00FC0
03F00FC0
03F00FC0
03FFFFC0
03FFFFC0
00FFFF00
00FFFF00
003FFC00
003FFC00
00000000
00000000
00000000
00000000
003FFC00
003FFC00
03FFFFC0
03FFFFC0
0FFFFFF0
0FFFFFF0
3FFFFFF0
3FFFFFF0
3FFFFFFC
3FFFFFFC
3FF00FFC
3FF00FFC
FFC00FFC
FFC00FFC
FFC00FFC
FFC00FFC
FFC00FFC
FFC00FFC
FFC00FFC
FFC00FFC
FFC00FFC
FFC00FFC
FFC00FFC
FFC00FFC
FFC00FFC
FFC00FFC
FFC00FFC
FFC00FFC
FFC00FFC
FFC00FFC
FFC00FFC
FFC00FFC
FFC00FFC
FFC00FFC
FFC00FFC
FFC00FFC
FFC00FFC
FFC00FFC
FFC00FFC
FFC00FFC
FFC00FFC
FFC00FFC
FFC00FFC
FFC00FFC
FFC00FFC
FFC00FFC
FFC00FFC
FFC00FFC
FFC00FFC
FFC00FFC
FFC00FFC
FFC00FFC
3FF00FFC
3FF00FFC
3FFFFFFC
3FFFFFFC
3FFFFFF0
3FFFFFF0
0FFFFFF0
0FFFFFF0
03FFFFC0
03FFFFC0
003FFC00
003FFC00
ENDCHAR
STARTCHAR 0150
ENCODING 336
SWIDTH 800 0
DWIDTH 36 0
BBX 30 78 2 0
BITMAP
003FC3FC
003FC3FC
00FFCFF0
00FFCFF0
00FF0FF0
00FF0FF0
03FC3FC0
03FC3FC0
03F03F00
03F03F00
00000000
00000000
00000000
00000000
003FFC00
003FFC00
03FFFFC0
03FFFFC0
0FFFFFF0
0FFFFFF0
3FFFFFF0
3FFFFFF0
3FFFFFFC
3FFFFFFC
3FF00FFC
3FF00FFC
FFC00FFC
FFC00FFC
FFC00FFC
FFC00FFC
FFC00FFC
FFC00FFC
FFC00FFC
FFC00FFC
FFC00FFC
FFC00FFC
FFC00FFC
FFC00FFC
FFC00FFC
FFC00FFC
FFC00FFC
FFC00FFC
FFC00FFC
FFC00FFC
FFC00FFC
FFC00FFC
FFC00FFC
FFC00FFC
FFC00FFC
FFC00FFC
FFC00FFC
FFC00FFC
FFC00FFC
FFC00FFC
FFC00FFC
FFC00FFC
FFC00FFC
FFC00FFC
FFC00FFC
FFC00FFC
FFC00FFC
FFC00FFC
FFC00FFC
FFC00FFC
FFC00FFC
FFC00FFC
3FF00FFC
3FF00FFC
3FFFFFFC
3FFFFFFC
3FFFFFF0
3FFFFFF0
0FFFFFF0
0FFFFFF0
03FFFFC0
03FFFFC0
003FFC00
003FFC00
ENDCHAR
STARTCHAR 0151
ENCODING 337
SWIDTH 800 0
DWIDTH 36 0
BBX 30 78 2 0
BITMAP
003FC3FC
003FC3FC
00FFCFF0
00FFCFF0
00FF0FF0
00FF0FF0
03FC3FC0
03FC3FC0
03F03F00
03F03F00
00000000
00000000
00000000
00000000
003FFC00
003FFC00
03FFFFC0
03FFFFC0
0FFFFFF0
0FFFFFF0
3FFFFFF0
3FFFFFF0
3FFFFFFC
3FFFFFFC
3FF00FFC
3FF00FFC
FFC00FFC
FFC00FFC
FFC00FFC
FFC00FFC
FFC00FFC
FFC00FFC
FFC00FFC
FFC00FFC
FFC00FFC
FFC00FFC
FFC00FFC
FFC00FFC
FFC00FFC
FFC00FFC
FFC00FFC
FFC00FFC
FFC00FFC
FFC00FFC
FFC00FFC
FFC00FFC
FFC00FFC
FFC00FFC
FFC00FFC
FFC00FFC
FFC00FFC
FFC00FFC
FFC00FFC
FFC00FFC
FFC00FFC
FFC00FFC
FFC00FFC
FFC00FFC
FFC00FFC
FFC00FFC
FFC00FFC
FFC00FFC
FFC00FFC
FFC00FFC
FFC00FFC
FFC00FFC
3FF00FFC
3FF00FFC
3FFFFFFC
3FFFFFFC
3FFFFFF0
3FFFFFF0
0FFFFFF0
0FFFFFF0
03FFFFC0
03FFFFC0
003FFC00
003FFC00
ENDCHAR
STARTCHAR 0152
ENCODING 338
SWIDTH 1154 0
DWIDTH 52 0
BBX 48 64 2 0
BITMAP
003FFFFFFFFF
003FFFFFFFFF
03FFFFFFFFFF
03FFFFFFFFFF
0FFFFFFFFFFF
0FFFFFFFFFFF
3FFFFFFFFFFF
3FFFFFFFFFFF
3FFFFFFFFFFF
3FFFFFFFFFFF
3FF003FF0000
3FF003FF0000
FFC003FF0000
FFC003FF0000
FFC003FF0000
FFC003FF0000
FFC003FF0000
FFC003FF0000
FFC003FF0000
FFC003FF0000
FFC003FF0000
FFC003FF0000
FFC003FF0000
FFC003FF0000
FFC003FF0000
FFC003FF0000
FFC003FFFFF0
FFC003FFFFF0
FFC003FFFFF0
FFC003FFFFF0
FFC003FFFFF0
FFC003FFFFF0
FFC003FFFFF0
FFC003FFFFF0
FFC003FFFFF0
FFC003FFFFF0
FFC003FF0000
FFC003FF0000
FFC003FF0000
FFC003FF0000
FFC003FF0000
FFC003FF0000
FFC003FF0000
FFC003FF0000
FFC003FF0000
FFC003FF0000
FFC003FF0000
FFC003FF0000
FFC003FF0000
FFC003FF0000
FFC003FF0000
FFC003FF0000
3FF003FF0000
3FF003FF0000
3FFFFFFFFFFF
3FFFFFFFFFFF
3FFFFFFFFFFF
3FFFFFFFFFFF
0FFFFFFFFFFF
0FFFFFFFFFFF
03FFFFFFFFFF
03FFFFFFFFFF
00FFFFFFFFFF
00FFFFFFFFFF
ENDCHAR
STARTCHAR 0153
ENCODING 339
SWIDTH 1154 0
DWIDTH 52 0
BBX 48 64 2 0
BITMAP
003FFFFFFFFF
003FFFFFFFFF
03FFFFFFFFFF
03FFFFFFFFFF
0FFFFFFFFFFF
0FFFFFFFFFFF
3FFFFFFFFFFF
3FFFFFFFFFFF
3FFFFFFFFFFF
3FFFFFFFFFFF
3FF003FF0000
3FF003FF0000
FFC003FF0000
FFC003FF0000
FFC003FF0000
FFC003FF0000
FFC003FF0000
FFC003FF0000
FFC003FF0000
FFC003FF0000
FFC003FF0000
FFC003FF0000
FFC003FF0000
FFC003FF0000
FFC003FF0000
FFC003FF0000
FFC003FFFFF0
FFC003FFFFF0
FFC003FFFFF0
FFC003FFFFF0
FFC003FFFFF0
FFC003FFFFF0
FFC003FFFFF0
FFC003FFFFF0
FFC003FFFFF0
FFC003FFFFF0
FFC003FF0000
FFC003FF0000
FFC003FF0000
FFC003FF0000
FFC003FF0000
FFC003FF0000
FFC003FF0000
FFC003FF0000
FFC003FF0000
FFC003FF0000
FFC003FF0000
FFC003FF0000
FFC003FF0000
FFC003FF0000
FFC003FF0000
FFC003FF0000
3FF003FF0000
3FF003FF0000
3FFFFFFFFFFF
3FFFFFFFFFFF
3FFFFFFFFFFF
3FFFFFFFFFFF
0FFFFFFFFFFF
0FFFFFFFFFFF
03FFFFFFFFFF
03FFFFFFFFFF
00FFFFFFFFFF
00FFFFFFFFFF
ENDCHAR
STARTCHAR 0154
ENCODING 340
SWIDTH 800 0
DWIDTH 36 0
BBX 30 76 4 0
BITMAP
0003FF00
0003FF00
000FFC00
000FFC00
000FF000
000FF000
003FC000
003FC000
00FF0000
00FF0000
00000000
00000000
FFFFFC00
FFFFFC00
FFFFFF00
FFFFFF00
FFFFFFC0
FFFFFFC0
FFFFFFF0
FFFFFFF0
FFFFFFF0
FFFFFFF0
FFC03FF0
FFC03FF0
FFC00FFC
FFC00FFC
FFC00FFC
FFC00FFC
FFC00FFC
FFC00FFC
FFC00FFC
FFC00FFC
FFC00FFC
FFC00FFC
FFC00FFC
FFC00FFC
FFC03FF0
FFC03FF0
FFC03FF0
FFC03FF0
FFFFFFF0
FFFFFFF0
FFFFFFC0
FFFFFFC0
FFFFFF00
FFFFFF00
FFFFFFC0
FFFFFFC0
FFFFFFF0
FFFFFFF0
FFC0FFF0
FFC0FFF0
FFC03FF0
FFC03FF0
FFC00FFC
FFC00FFC
FFC00FFC
FFC00FFC
FFC00FFC
FFC00FFC
FFC00FFC
FFC00FFC
FFC00FFC
FFC00FFC
FFC00FFC
FFC00FFC
FFC00FFC
FFC00FFC
FFC00FFC
FFC00FFC
FFC00FFC
FFC00FFC
FFC00FFC
FFC00FFC
FFC00FFC
FFC00FFC
ENDCHAR
STARTCHAR 0155
ENCODING 341
SWIDTH 800 0
DWIDTH 36 0
BBX 30 76 4 0
BITMAP
0003FF00
0003FF00
000FFC00
000FFC00
000FF000
000FF000
003FC000
003FC000
00FF0000
00FF0000
00000000
00000000
FFFFFC00
FFFFFC00
FFFFFF00
FFFFFF00
FFFFFFC0
FFFFFFC0
FFFFFFF0
FFFFFFF0
FFFFFFF0
FFFFFFF0
FFC03FF0
FFC03FF0
FFC00FFC
FFC00FFC
FFC00FFC
FFC00FFC
FFC00FFC
FFC00FFC
FFC00FFC
FFC00FFC
FFC00FFC
FFC00FFC
FFC00FFC
FFC00FFC
FFC03FF0
FFC03FF0
FFC03FF0
FFC03FF0
FFFFFFF0
FFFFFFF0
FFFFFFC0
FFFFFFC0
FFFFFF00
FFFFFF00
FFFFFFC0
FFFFFFC0
FFFFFFF0
FFFFFFF0
FFC0FFF0
FFC0FFF0
FFC03FF0
FFC03FF0
FFC00FFC
FFC00FFC
FFC00FFC
FFC00FFC
FFC00FFC
FFC00FFC
FFC00FFC
FFC00FFC
FFC00FFC
FFC00FFC
FFC00FFC
FFC00FFC
FFC00FFC
FFC00FFC
FFC00FFC
FFC00FFC
FFC00FFC
FFC00FFC
FFC00FFC
FFC00FFC
FFC00FFC
FFC00FFC
ENDCHAR
STARTCHAR 0156
ENCODING 342
SWIDTH 800 0
DWIDTH 36 0
BBX 30 80 4 -16
BITMAP
FFFFFC00
FFFFFC00
FFFFFF00
FFFFFF00
FFFFFFC0
FFFFFFC0
FFFFFFF0
FFFFFFF0
FFFFFFF0
FFFFFFF0
FFC03FF0
FFC03FF0
FFC00FFC
FFC00FFC
FFC00FFC
FFC00FFC
FFC00FFC
FFC00FFC
FFC00FFC
FFC00FFC
FFC00FFC
FFC00FFC
FFC00FFC
FFC00FFC
FFC03FF0
FFC03FF0
FFC03FF0
FFC03FF0
FFFFFFF0
FFFFFFF0
FFFFFFC0
FFFFFFC0
FFFFFF00
FFFFFF00
FFFFFFC0
FFFFFFC0
FFFFFFF0
FFFFFFF0
FFC0FFF0
FFC0FFF0
FFC03FF0
FFC03FF0
FFC00FFC
FFC00FFC
FFC00FFC
FFC00FFC
FFC00FFC
FFC00FFC
FFC00FFC
FFC00FFC
FFC00FFC
FFC00FFC
FFC00FFC
FFC00FFC
FFC00FFC
FFC00FFC
FFC00FFC
FFC00FFC
FFC00FFC
FFC00FFC
FFC00FFC
FFC00FFC
FFC00FFC
FFC00FFC
00000000
00000000
003FC000
003FC000
003FC000
003FC000
003FC000
003FC000
003FC000
003FC000
003FC000
003FC000
000F0000
000F0000
000F0000
000F0000
ENDCHAR
STARTCHAR 0157
ENCODING 343
SWIDTH 800 0
DWIDTH 36 0
BBX 30 80 4 -16
BITMAP
FFFFFC00
FFFFFC00
FFFFFF00
FFFFFF00
FFFFFFC0
FFFFFFC0
FFFFFFF0
FFFFFFF0
FFFFFFF0
FFFFFFF0
FFC03FF0
FFC03FF0
FFC00FFC
FFC00FFC
FFC00FFC
FFC00FFC
FFC00FFC
FFC00FFC
FFC00FFC
FFC00FFC
FFC00FFC
FFC00FFC
FFC00FFC
FFC00FFC
FFC03FF0
FFC03FF0
FFC03FF0
FFC03FF0
FFFFFFF0
FFFFFFF0
FFFFFFC0
FFFFFFC0
FFFFFF00
FFFFFF00
FFFFFFC0
FFFFFFC0
FFFFFFF0
FFFFFFF0
FFC0FFF0
FFC0FFF0
FFC03FF0
FFC03FF0
FFC00FFC
FFC00FFC
FFC00FFC
FFC00FFC
FFC00FFC
FFC00FFC
FFC00FFC
FFC00FFC
FFC00FFC
FFC00FFC
FFC00FFC
FFC00FFC
FFC00FFC
FFC00FFC
FFC00FFC
FFC00FFC
FFC00FFC
FFC00FFC
FFC00FFC
FFC00FFC
FFC00FFC
FFC00FFC
00000000
00000000
003FC000
003FC000
003FC000
003FC000
003FC000
003FC000
003FC000
003FC000
003FC000
003FC000
000F0000
000F0000
000F0000
000F0000
ENDCHAR
STARTCHAR 0158
ENCODING 344
SWIDTH 800 0
DWIDTH 36 0
BBX 30 76 4 0
BITMAP
3FC0FFC0
3FC0FFC0
0FF0FF00
0FF0FF00
03FFFC00
03FFFC00
00FFF000
00FFF000
003FC000
003FC000
00000000
00000000
FFFFFC00
FFFFFC00
FFFFFF00
FFFFFF00
FFFFFFC0
FFFFFFC0
FFFFFFF0
FFFFFFF0
FFFFFFF0
FFFFFFF0
FFC03FF0
FFC03FF0
FFC00FFC
FFC00FFC
FFC00FFC
FFC00FFC
FFC00FFC
FFC00FFC
FFC00FFC
FFC00FFC
FFC00FFC
FFC00FFC
FFC00FFC
FFC00FFC
FFC03FF0
FFC03FF0
FFC03FF0
FFC03FF0
FFFFFFF0
FFFFFFF0
FFFFFFC0
FFFFFFC0
FFFFFF00
FFFFFF00
FFFFFFC0
FFFFFFC0
FFFFFFF0
FFFFFFF0
FFC0FFF0
FFC0FFF0
FFC03FF0
FFC03FF0
FFC00FFC
FFC00FFC
FFC00FFC
FFC00FFC
FFC00FFC
FFC00FFC
FFC00FFC
FFC00FFC
FFC00FFC
FFC00FFC
FFC00FFC
FFC00FFC
FFC00FFC
FFC00FFC
FFC00FFC
FFC00FFC
FFC00FFC
FFC00FFC
FFC00FFC
FFC00FFC
FFC00FFC
FFC00FFC
ENDCHAR
STARTCHAR 0159
ENCODING 345
SWIDTH 800 0
DWIDTH 36 0
BBX 30 76 4 0
BITMAP
3FC0FFC0
3FC0FFC0
0FF0FF00
0FF0FF00
03FFFC00
03FFFC00
00FFF000
00FFF000
003FC000
003FC000
00000000
00000000
FFFFFC00
FFFFFC00
FFFFFF00
FFFFFF00
FFFFFFC0
FFFFFFC0
FFFFFFF0
FFFFFFF0
FFFFFFF0
FFFFFFF0
FFC03FF0
FFC03FF0
FFC00FFC
FFC00FFC
FFC00FFC
FFC00FFC
FFC00FFC
FFC00FFC
FFC00FFC
FFC00FFC
FFC00FFC
FFC00FFC
FFC00FFC
FFC00FFC
FFC03FF0
FFC03FF0
FFC03FF0
FFC03FF0
FFFFFFF0
FFFFFFF0
FFFFFFC0
FFFFFFC0
FFFFFF00
FFFFFF00
FFFFFFC0
FFFFFFC0
FFFFFFF0
FFFFFFF0
FFC0FFF0
FFC0FFF0
FFC03FF0
FFC03FF0
FFC00FFC
FFC00FFC
FFC00FFC
FFC00FFC
FFC00FFC
FFC00FFC
FFC00FFC
FFC00FFC
FFC00FFC
FFC00FFC
FFC00FFC
FFC00FFC
FFC00FFC
FFC00FFC
FFC00FFC
FFC00FFC
FFC00FFC
FFC00FFC
FFC00FFC
FFC00FFC
FFC00FFC
FFC00FFC
ENDCHAR
STARTCHAR 015A
ENCODING 346
SWIDTH 754 0
DWIDTH 34 0
BBX 30 78 2 0
BITMAP
0000FFC0
0000FFC0
0003FF00
0003FF00
000FFC00
000FFC00
000FF000
000FF000
003FC000
003FC000
00000000
00000000
00000000
00000000
00FFFC00
00FFFC00
03FFFF00
03FFFF00
0FFFFFC0
0FFFFFC0
3FFFFFF0
3FFFFFF0
3FFFFFF0
3FFFFFF0
FFF00FFC
FFF00FFC
FFC00FFC
FFC00FFC
FFC00FFC
FFC00FFC
FFC00FFC
FFC00FFC
FFC00000
FFC00000
FFF00000
FFF00000
3FFC0000
3FFC0000
3FFC0000
3FFC0000
0FFF0000
0FFF0000
0FFFC000
0FFFC000
03FFFC00
03FFFC00
00FFFF00
00FFFF00
003FFF00
003FFF00
0003FFC0
0003FFC0
0000FFF0
0000FFF0
0000FFF0
0000FFF0
00003FF0
00003FF0
FFC00FFC
FFC00FFC
FFC00FFC
FFC00FFC
FFC00FFC
FFC00FFC
FFC00FFC
FFC00FFC
FFC03FFC
FFC03FFC
FFFFFFF0
FFFFFFF0
3FFFFFF0
3FFFFFF0
0FFFFFC0
0FFFFFC0
0FFFFF00
0FFFFF00
00FFFC00
00FFFC00
ENDCHAR
STARTCHAR 015B
ENCODING 347
SWIDTH 754 0
DWIDTH 34 0
BBX 30 78 2 0
BITMAP
0000FFC0
0000FFC0
0003FF00
0003FF00
000FFC00
000FFC00
000FF000
000FF000
003FC000
003FC000
00000000
00000000
00000000
00000000
00FFFC00
00FFFC00
03FFFF00
03FFFF00
0FFFFFC0
0FFFFFC0
3FFFFFF0
3FFFFFF0
3FFFFFF0
3FFFFFF0
FFF00FFC
FFF00FFC
FFC00FFC
FFC00FFC
FFC00FFC
FFC00FFC
FFC00FFC
FFC00FFC
FFC00000
FFC00000
FFF00000
FFF00000
3FFC0000
3FFC0000
3FFC0000
3FFC0000
0FFF0000
0FFF0000
0FFFC000
0FFFC000
03FFFC00
03FFFC00
00FFFF00
00FFFF00
003FFF00
003FFF00
0003FFC0
0003FFC0
0000FFF0
0000FFF0
0000FFF0
0000FFF0
00003FF0
00003FF0
FFC00FFC
FFC00FFC
FFC00FFC
FFC00FFC
FFC00FFC
FFC00FFC
FFC00FFC
FFC00FFC
FFC03FFC
FFC03FFC
FFFFFFF0
FFFFFFF0
3FFFFFF0
3FFFFFF0
0FFFFFC0
0FFFFFC0
0FFFFF00
0FFFFF00
00FFFC00
00FFFC00
ENDCHAR
STARTCHAR 015C
ENCODING 348
SWIDTH 754 0
DWIDTH 34 0
BBX 30 78 2 0
BITMAP
003FF000
003FF000
00FFFC00
00FFFC00
03FFFC00
03FFFC00
0FFCFF00
0FFCFF00
3FF03FF0
3FF03FF0
00000000
00000000
00000000
00000000
00FFFC00
00FFFC00
03FFFF00
03FFFF00
0FFFFFC0
0FFFFFC0
3FFFFFF0
3FFFFFF0
3FFFFFF0
3FFFFFF0
FFF00FFC
FFF00FFC
FFC00FFC
FFC00FFC
FFC00FFC
FFC00FFC
FFC00FFC
FFC00FFC
FFC00000
FFC00000
FFF00000
FFF00000
3FFC0000
3FFC0000
3FFC0000
3FFC0000
0FFF0000
0FFF0000
0FFFC000
0FFFC000
03FFFC00
03FFFC00
00FFFF00
00FFFF00
003FFF00
003FFF00
0003FFC0
0003FFC0
0000FFF0
0000FFF0
0000FFF0
0000FFF0
00003FF0
00003FF0
FFC00FFC
FFC00FFC
FFC00FFC
FFC00FFC
FFC00FFC
FFC00FFC
FFC00FFC
FFC00FFC
FFC03FFC
FFC03FFC
FFFFFFF0
FFFFFFF0
3FFFFFF0
3FFFFFF0
0FFFFFC0
0FFFFFC0
0FFFFF00
0FFFFF00
00FFFC00
00FFFC00
ENDCHAR
STARTCHAR 015D
ENCODING 349
SWIDTH 754 0
DWIDTH 34 0
BBX 30 78 2 0
BITMAP
003FF000
003FF000
00FFFC00
00FFFC00
03FFFC00
03FFFC00
0FFCFF00
0FFCFF00
3FF03FF0
3FF03FF0
00000000
00000000
00000000
00000000
00FFFC00
00FFFC00
03FFFF00
03FFFF00
0FFFFFC0
0FFFFFC0
3FFFFFF0
3FFFFFF0
3FFFFFF0
3FFFFFF0
FFF00FFC
FFF00FFC
FFC00FFC
FFC00FFC
FFC00FFC
FFC00FFC
FFC00FFC
FFC00FFC
FFC00000
FFC00000
FFF00000
FFF00000
3FFC0000
3FFC0000
3FFC0000
3FFC0000
0FFF0000
0FFF0000
0FFFC000
0FFFC000
03FFFC00
03FFFC00
00FFFF00
00FFFF00
003FFF00
003FFF00
0003FFC0
0003FFC0
0000FFF0
0000FFF0
0000FFF0
0000FFF0
00003FF0
00003FF0
FFC00FFC
FFC00FFC
FFC00FFC
FFC00FFC
FFC00FFC
FFC00FFC
FFC00FFC
FFC00FFC
FFC03FFC
FFC03FFC
FFFFFFF0
FFFFFFF0
3FFFFFF0
3FFFFFF0
0FFFFFC0
0FFFFFC0
0FFFFF00
0FFFFF00
00FFFC00
00FFFC00
ENDCHAR
STARTCHAR 015E
ENCODING 350
SWIDTH 754 0
DWIDTH 34 0
BBX 30 78 2 -14
BITMAP
00FFFC00
00FFFC00
03FFFF00
03FFFF00
0FFFFFC0
0FFFFFC0
3FFFFFF0
3FFFFFF0
3FFFFFF0
3FFFFFF0
FFF00FFC
FFF00FFC
FFC00FFC
FFC00FFC
FFC00FFC
FFC00FFC
FFC00FFC
FFC00FFC
FFC00000
FFC00000
FFF00000
FFF00000
3FF00000
3FF00000
3FFC0000
3FFC0000
0FFF0000
0FFF0000
0FFFC000
0FFFC000
03FFF000
03FFF000
00FFFC00
00FFFC00
003FFF00
003FFF00
0003FFC0
0003FFC0
0000FFF0
0000FFF0
0000FFF0
0000FFF0
00003FF0
00003FF0
FFC00FFC
FFC00FFC
FFC00FFC
FFC00FFC
FFC00FFC
FFC00FFC
FFC00FFC
FFC00FFC
FFC03FFC
FFC03FFC
FFFFFFF0
FFFFFFF0
3FFFFFF0
3FFFFFF0
3FFFFFC0
3FFFFFC0
0FFFFFC0
0FFFFFC0
00FFFC00
00FFFC00
000F0000
000F0000
000F0000
000F0000
000FFC00
000FFC00
0000FF00
0000FF00
03F0FF00
03F0FF00
03FFFC00
03FFFC00
003FF000
003FF000
ENDCHAR
STARTCHAR 015F
ENCODING 351
SWIDTH 754 0
DWIDTH 34 0
BBX 30 78 2 -14
BITMAP
00FFFC00
00FFFC00
03FFFF00
03FFFF00
0FFFFFC0
0FFFFFC0
3FFFFFF0
3FFFFFF0
3FFFFFF0
3FFFFFF0
FFF00FFC
FFF00FFC
FFC00FFC
FFC00FFC
FFC00FFC
FFC00FFC
FFC00FFC
FFC00FFC
FFC00000
FFC00000
FFF00000
FFF00000
3FF00000
3FF00000
3FFC0000
3FFC0000
0FFF0000
0FFF0000
0FFFC000
0FFFC000
03FFF000
03FFF000
00FFFC00
00FFFC00
003FFF00
003FFF00
0003FFC0
0003FFC0
0000FFF0
0000FFF0
0000FFF0
0000FFF0
00003FF0
00003FF0
FFC00FFC
FFC00FFC
FFC00FFC
FFC00FFC
FFC00FFC
FFC00FFC
FFC00FFC
FFC00FFC
FFC03FFC
FFC03FFC
FFFFFFF0
FFFFFFF0
3FFFFFF0
3FFFFFF0
3FFFFFC0
3FFFFFC0
0FFFFFC0
0FFFFFC0
00FFFC00
00FFFC00
000F0000
000F0000
000F0000
000F0000
000FFC00
000FFC00
0000FF00
0000FF00
03F0FF00
03F0FF00
03FFFC00
03FFFC00
003FF000
003FF000
ENDCHAR
STARTCHAR 0160
ENCODING 352
SWIDTH 754 0
DWIDTH 34 0
BBX 30 78 2 0
BITMAP
3FC03FF0
3FC03FF0
0FF03FC0
0FF03FC0
03FCFF00
03FCFF00
00FFFC00
00FFFC00
003FF000
003FF000
00000000
00000000
00000000
00000000
00FFFC00
00FFFC00
03FFFF00
03FFFF00
0FFFFFC0
0FFFFFC0
3FFFFFF0
3FFFFFF0
3FFFFFF0
3FFFFFF0
FFF00FFC
FFF00FFC
FFC00FFC
FFC00FFC
FFC00FFC
FFC00FFC
FFC00FFC
FFC00FFC
FFC00000
FFC00000
FFF00000
FFF00000
3FFC0000
3FFC0000
3FFC0000
3FFC0000
0FFF0000
0FFF0000
0FFFC000
0FFFC000
03FFFC00
03FFFC00
00FFFF00
00FFFF00
003FFF00
003FFF00
0003FFC0
0003FFC0
0000FFF0
0000FFF0
0000FFF0
0000FFF0
00003FF0
00003FF0
FFC00FFC
FFC00FFC
FFC00FFC
FFC00FFC
FFC00FFC
FFC00FFC
FFC00FFC
FFC00FFC
FFC03FFC
FFC03FFC
FFFFFFF0
FFFFFFF0
3FFFFFF0
3FFFFFF0
0FFFFFC0
0FFFFFC0
0FFFFF00
0FFFFF00
00FFFC00
00FFFC00
ENDCHAR
STARTCHAR 0161
ENCODING 353
SWIDTH 754 0
DWIDTH 34 0
BBX 30 78 2 0
BITMAP
3FC03FF0
3FC03FF0
0FF03FC0
0FF03FC0
03FCFF00
03FCFF00
00FFFC00
00FFFC00
003FF000
003FF000
00000000
00000000
00000000
00000000
00FFFC00
00FFFC00
03FFFF00
03FFFF00
0FFFFFC0
0FFFFFC0
3FFFFFF0
3FFFFFF0
3FFFFFF0
3FFFFFF0
FFF00FFC
FFF00FFC
FFC00FFC
FFC00FFC
FFC00FFC
FFC00FFC
FFC00FFC
FFC00FFC
FFC00000
FFC00000
FFF00000
FFF00000
3FFC0000
3FFC0000
3FFC0000
3FFC0000
0FFF0000
0FFF0000
0FFFC000
0FFFC000
03FFFC00
03FFFC00
00FFFF00
00FFFF00
003FFF00
003FFF00
0003FFC0
0003FFC0
0000FFF0
0000FFF0
0000FFF0
0000FFF0
00003FF0
00003FF0
FFC00FFC
FFC00FFC
FFC00FFC
FFC00FFC
FFC00FFC
FFC00FFC
FFC00FFC
FFC00FFC
FFC03FFC
FFC03FFC
FFFFFFF0
FFFFFFF0
3FFFFFF0
3FFFFFF0
0FFFFFC0
0FFFFFC0
0FFFFF00
0FFFFF00
00FFFC00
00FFFC00
ENDCHAR
STARTCHAR 0162
ENCODING 354
SWIDTH 710 0
DWIDTH 32 0
BBX 32 80 0 -16
BITMAP
FFFFFFFF
FFFFFFFF
FFFFFFFF
FFFFFFFF
FFFFFFFF
FFFFFFFF
FFFFFFFF
FFFFFFFF
FFFFFFFF
FFFFFFFF
000FF000
000FF000
000FF000
000FF000
000FF000
000FF000
000FF000
000FF000
000FF000
000FF000
000FF000
000FF000
000FF000
000FF000
000FF000
000FF000
000FF000
000FF000
000FF000
000FF000
000FF000
000FF000
000FF000
000FF000
000FF000
000FF000
000FF000
000FF000
000FF000
000FF000
000FF000
000FF000
000FF000
000FF000
000FF000
000FF000
000FF000
000FF000
000FF000
000FF000
000FF000
000FF000
000FF000
000FF000
000FF000
000FF000
000FF000
000FF000
000FF000
000FF000
000FF000
000FF000
000FF000
000FF000
0003C000
0003C000
0003C000
0003C000
0003FC00
0003FC00
0000FF00
0000FF00
00FC3F00
00FC3F00
00FCFF00
00FCFF00
00FFFC00
00FFFC00
000FF000
000FF000
ENDCHAR
STARTCHAR 0163
ENCODING 355
SWIDTH 710 0
DWIDTH 32 0
BBX 32 80 0 -16
BITMAP
FFFFFFFF
FFFFFFFF
FFFFFFFF
FFFFFFFF
FFFFFFFF
FFFFFFFF
FFFFFFFF
FFFFFFFF
FFFFFFFF
FFFFFFFF
000FF000
000FF000
000FF000
000FF000
000FF000
000FF000
000FF000
000FF000
000FF000
000FF000
000FF000
000FF000
000FF000
000FF000
000FF000
000FF000
000FF000
000FF000
000FF000
000FF000
000FF000
000FF000
000FF000
000FF000
000FF000
000FF000
000FF000
000FF000
000FF000
000FF000
000FF000
000FF000
000FF000
000FF000
000FF000
000FF000
000FF000
000FF000
000FF000
000FF000
000FF000
000FF000
000FF000
000FF000
000FF000
000FF000
000FF000
000FF000
000FF000
000FF000
000FF000
000FF000
000FF000
000FF000
0003C000
0003C000
0003C000
0003C000
0003FC00
0003FC00
0000FF00
0000FF00
00FC3F00
00FC3F00
00FCFF00
00FCFF00
00FFFC00
00FFFC00
000FF000
000FF000
ENDCHAR
STARTCHAR 0164
ENCODING 356
SWIDTH 710 0
DWIDTH 32 0
BBX 32 76 0 0
BITMAP
0FF00FF0
0FF00FF0
03FC3FC0
03FC3FC0
00FFFF00
00FFFF00
003FFC00
003FFC00
000FF000
000FF000
00000000
00000000
FFFFFFFF
FFFFFFFF
FFFFFFFF
FFFFFFFF
FFFFFFFF
FFFFFFFF
FFFFFFFF
FFFFFFFF
FFFFFFFF
FFFFFFFF
000FF000
000FF000
000FF000
000FF000
000FF000
000FF000
000FF000
000FF000
000FF000
000FF000
000FF000
000FF000
000FF000
000FF000
000FF000
000FF000
000FF000
000FF000
000FF000
000FF000
000FF000
000FF000
000FF000
000FF000
000FF000
000FF000
000FF000
000FF000
000FF000
000FF000
000FF000
000FF000
000FF000
000FF000
000FF000
000FF000
000FF000
000FF000
000FF000
000FF000
000FF000
000FF000
000FF000
000FF000
000FF000
000FF000
000FF000
000FF000
000FF000
000FF000
000FF000
000FF000
000FF000
000FF000
ENDCHAR
STARTCHAR 0165
ENCODING 357
SWIDTH 710 0
DWIDTH 32 0
BBX 32 76 0 0
BITMAP
0FF00FF0
0FF00FF0
03FC3FC0
03FC3FC0
00FFFF00
00FFFF00
003FFC00
003FFC00
000FF000
000FF000
00000000
00000000
FFFFFFFF
FFFFFFFF
FFFFFFFF
FFFFFFFF
FFFFFFFF
FFFFFFFF
FFFFFFFF
FFFFFFFF
FFFFFFFF
FFFFFFFF
000FF000
000FF000
000FF000
000FF000
000FF000
000FF000
000FF000
000FF000
000FF000
000FF000
000FF000
000FF000
000FF000
000FF000
000FF000
000FF000
000FF000
000FF000
000FF000
000FF000
000FF000
000FF000
000FF000
000FF000
000FF000
000FF000
000FF000
000FF000
000FF000
000FF000
000FF000
000FF000
000FF000
000FF000
000FF000
000FF000
000FF000
000FF000
000FF000
000FF000
000FF000
000FF000
000FF000
000FF000
000FF000
000FF000
000FF000
000FF000
000FF000
000FF000
000FF000
000FF000
000FF000
000FF000
ENDCHAR
STARTCHAR 0166
ENCODING 358
SWIDTH 710 0
DWIDTH 32 0
BBX 32 64 0 0
BITMAP
FFFFFFFF
FFFFFFFF
FFFFFFFF
FFFFFFFF
FFFFFFFF
FFFFFFFF
FFFFFFFF
FFFFFFFF
FFFFFFFF
FFFFFFFF
000FF000
000FF000
000FF000
000FF000
000FF000
000FF000
000FF000
000FF000
000FF000
000FF000
03FFFFC0
03FFFFC0
03FFFFC0
03FFFFC0
03FFFFC0
03FFFFC0
03FFFFC0
03FFFFC0
000FF000
000FF000
000FF000
000FF000
000FF000
000FF000
000FF000
000FF000
000FF000
000FF000
000FF000
000FF000
000FF000
000FF000
000FF000
000FF000
000FF000
000FF000
000FF000
000FF000
000FF000
000FF000
000FF000
000FF000
000FF000
000FF000
000FF000
000FF000
000FF000
000FF000
000FF000
000FF000
000FF000
000FF000
000FF000
000FF000
ENDCHAR
ENDFONT
